<svg width="313" height="265" viewBox="0 0 313 265" fill="none" xmlns="http://www.w3.org/2000/svg">
<rect width="76.098" height="58.5436" transform="matrix(1 -1.36228e-07 -4.31216e-08 -1 246.299 183.305)" fill="#E69A30"/>
<rect width="76.899" height="115.868" transform="matrix(1 -1.24681e-07 -4.9148e-08 -1 207.852 124.76)" fill="#E69A30"/>
<rect width="76.098" height="58.5436" transform="matrix(1 -1.36228e-07 -4.31216e-08 -1 38.4473 214.994)" fill="#E69A30"/>
<rect width="76.899" height="115.868" transform="matrix(1 -1.24681e-07 -4.9148e-08 -1 0 156.449)" fill="#E69A30"/>
<rect width="38.6341" height="44.569" transform="matrix(1 -1.36228e-07 -4.31216e-08 -1 266.963 264.82)" fill="#E69A30"/>
<rect width="76.098" height="58.5436" transform="matrix(1 -1.36228e-07 -4.31216e-08 -1 191.051 220.025)" fill="#E69A30"/>
<rect width="76.899" height="115.868" transform="matrix(1 -1.36228e-07 -4.31216e-08 -1 152.602 161.482)" fill="#E69A30"/>
<rect width="38.4495" height="57.6257" transform="matrix(1 -3.11729e-09 1.42948e-08 -1 114.545 45.627)" fill="#E69A30"/>
</svg>
