<svg width="1147" height="239" viewBox="0 0 1147 239" fill="none" xmlns="http://www.w3.org/2000/svg">
<rect width="196.971" height="84.0672" transform="matrix(1 -8.21052e-08 -9.40362e-08 -1 637.518 121.453)" fill="#E69A30"/>
<rect width="199.044" height="166.383" transform="matrix(1 -7.5699e-08 -1.04899e-07 -1 538 37.3828)" fill="#E69A30"/>
<rect width="196.971" height="84.0672" transform="matrix(1 -8.21052e-08 -9.40362e-08 -1 1032.51 121.453)" fill="#E69A30"/>
<rect width="199.044" height="166.383" transform="matrix(1 -8.21052e-08 -9.40362e-08 -1 932.994 37.3828)" fill="#E69A30"/>
<rect width="196.971" height="84.0672" transform="matrix(1 -8.21052e-08 -9.40362e-08 -1 99.5156 166.961)" fill="#E69A30"/>
<rect width="199.044" height="166.383" transform="matrix(1 -7.5699e-08 -1.04899e-07 -1 0 82.8906)" fill="#E69A30"/>
<rect width="100" height="64" transform="matrix(1 -8.21052e-08 -9.40362e-08 -1 691 238.508)" fill="#E69A30"/>
<rect width="196.971" height="84.0672" transform="matrix(1 -8.21052e-08 -9.40362e-08 -1 494.512 174.188)" fill="#E69A30"/>
<rect width="199.044" height="166.383" transform="matrix(1 -8.21052e-08 -9.40362e-08 -1 394.994 90.1172)" fill="#E69A30"/>
</svg>
