<?xml version="1.0" encoding="utf-8"?>
<!-- Generator: Adobe Illustrator 25.3.1, SVG Export Plug-In . SVG Version: 6.00 Build 0)  -->
<svg version="1.1" id="Layer_1" xmlns="http://www.w3.org/2000/svg" xmlns:xlink="http://www.w3.org/1999/xlink" x="0px" y="0px"
	 viewBox="0 0 375 421" style="enable-background:new 0 0 375 421;" xml:space="preserve">
<style type="text/css">
	.st0{fill:#C4C4C4;}
</style>
<g>
	<path class="st0" d="M99.5,132.2C99.5,132.2,99.5,132.2,99.5,132.2C99.5,132.2,99.5,132.2,99.5,132.2L99.5,132.2z"/>
	<path class="st0" d="M-67.8,196C-67.8,196-67.8,196-67.8,196C-67.9,196-67.9,196-67.8,196L-67.8,196z"/>
	<path class="st0" d="M470,112.6c-0.5,0.8-1,1.6-1.6,2.5c-5.1-3.2-10-6.7-15.1-10c-3.9,5.8-7.8,11.6-11.8,17.6c-1.9-1-3.8-2-5.7-3
		c-0.4,0.7-0.8,1.3-1.2,2.1c1.8,0.7,3.2,2,5.2,2.1c0.1,0.1,0.2,0.5,0.4,0.8c-0.3,0.4-0.5,0.7-0.8,1.2c-7-4.7-13.9-9.3-20.9-14
		c0.4-0.5,0.8-0.9,1.1-1.4c1.3-2,2.5-4,3.8-6c2.2-3.4,4.5-6.7,6.8-10.1c0.7-1.1,1.4-2.2,2.3-3.4c-3.1-2.1-6.2-4.1-9.3-6.2l0.8-3.2
		c-0.5-0.1-1-0.2-1.4-0.3c-2.2-0.5-4.4-1-6.5-1.6c-0.7-0.2-1.4-0.6-2.1-1c-0.8-0.4-1.5-0.9-2.2-1.4c-0.4,0.4-0.7,0.7-1.1,1.2
		l-45.9-11.2l-2.2,8.9c0,0,0,0,0,0c-0.3-0.1-0.5-0.1-0.8-0.2c-2.2-0.8-4.4-1.6-6.7-2.4c-1.4-0.5-2.8-1-4.2-1.5
		c-1.1-0.4-2.3-0.8-3.6-1.2c-1.2,3.7-2.4,7.3-3.6,10.9c0,0,0,0,0,0c-0.4-0.1-0.9-0.2-1.3-0.4c-1.6-0.7-3.2-1.5-4.8-2.2
		c-2.3-1-4.6-2-6.9-2.9c-0.2-0.1-0.4-0.3-0.7-0.5l3.9-16.1l-29.3-7.2l7.3-29.9l-29.9-7.3l-0.6,2.3c6.6,2.2,13.1,4.5,19.7,6.7
		c0,0,0,0,0,0c-6.6-2.3-13.2-4.5-19.7-6.7c-0.3-0.1-0.6-0.1-0.9-0.2c-1.9-0.6-3.9-1.3-5.8-1.9c-0.4-0.1-0.8-0.2-1.3-0.3
		c-0.5,1.6-1.1,3.1-1.6,4.6c0,0,0,0,0,0c-2.8-1.2-5.7-2.5-8.5-3.7l0,0c-0.2,0.3-0.5,0.6-0.7,0.9c-0.9,2-1.7,4-2.6,6.1c0,0,0,0,0,0
		c-0.5-0.2-1.1-0.5-1.9-0.8c1.6-1.8,2.8-3.8,4.5-5.3c0.2-0.3,0.5-0.6,0.7-0.9c0.8-1.2,1.7-2.3,2.5-3.6c1.2,0.4,2.3,0.7,3.5,1
		c0.8,0.2,1.6,0.4,2.4,0.6c-1.4-1-2.8-2-4.3-3.1c1.5-2.5,3.7-4.5,5.4-7c-6.1-4.9-12.2-9.8-18.3-14.8c0,0,0,0,0,0
		c6.1,4.9,12.2,9.9,18.3,14.8c-1.8,2.6-3.9,4.5-5.4,7c1.6,1.1,3,2.1,4.3,3.1l0,0c0.5,0.2,1,0.5,1.4,0.7c0.5-0.6,0.8-1,1.2-1.6
		l7.7,1.9l2.1-8.6c-1.2-0.7-2.4-1.5-3.7-2.3c2-3.4,4.3-6.6,6.6-10.1c-5.4-3.8-10.9-7.3-16.4-11c0.4-0.8,0.8-1.5,1.2-2.2
		c-4.1-1.1-8.3-2.1-12.4-3.1c-0.2,0.5-0.3,0.9-0.4,1.2c2,0.7,4,1.4,6.2,2.2c-0.6,1.5-1.8,2.7-2.6,4.1c-0.8-0.3-1.5-0.6-2.2-0.9
		c-2-0.8-3.9-1.7-5.9-2.6c-0.3-0.1-0.5-0.3-0.8-0.5c-1.6-0.6-3.3-1.3-5-1.9c-0.9,2-1.7,4-2.6,5.9c0.6,0.3,1.2,0.7,1.8,1
		c1.4,0.8,2.9,1.5,4.3,2.4c0.4,0.3,0.9,0.5,1.3,0.6c-0.5-0.1-0.9-0.3-1.3-0.6c-1.4-0.8-2.8-1.6-4.3-2.4c-0.6-0.3-1.2-0.7-1.8-1
		c-1.8-0.9-3.5-1.8-5.4-2.8c-1.5,2.7-2.8,5.2-4.2,7.7c-1.7-1.1-3.5-2.1-5.2-3.2c-0.7,1.1-1.4,2.1-2.1,3.1c-1.3,2-2.6,3.9-3.9,5.9
		c-0.4-0.2-0.8-0.3-1.2-0.5c-1-0.8-2.1-1.7-3.2-2.7c-0.3,0.2-0.6,0.4-0.9,0.7c-0.8,0.8-1.5,1.7-2.3,2.5c-0.6,0.8-1.2,1.7-2,2.7
		c0,0,0,0,0,0c0.7-1,1.4-1.9,2-2.7c-1.3-0.6-2.5-1.1-3.9-1.8c1.1-1.2,2-2.2,3-3.1c0.3-0.3,0.6-0.5,0.9-0.8c1.3-1.4,2.6-2.8,3.9-4.3
		c0.9-1,1.8-2,2.8-3c-0.6-0.7-1.2-1.3-1.8-1.9c-2.2-2.1-4.3-4.2-6.5-6.3c-2-1.9-4-3.8-6-5.7c-0.3-0.3-0.6-0.7-0.8-1
		c-0.3-0.3-0.7-0.6-1-0.9c-0.2,0.2-0.5,0.3-0.7,0.5c-0.9,1-1.8,2-2.8,2.9c-1.9,2-3.9,4-5.8,6c0,0,0,0,0,0c-0.4,0.1-0.9,0-1.2,0.2
		c-1.3,1.1-2.6,2.3-3.9,3.4c-1.3,1.2-2.7,2.3-4,3.5c-1,0.9-1.8,1.8-2.8,2.7c0,0,0,0,0,0l0,0c-0.1,0.1-0.2,0.2-0.3,0.2
		c-0.2,0.2-0.3,0.3-0.5,0.5c-0.2,0.2-0.4,0.3-0.7,0.5c-0.1,0.1-0.2,0.2-0.4,0.3c-4.7,3.5-9.3,7-14.2,10.6c0.3,0.3,0.6,0.6,0.8,0.9
		c0.8-0.3,1.5-0.7,2.2-1.1c0.7-0.4,1.4-0.8,2.2-1.3c0,0,0,0,0,0c-0.8,0.5-1.5,0.9-2.2,1.3c-0.7,0.4-1.5,0.7-2.2,1.1v0
		c-1,0.7-2,1.4-3,2c-2.3,1.4-4.6,2.8-6.9,4.2c-0.7,0.4-1.4,0.9-2.2,1.4c0.4,0.8,0.7,1.4,1,2c-0.3,0.4-0.5,0.7-0.7,1c0,0,0,0,0,0l0,0
		c-0.1,0.1-0.3,0.2-0.4,0.3c-1.1,0.8-2.3,1.5-3.7,1.9c-0.5-0.6-0.9-1.1-1.4-1.7c-3.6,2.6-7.1,5.2-10.5,7.7l0,0c0,0,0,0,0,0
		c-0.4-0.3-0.8-0.6-1.2-0.9c-0.9,0.5-1.7,1-2.5,1.5c-2.3,1.4-4.6,2.8-6.9,4.2c-0.7,0.5-1.4,1-2.1,1.5c1.3,2.7,2.5,5.5,4.1,8.1
		c0,0,0,0,0,0c-1.6-2.6-2.8-5.4-4.1-8.1c-0.1,0-0.2,0-0.3,0.1c-4.3,2.1-8.6,4.3-12.9,6.4c-1.1,0.6-2.2,1.1-3.4,1.8
		c0.2,0.4,0.3,0.8,0.5,1.1c1-0.3,2.1-0.6,3.1-0.9c0.4-0.1,0.7-0.2,1.2-0.4c0,0,0,0,0,0c-0.4,0.1-0.8,0.3-1.2,0.4
		c-1,0.3-2.1,0.6-3.1,0.9v0c-0.4,0.2-0.7,0.5-1.1,0.7c-1.4,0.6-2.8,1.1-4.3,1.7c-2.2,0.9-4.5,1.7-6.7,2.6c0.3,1.1,0.6,2,0.9,3
		c1.2-0.3,2.3-0.6,3.5-1c0,0,0,0,0,0c-1.2,0.3-2.4,0.7-3.5,1c-4.1,1.2-8.1,2.4-12.3,3.6c0.4,1.5,0.8,2.9,1.1,4.3c0,0,0,0,0,0
		c-0.2,0.1-0.4,0.3-0.6,0.4c-2.9,0.6-5.9,1.1-8.8,1.7c-0.9,0.2-1.8,0.4-2.7,0.6c0.3,2,0.7,4,1,5.9c-2.3,0.3-4.6,0.5-6.9,0.8
		c-1.6,0.2-3.1,0.4-4.8,0.6c0.2,2.4,0.5,4.8,0.7,7.1c1.1,0.1,2.1,0.2,3.3,0.3c0,1.4,0.1,2.9,0.1,4.3c0.1,1,0.2,2,0.3,3l0,0
		c4-0.4,7.9-0.9,12-1.3c-0.1-1.9-0.3-3.8-0.4-5.7c0.7-0.1,1.4-0.2,2.3-0.4c0,2,0,4,0,5.9c0,0,0,0,0,0c-0.5,0-1,0.1-1.7,0.1
		c0.1,1.5,0.1,2.8,0.2,4.3c-3.3-0.2-6.4-0.4-9.7-0.6c-0.2,1.6-0.4,3.1-0.6,4.6c-0.1,1.7-0.1,3.4-0.2,5.1c0,0.5,0,1,0,1.6
		c0,0,0,0,0,0c0-0.6,0-1.1,0-1.6c0.1-1.7,0.1-3.4,0.2-5.1l0,0c-0.7-0.1-1.4-0.1-2.3-0.2c-0.1-2.3-0.3-4.5,0-6.7c-0.1-1-0.2-2-0.3-3
		c-0.1-1.4-0.1-2.9-0.1-4.3c-1.2-0.1-2.2-0.2-3.3-0.3c-3.6,0.1-7.1,0.3-10.9,0.4c0,0.9,0,1.9,0,2.9c0,1.7,0.1,3.5,0.1,5.2
		c-3.2-0.2-6.5-0.3-9.8-0.5c-0.2,3-0.4,5.9-0.5,8.8l4.1,1c0,0,0,0,0,0l-4.1-1l0,0c-2.8-0.4-5.7-0.7-8.5-1.1
		c-0.2,0.8-0.4,1.5-0.5,2.3c-0.3,2.3-0.6,4.6-1,6.9c1.5,0.4,3,0.9,4.5,1.3c-0.2,1-0.3,2-0.5,2.9c2.6,0.4,5.2,0.8,7.9,1.2
		c0.1-0.2,0.3-0.5,0.3-0.8c0.3-1.9,0.6-3.7,0.9-5.6c0.1-0.7,0.3-1.5,0.5-2.2c0,0,0,0,0,0c3.1,0.2,6.3,0.5,9.6,0.7
		c0.2-1.7,0.3-3.2,0.5-4.8c0.1-1,0.1-2.1,0.2-3.1c3.6-0.1,7.2-0.1,11-0.2c0.1,2.1,0.1,4.2,0.1,6.3c-2.6-0.3-5.2-0.7-7.9-1L66,89.8
		c0,0,0,0,0,0c-1,0-2,0-3.1-0.1c-0.2,2.2-0.4,4.3-0.5,6.4c0,0.5,0,0.9-0.1,1.6l-3.6-0.9c-0.5-0.1-0.9-0.2-1.4-0.3
		c-0.2,0-0.5-0.1-0.7-0.1c-0.1,0.1-0.3,0.2-0.4,0.3c-0.1,0.4-0.1,0.8-0.2,1.3c-0.8,3.2-1.6,6.4-2.4,9.8c0,0,0,0,0,0
		c0.8-3.4,1.6-6.6,2.4-9.8c0.1-0.4,0.1-0.8,0.2-1.3c-0.2,0.5-0.4,0.9-0.7,1.5c-1.2-0.1-2.4-0.3-3.5-0.4c-0.3,1.7-0.5,3.3-0.8,4.9
		c-0.2,1.3-0.4,2.6-0.7,4.2c0,0,0,0,0,0c0.3-1.6,0.5-2.9,0.7-4.2c-0.9-0.1-1.7-0.1-2.7-0.2c-0.1,1.3-0.2,2.4-0.3,3.5
		c0.6,0.3,1.3,0.5,2,0.8c-0.8-0.3-1.4-0.6-2-0.8c-0.6-0.1-1.1-0.2-1.7-0.3c-1.1-1.5-2.2-3-3.3-4.5c-0.4-0.5-0.5-1-0.3-1.6
		c0.3-1,0.6-2.1,0.9-3.2c0.1-0.9,0.3-1.9,0.5-2.9c-1.5-0.5-3-0.9-4.5-1.3l-7.2-1.8l-1.2,4.8c-0.3,1.6-0.7,3.1-1,4.7c0,0,0,0,0,0
		c0.3-1.6,0.7-3.1,1-4.7c-1.1-1.7-2.2-3.4-3.3-5.2c-0.4-0.6-0.7-1.2-1.1-1.8c-2.2,1.3-4.2,2.5-6.3,3.8c-0.1-0.1-0.3-0.2-0.4-0.3
		c-0.9-1.9-1.8-3.8-2.7-5.7c-0.6-1.3-1.3-2.5-2-3.9c-2.4,1.2-4.6,2.2-6.9,3.3c0.5,1.6,1.1,3.2,1.6,4.8c0.4,1.1,0.8,2.1,1.3,3.3
		c0,0,0,0,0,0c-0.5-1.2-0.9-2.2-1.3-3.3C9.6,88.6,9,87,8.5,85.4l0,0c-0.1-0.2-0.3-0.3-0.4-0.5c-0.6-1.6-1.2-3.2-1.8-4.7
		c-0.4-0.9-0.8-1.9-1.2-2.9c-2.6,0.9-4.9,1.8-7.3,2.7c0.4,1.5,0.8,2.9,1.2,4.4c0.4,1.4,0.8,2.8,1.2,4.1c0.1,0.4,0.1,0.8,0.2,1.2
		c-2.4,0.7-4.8,1.3-7.1,2c-0.4,0.1-0.8,0.3-1.2,0.5c1,2.5,2,5,3,7.6c2.1-0.8,4.2-1.6,6.3-2.4c0.3-0.1,0.6-0.2,0.9-0.2c0,0,0,0,0,0
		c1.1,2.3,2.2,4.6,3.4,7c0.4,0.8,0.7,1.6,1.2,2.5c-0.4,0.2-0.7,0.5-1,0.7c-0.3-0.6-0.5-1.1-0.7-1.6c-1.8,0.5-3.6,1-5.4,1.5
		c-0.5,0.1-1.1,0.2-1.7,0.3c-0.9-2.5-1.9-5-2.9-7.6c-2.4,0.9-4.6,1.8-6.8,2.6c-0.4,0.1-0.8,0.2-1.2,0.3c0,0.3-0.1,0.5-0.1,0.8
		c-0.9,0.2-1.7,0.4-2.7,0.6c0.2,2.4,0.4,4.8,0.6,7.4c-1.8,0.1-3.4,0.1-5.2,0.2c0,1.1-0.1,2.1-0.1,3.2l20.3,5
		c-0.1,0.7-0.2,1.2-0.2,1.8c1.2,0.8,2.3,1.6,3.5,2.5c-1.9,2.7-3.5,5.6-5.7,8.1c0,0,0,0,0,0c2.2-2.6,3.7-5.4,5.7-8.1
		c-1.2-0.9-2.4-1.6-3.5-2.5c0.1-0.6,0.1-1.1,0.2-1.8l-20.3-5c0-1.1,0.1-2.1,0.1-3.2c1.8-0.1,3.4-0.1,5.2-0.2c-0.2-2.6-0.4-5-0.6-7.4
		c1-0.2,1.8-0.4,2.7-0.6c0.1-0.3,0.1-0.5,0.1-0.8c-0.6-2-1.2-4-1.8-6c-0.2-0.8-0.4-1.5-0.7-2.5c-1,0.3-2,0.5-3.1,0.8
		c-1.6,0.4-3.2,0.9-4.8,1.3c0.1,0.7,0.2,1.4,0.2,2c0.1,0.6,0.1,1.1,0.2,1.8c-0.8,0.2-1.5,0.3-2.3,0.5c0,3.3,0.1,6.5,0.1,9.9
		c-1.3-0.1-2.5-0.2-3.5-0.2c-0.2,1.9-0.5,3.7-0.7,5.6c0,0,0,0,0,0c0.2-2,0.5-3.8,0.7-5.6c1,0.1,2.2,0.1,3.5,0.2
		c0-3.5-0.1-6.7-0.1-9.9c0.8-0.2,1.5-0.3,2.3-0.5c-0.1-0.7-0.1-1.2-0.2-1.8c-0.1-0.7-0.2-1.4-0.2-2l0,0c-0.3-1-0.6-2-0.9-3
		c-0.3-1.1-0.4-2.1-0.7-3.2c-0.2-0.1-0.3-0.2-0.4-0.2c-2.5-0.2-4.8,0.5-7,1.4c0,0,0,0.1-0.1,0.1c0.2,2,0.4,4.1,0.6,6.2
		c-0.4,0.1-0.7,0.2-1.2,0.3c-0.3,3.9-0.6,7.7-0.9,11.8c-2.5-0.3-4.9-0.7-7.4-1c0.2-1.3,0.3-2.4,0.5-3.4c0.4-2.8,1-5.5,1.2-8.3
		c0.2-2.1,0-4.3-0.1-6.4c0-2.1-0.1-4.3-0.1-6.5c1.4-0.3,2.6-0.4,3.9-0.2c0.9-0.1,1.8-0.1,2.6-0.2c2.5-0.1,5-0.3,7.6-0.4
		c0-0.3,0.1-0.5,0.1-0.8c-0.1-3.6-0.2-7.2-0.2-10.8c0-0.5,0.1-1,0.2-1.5c-0.2-0.4-0.3-0.7-0.5-1.1c-1.7,0.1-3.5,0.3-5.2,0.4
		c0,1.6,0,3.1-0.1,4.7c-0.2,2.8-0.4,5.6-0.6,8.4c0,0.1-0.1,0.2-0.2,0.6c-1.6-0.1-3.2-0.2-5.1-0.4c0.5-4,1.1-7.8,1.7-11.9
		c-3.1-0.6-6.2-1.2-9.3-1.8c-1.1,0-2.2-0.1-3.5-0.1l-0.3,1.2c0.9,0.3,1.7,0.5,2.6,0.8c1.9,0.5,3.8,0.9,5.8,1.4
		c0.4,0.1,0.7,0.2,1.2,0.4l-2.8,11.6l-2.7-0.7c0.9-2.9,1.8-5.7,2.7-8.7c-2.2-0.7-4.2-1.4-6.2-2.1c-1.2-0.4-2.3-0.8-3.5-1.2
		c-0.4,0-0.8-0.1-1.2-0.1c-0.3,0.7-0.6,1.2-0.8,1.8c0,0,0,0,0,0c-0.3,0-0.5,0-0.8,0c-0.1,1-0.9,0.4-1.4,0.7c-0.4,1-0.9,2.1-1.4,3.4
		c2.4,1.3,4.7,2.6,7.3,4c-1,1.8-1.9,3.6-2.8,5.3c1.6,1,1.6,1,1.2,2.8c-0.3,1.5-0.5,3-0.8,4.6c-1.4-0.2-2.8-0.5-4.4-0.7l0.8-3.2
		c-0.6-0.5-1-0.8-1.6-1.3c0.8-1.3,1.6-2.5,2.6-3.9c-2.2-1.5-4.2-2.9-6.5-4.4c0.5-0.9,0.9-1.9,1.5-2.7c1-1.4,1.3-3,1.3-4.7
		c0-1.2,0.2-2.4,0.3-3.7c0-0.6-0.1-1.2-0.1-2c-0.9,0-1.8,0-2.6-0.1c-0.2,1.3-0.5,2.5-0.7,3.8c-0.4,2.3-0.7,4.7-1.1,7
		c0,0.2-0.1,0.3-0.2,0.6l-2.5-0.6c0.1-0.5,0.2-0.9,0.3-1.4c0.7-3,1.5-6,2.2-9c0.1-0.5,0.2-1,0.2-1.4c-2.3-0.5-4.6-1.1-6.9-1.6
		c-1.6-0.4-3.1-0.8-4.7-1.2c1.9,0.7,3.8,1.4,5.8,2.1c1.6,0.6,3.1,1.1,4.8,1.6c-1.2,3.6-2.4,7.1-3.6,10.6c1.3,0.7,2.4,1.3,3.7,2
		c-0.3,0.4-0.5,0.8-0.8,1.4c-1.1-0.5-2.2-0.9-3.3-1.3c0-0.5,0-0.9,0-1.3l-1.7-0.4c0.3-1.8,1.3-3.1,1.9-4.6c0.6-1.6,1.3-3.1,2-4.7
		c-1.6-0.7-3.2-1.4-4.8-2.1c-1.5-0.6-2.9-1.3-4.3-1.9c-0.2-0.1-0.3-0.3-0.5-0.4c-0.2,0.2-0.6,0.3-0.7,0.6c-0.2,0.4-0.3,0.8-0.5,1.2
		c1.2,0.8,2.4,1.5,3.6,2.3c1.4,0.8,2.9,1.6,4.5,2.5c-0.6,1.2-1.1,2.4-1.7,3.6c-0.7,1.3-1.5,2.5-2.2,3.8c-0.2,0.4-0.3,1-0.5,1.5
		l1.8,0.4c0,0.4,0,0.7,0.1,1.2c1.4,0.8,2.9,1.6,4.5,2.5c-0.8,1.2-1.5,2.3-2.3,3.4c-0.9-0.5-1.6-1-2.4-1.5c-1.2-0.9-2.5-1.8-3.7-2.7
		c-0.7-0.3-1.5-0.7-2.3-1c-1,1.4-2,2.9-3,4.3c-1.6-0.6-3-1.2-4.4-1.8c-0.2,0.3-0.3,0.6-0.5,0.8c0.7,0.5,1.4,0.9,2.1,1.3
		c0.5,0.3,1.1,0.6,1.8,1c-0.4,0.8-0.8,1.5-1.3,2.4c-2.2-1.2-4.2-2.6-6.1-4c-0.8-0.4-1.6-0.9-2.4-1.4c-1.9,2.8-3.7,5.5-5.5,8.3
		c2.8,1.9,5.5,3.6,8.3,5.5c0.5-0.7,0.9-1.2,1.4-1.8c1.3-2.2,2.7-4.2,4.3-6.4c1,0.7,1.8,1.2,2.7,1.8c-0.8,1.4-1.4,2.6-2.1,3.8
		c-0.5,0.8-0.9,1.7-1.4,2.5c0,0.2,0,0.5,0,0.8l4.3,1.1c-0.2,1.3-0.4,2.5-0.5,4c2.5,1.7,5.2,3.5,8,5.3c-1.8,2.7-3.6,5.4-5.4,8.1
		c2.8,1.9,5.5,3.7,8.2,5.6c-1.2,1.8-2.4,3.5-3.5,5.2c-0.6,1-1.3,2-1.9,3.1c2.1,1.4,4.1,2.8,6.3,4.3c-2.3,4.3-4.6,8.5-7,12.7
		c0.3,0.4,0.5,0.7,0.7,1c-0.8,1.2-1.6,2.3-2.3,3.4c-0.3,0.4-0.5,0.6-0.9,0.3c-0.8-0.5-1.6-0.9-2.4-1.4c-1.8-1.2-3.6-2.4-5.4-3.6
		c-1.9,2.7-3.8,5.4-5.7,8.2c-2.8-1.8-5.4-3.6-8.2-5.4c-1.8,2.7-3.6,5.2-5.3,7.7l-0.2,0.1c-1.1-0.7-2.3-1.5-3.4-2.2
		c-1.6-1-3.1-2.1-4.7-3.1c-0.5,0.6-1,1.2-1.5,1.7c-0.4,0.5-0.9,1.1-1.3,1.7c-0.8,1.3-1.5,2.6-2.3,3.8c-0.2,0.3-0.4,0.5-0.8,0.9
		c-2.7-1.8-5.4-3.6-8.1-5.4c1.5-2.3,3-4.6,4.5-6.8c0.1-0.2,0.4-0.3,0.6-0.5c0.1-0.3,0.3-0.7,0.4-1.1c-2.8-1.9-5.5-3.6-8.3-5.5
		c-1.9,2.8-3.7,5.5-5.6,8.3c2.8,1.9,5.5,3.7,8.3,5.6c-1.9,2.8-3.5,5.6-5.5,8.1c-2.8-1.8-5.4-3.6-8.2-5.4c-1.9,2.9-3.7,5.6-5.6,8.4
		c2.9,1.8,5.5,3.8,8.3,5.5c2.1-2.7,3.6-5.6,5.7-8.1c2.8,1.8,5.5,3.6,8.2,5.4c1.4-2,2.7-3.9,4-5.9c0.1,0.3,0.2,0.5,0.3,0.7
		c0.3-0.7,0.6-1.4,1-2.3c3.1,1.7,6.1,3.4,9.1,5c1.6-3,3.2-5.7,4.8-8.6c2.9,1.9,5.6,3.7,8.4,5.5c1.8-2.6,3.6-5.3,5.4-7.9
		c2.8,1.9,5.5,3.6,8.2,5.5c-1.4,2-2.6,3.9-3.9,6c-2.9-1.4-5.7-2.7-8.6-4.1c-0.8,1.7-1.6,3.4-2.4,5c-0.3,0.7-0.5,1.4-1.2,2
		c-0.5,0.4-0.6,1.3-0.9,2c-0.1,0.3-0.2,0.6-0.4,1c-3.3-1.4-6.5-2.8-9.8-4.2c-0.7,1.3-1.3,2.5-1.9,3.6c-0.5,1.4-1.1,2.8-1.6,4.2
		c2.6,1.5,5.2,2.9,7.9,4.4l-0.4,1.6c0.5,0.2,1,0.3,1.3,0.5c0.9-0.4,0.4-1.8,1.7-1.7c0.6-1.7,1.2-3.4,1.9-5.3
		c3.4,1.2,6.6,2.3,10.1,3.4c0.2-0.7,0.4-1.2,0.6-1.8c1-0.4,1.1-1.4,1.5-2.3c0.7-1.6,1.4-3.1,2.1-4.7c0-0.1,0.2-0.2,0.4-0.4
		c3.2,2.1,6.4,4.3,9.6,6.4c-1.1,3.4-2.2,6.7-3.4,10.1l-11.4-2.8c-0.5,1.7-1,3.2-1.4,4.7c-0.2,0.5-0.4,1.1-0.6,1.6c0,0.2,0,0.4,0,0.6
		c3.5,1.2,7,2.4,10.7,3.7c-0.4,1.4-0.8,2.6-1.2,3.8l1.1,0.3c1-3.8,2-7.5,3-11.2c0,0,0.1,0,0.1,0c-0.1,1.7-0.1,3.3-0.2,5
		c3.3,0.5,6.6,1,9.8,1.5c0.8,0.1,1.5,0.3,2.3,0.5c0.4-2.1,0.7-4.2,1.1-6.2c-0.2-0.4-0.4-0.8-0.4-0.8c0.5-2.1,0.9-3.9,1.4-5.7
		c0.2-0.9,0.4-1.7,0.6-2.6c-1.2-0.7-2.4-1.5-3.6-2.2c1-1.5,2-3,3-4.6c2.8,1.8,5.4,3.6,8.3,5.4c1-1.5,2-2.9,3-4.4l1.3,0.3
		c0.7-1.1,1.4-2.2,2.2-3.5c2.4,1.6,4.7,3.2,7.2,4.8c0.3-0.3,0.5-0.6,0.8-1c0.9-1.2,1.8-2.4,2.7-3.6c0.2-0.3,0.6-0.5,0.9-0.8
		c0.1,0.1,0.2,0.2,0.3,0.2c-0.2,0.6-0.5,1.2-0.7,2c0.2,0.3,0.5,0.6,0.7,1c-0.3,0.7-0.7,1.5-1,2.3c-0.5-0.1-1-0.1-1.5-0.2
		c-0.7,1.2-1.4,2.5-2.1,3.7c-3.4-0.9-6-3.3-9.3-4.6c-0.8,1.5-1.7,3-2.5,4.7c-0.6-0.2-1.1-0.4-1.8-0.7c-0.6,0.9-1.3,1.9-2,2.9
		c-0.3,0.4-0.6,0.8-1,1.2c-0.1,0.2-0.2,0.3-0.4,0.5c-0.6,1.1-1.3,2.2-2,3.3c1,0.7,2,1.4,3,2.1c1.6,1.1,3.3,2.3,4.9,3.5
		c0.2-0.2,0.6-0.4,0.7-0.7c1.4-2.1,2.9-4.3,4.3-6.4c0.1-0.2,0.3-0.2,0.5-0.4c0.2-0.5,0.5-0.5,1-0.2c0.5,0.2,1,0.4,1.6,0.6
		c0.9-1.7,1.8-3.4,2.8-5.1c0.7,0.2,1.2,0.4,1.9,0.6c0.6-1.4,1.2-2.8,1.9-4.3c3.2,1.4,6.4,2.8,9.6,4.2c-0.4,2.5-1.7,4.6-2.7,6.9
		l-2.6-0.6c-0.6,1.3-1.2,2.5-1.8,3.7c1.1,0.1,2.3,0.1,3.4,0.4c2.5,0.7,4.8,1.7,7.1,3c0.8,0.5,1.8,0.7,2.7,1.1c0.6-1.1,1.1-2,1.6-2.9
		c0,1.1,0,2.2,0,3.4c-0.5-0.1-0.9-0.2-1.5-0.2c-0.3,0.5-0.6,1-0.9,1.5c-0.6,1.4-1.2,2.7-1.7,4.1c-0.6,1.4-1.2,2.7-1.8,4.3
		c1.9,0.8,3.7,1.6,5.6,2.4c0.7-1.2,1.3-2.3,2-3.6c3.1,1.7,6.1,3.3,9.2,5c-1.7,3.1-3.4,6.1-5,9.1c-1.5-0.7-3-1.4-4.4-2.1
		c-0.2,0.4-0.5,0.8-0.7,1.1c-0.3,0.8-0.6,1.6-0.9,2.5c-1.3-0.3-2.5-0.7-3.4-1.6c-0.6-0.2-1.3-0.4-1.9-0.6c-0.4,0.7-0.9,1.4-1.3,2.1
		c-0.5,0.9-1,1.8-1.6,2.8c-1.8-0.9-3.4-1.8-5.1-2.8c-0.4,0.9-0.3,1.7,0.2,2.5c-0.5,1.2-1,2.4-1.4,3.6l1.1,0.5
		c0.9,0.3,1.8,0.6,2.7,0.9c0.9-1.6,1.7-3,2.6-4.6c1.2,0.6,2.4,1.1,3.5,1.9c1.2,0.9,2.5,1.1,4,1c0.4,0,0.8,0,1.4,0
		c0.1,0.9,0.1,1.7,0.2,2.6c0.1,2.4,0.2,4.9,0.3,7.3c1.8-0.1,3.6-0.6,5.4-0.4c0.2,1.7,0.4,3.3,0.6,4.9c0.3,2.7,0.5,5.5,0.8,8.2l0,0
		c0.1,0.5,0.2,0.9,0.4,1.6c1.9-0.2,3.9-0.4,5.8-0.6c3-0.4,6-0.7,9-1.1c-0.1-1-0.1-1.9-0.2-2.8c0,0,0,0,0,0c2-0.4,4-0.8,6-1.3
		c0.2,0.3,0.3,0.5,0.4,0.8c0.6,3,1.2,6.1,1.8,9.1c0.4,1.8,0.8,3.7,1.2,5.5c1.1-0.2,2.3-0.5,3.4-0.6c0.1,0,0.2,0,0.3,0
		c-0.1,0-0.2,0-0.3,0c-1.2,0.2-2.3,0.4-3.4,0.6h0c-3.4,1-6.7,2-10.1,3c1.6,5.4,3.1,10.6,4.7,16c5.4-1.6,10.7-3.1,16-4.6
		c-1.5-5.2-3-10.2-4.5-15.2c1.5-1.1,3.3-1.1,4.4-0.1c2.5-1,5-2,7.5-2.9c1.4-0.5,2.8-0.9,4.2-1.3c1.4,4.9,2.9,9.9,4.3,14.8
		c0.4-0.1,0.6-0.2,0.8-0.2c1.8-0.5,3.5-0.9,5.3-1.4c2.6-0.9,5.2-1.7,7.7-2.6c0.6-0.2,1.1-0.4,1.8-0.6c-0.9-5.4-2.8-10.5-4.2-15.6
		c-0.1,0-0.2,0-0.3-0.1c0.1,0,0.2,0,0.4,0.1c1.4,5.2,3.3,10.2,4.2,15.6c-0.7,0.2-1.2,0.4-1.8,0.6c-2.6,0.9-5.2,1.7-7.7,2.6
		c0,0.3,0,0.7,0.1,1.1c-5.3,2.1-10.6,4.1-16.1,6.2c2,5.7,4.2,11,6.3,16.4c5.4-2.1,10.8-4.2,16.2-6.2c-0.1-0.4-0.1-0.6-0.1-0.8
		c-0.6-1.6-1.2-3.3-1.8-4.9c-1.1-2.9-2.3-5.8-3.4-8.8c-0.2-0.6-1-1.3-0.4-2.2c0.9-0.2,1.8-0.5,2.8-0.8c0.6,1.1,1.1,2.1,1.7,3.2
		c0.4-0.1,0.6-0.1,0.8-0.2c3.4-1.7,6.8-3.4,10.3-5c0.4-0.2,0.8-0.4,1.1-0.6c-0.2-0.9-0.4-1.7-0.7-2.7c0.3-0.1,0.6-0.3,0.9-0.4
		c1-0.5,2-0.9,3.1-1.3h0c-2.3-4.7-4.7-9.4-7.1-14.3c-0.9,0.4-1.7,0.7-2.5,1.1c-0.3-0.4-0.6-0.7-1.1-1.2c-0.2,0-0.5,0.1-0.8,0.2
		c-1.5,0.5-2.9,1.1-4.4,1.7c-0.3,0.1-0.5,0.4-0.8,0.6c0,0,0,0,0,0v0l0,0c-0.2,0.1-0.5,0.2-0.7,0.3c-0.2,0-0.5,0.1-0.7,0.1
		c-3.1,0.9-6.1,1.8-9.2,2.7c-0.8-2-1.5-4.1-2.3-6.1c-0.5-1.3-1-2.5-1.4-3.8c-0.2-0.4-0.1-0.9-0.2-1.4c0,0,0,0,0,0
		c0.6,0.1,1.2,0.2,2,0.3l1.5-6.2c1.7-0.5,3.2-0.9,4.9-1.4c-0.1,1.2-0.1,2.2-0.2,3.3c1.2,0.1,2.4,0.2,3.6,0.4c0,0.6-0.5,1.3,0.1,1.8
		c1.8,0.3,3.4,0.6,5.1,0.8c0.9,0.1,1.3,0.6,1.6,1.4c0.6,1.6,1.2,3.1,1.9,4.8c5.5-1.7,10.8-3.9,16.2-6c0-0.3,0.1-0.6,0.1-0.9l0,0
		c1.3,0,2.5,0,4,0.1c2.6,5.2,5.2,10.4,7.9,15.8c-1.6,0.8-3.2,1.5-4.7,2.3c0,0.3,0,0.7,0.1,1c-0.1-0.3-0.1-0.7-0.1-1h0
		c-0.3-0.3-0.6-0.5-0.9-0.8c-0.3,0.1-0.6,0.1-0.8,0.2c-2.7,1.1-5.4,2.2-8.1,3.3c-1,0.4-2.1,0.7-3.1,1c-1,0.4-2,0.9-3.1,1.3
		c-0.3,0.1-0.6,0.3-0.9,0.4c0.2,1,0.5,1.8,0.7,2.7c0.5,1.2,1.1,2.4,1.6,3.6c0.7,1.8,1.4,3.6,2.1,5.4c0.6,1.5,1.2,3.1,1.8,4.6
		c2-0.7,3.9-1.3,5.8-1.9c0.4-0.2,0.7-0.5,1.1-0.7c2.7-1.1,5.5-2.1,8.2-3.2c0.4-0.2,0.8-0.4,1.3-0.6c0,0,0,0,0,0
		c-0.5,0.3-0.9,0.5-1.3,0.6c-2.7,1.1-5.5,2.1-8.2,3.2c-0.4,0.2-0.7,0.4-1.1,0.7c0.4,0.9,0.7,1.8,1.1,2.8c-5.5,2.7-10.9,5.4-16.4,8.1
		c2.7,5.6,5.4,11,8.2,16.6c5.5-2.7,11-5.4,16.6-8.2c-2.7-5.6-5.4-11-8.1-16.6c0.9-0.4,1.7-0.7,2.5-1c1,1.6,2.1,3.2,3.1,4.9
		c0.4-0.2,0.8-0.4,1.1-0.6c2.3-1.4,4.6-2.8,6.9-4.2c1.7-1,3.4-1.9,5-2.9c-0.7-1.4-1.4-2.7-2.2-4.2c0,0,0,0,0,0
		c0.8,1.5,1.5,2.8,2.2,4.2c2,4,4,8.1,6,12.1c0.5-0.2,0.8-0.3,1.1-0.5c1.2-0.6,2.5-1.1,3.7-1.7c0.9,1.4,1.8,2.8,2.7,4.1
		c0.6-0.1,1.1-0.2,1.6-0.3c1.5,2.1,3.1,4.1,4.6,6.3c4.7-3.4,9.2-6.8,13.8-10.1c-0.1-0.3-0.2-0.6-0.4-0.9c-0.9-1.6-1.9-3.2-2.8-4.8
		c0.7-0.6,1.4-1.1,2-1.6h0c-2.7-3.7-5.4-7.4-8.3-11.4c-0.3,0.3-0.6,0.6-0.9,0.9c-1.2-1.3-2-2.9-2.8-4.5c0.3-0.3,0.5-0.5,0.7-0.6
		c2.8-1.7,5.5-3.4,8.3-5c0.4-0.2,0.8-0.3,1.2-0.5c0.3-0.3,0.5-0.6,0.9-0.8c1.6-1,3.3-2,5-3c0.1-0.1,0.2-0.2,0.3-0.4
		c-0.3-0.6-0.6-1.2-1-1.9c0,0,0,0,0,0c0.4,0.7,0.7,1.3,1,1.9c-0.1,0.2-0.2,0.3-0.3,0.4c-1.7,1-3.3,2-5,3c-0.3,0.2-0.6,0.5-0.9,0.8
		c1.5,0.7,3,1.4,4.6,2.1c1-2.4,2-4.6,3-6.8c0.6,0.3,1.3,0.6,2,0.9c-2.2,6.6-4.4,13.1-6.7,19.8c1.6,0.6,3.1,1.1,4.7,1.7
		c-0.6,0.8-4.3,3.1-5.7,3.6c-0.6,0.5-1.3,1-2,1.6c0.9,1.6,1.8,3.2,2.8,4.8c0.2,0.3,0.3,0.6,0.4,0.9c0.1,0.1,0.3,0.1,0.3,0.2
		c1,1.7,2,3.3,3,5c0.7,1.2,1.4,2.4,2.1,3.6c0.4,0.7,0.8,1.3,1.3,2c1.1-0.6,2-1.1,2.9-1.7c0.7,0.6,1.3,1.1,1.9,1.6
		c-0.3-0.7-0.6-1.5-1.1-2.5c4.3-2.5,8.5-5,12.8-7.5c-2.5-4.1-4.9-8.1-7.4-12.3c1.1-0.9,2.1-1.7,3.2-2.5c-4-5.5-8-11-12.1-16.5
		c5.7-4,10.9-8.2,16.6-12c0,0,0,0,0,0c-5.6,3.8-10.9,8-16.6,12c4,5.5,8,11,12.1,16.5c-1.1,0.9-2.1,1.7-3.2,2.5
		c2.5,4.2,5,8.2,7.4,12.3c-4.3,2.5-8.6,5-12.8,7.5c0.5,1.1,0.8,1.8,1.1,2.5c1.1,1.2,2.2,2.4,3,3.9c-5.5,4-10.9,8-16.3,12
		c4.1,5.6,8.1,11,12.1,16.5c5.6-4.1,11-8.1,16.5-12.1c-0.8-1.1-1.4-2-2.1-2.9c-2.6-3.6-5.3-7.3-7.9-10.9c0.5,0.4,1,0.8,1.5,1.3
		c1,1.1,2,2.3,3.2,3.6c0.2-0.2,0.5-0.4,0.7-0.6c1.4-1.2,2.8-2.4,4.2-3.6c1.1-0.9,2.2-1.7,3.3-2.6c1.4-1.3,2.9-2.6,4.3-3.9
		c0.8-0.7,1.5-1.4,2.3-2.1c-1.7-2.3-3.3-4.4-4.9-6.7c0,0,0,0,0,0c1.7,2.3,3.2,4.4,4.9,6.7c-0.8,0.7-1.5,1.4-2.3,2.1
		c-1.4,1.3-2.9,2.6-4.3,3.9c3.9,1,7.8,2,11.8,2.9c1.1,0.3,2,0.8,2.8,1.6c2,1.9,4,3.8,6,5.7c0,0,0,0,0,0h0c-0.5,0.5-0.9,0.9-1.4,1.4
		c-2.7,2.4-5.5,4.9-8.2,7.3c-1.3,1.2-2.6,2.3-3.9,3.5c-0.3,0.2-0.4,0.5-0.8,0.9c4.6,5.4,9.3,10.7,14.1,16.1
		c5.4-4.8,10.8-9.4,16.2-14.2c-1.6-1.8-3.2-3.6-4.8-5.4c-0.5-0.6-1.2-1.1-1.2-2c0,0,0,0,0,0c1.3-1.3,2.5-2.7,3.8-4
		c1.4-1.5,2.9-3,4.4-4.5c2.1-2.2,4.2-4.4,6.4-6.6c0.4,0.3,0.9,0.6,1.2,1c1.9,2.1,3.7,4.1,5.5,6.3c0.6,0.7,1.1,0.8,1.9,0.6
		c0,0,0,0,0,0c0.1,0.1,0.2,0.3,0.3,0.4c-1,1.3-2,2.6-3.1,4.1c1.3,1,2.5,2.1,3.7,3.1c1.3,1.1,2.6,2.1,3.8,3.2
		c1.1-1.1,2.1-2.1,3.2-3.2c0,0,0,0,0,0c-1.1,1.1-2.2,2.2-3.2,3.2c-4.1,4.3-8.3,8.7-12.5,13.1c5.5,5.2,10.9,10.4,16.4,15.7
		c5.2-5.5,10.4-10.9,15.7-16.4c-0.8-0.8-1.4-1.5-2.2-2.1c-1.4-1.4-2.9-2.8-4.3-4.2c1.6-2,3.2-4,4.8-6c0.6-0.8,1.3-1.5,1.9-2.3
		c0,0,0,0,0,0l6.8,1.7l1.8-7.2c2.4,1.9,4.8,3.7,7.2,5.6c0.3,0.2,0.4,0.5,0.7,0.8c0,0,0,0,0,0c-1.4,2.2-2.8,4.3-4.3,6.6
		c0.7,0.5,1.2,0.9,1.9,1.4c2,1.3,3.9,2.7,5.9,4c1.2-0.5,1.6-1.8,2.5-2.7c0.8-0.8,1.5-1.7,2.3-2.7c0,0,0,0,0,0
		c-0.8,1-1.5,1.9-2.3,2.7c-0.8,0.9-1.3,2.1-2.5,2.7v0c-0.2,0.4-0.4,0.9-0.7,1.3c-0.7,0.9-1.4,1.7-2.1,2.5c-1.7,2.1-3.5,4.2-5.1,6.3
		c-0.7,0.9-1.4,2-2.2,3c6.2,5,12.3,9.9,18.5,14.9c5-6.2,10-12.4,15-18.6c-1.4-1.1-2.8-2.2-4-3.3c-1-0.8-1.9-1.8-2.9-2.6c0,0,0,0,0,0
		c0.1-0.2,0.3-0.3,0.4-0.5c2.8-4.2,5.5-8.3,8.3-12.5c0.6-0.9,1.2-1.7,1.8-2.6c4,2.7,7.9,5.3,11.8,7.9c0,0,0,0,0,0
		c-1.8,3.2-3.5,6.5-5.3,9.7c0.2,0.2,0.3,0.3,0.4,0.3c2.7,1.5,5.3,3,8,4.5c0,0,0,0,0,0c-1.1,1.7-2.2,3.4-3.3,5.1
		c-1.6,2.4-3.2,4.7-4.8,7.2c7,4.7,13.9,9.3,20.9,14c4.8-7,9.4-13.9,14-20.9c-2.7-1.8-5.2-3.5-7.7-5.2h0c0,0,0,0,0,0c0,0,0,0,0,0
		c0,0,0,0,0,0c-2.4-1.6-4.8-3.2-7.2-4.8c-0.7-0.5-1.5-1-2.2-1.5c0.7,0.5,1.5,1,2.2,1.5c2.4,1.6,4.8,3.2,7.2,4.8
		c0.6-1,1.1-2.1,1.7-3.1c1.7-3.1,3.4-6.2,5.1-9.3c0.5-0.9,0.9-1.9,1.3-2.8c-0.4-0.3-0.6-0.5-0.9-0.6c-2.1-1.2-4.2-2.5-6.4-3.6
		c-1.6-0.9-3.3-1.6-4.9-2.4c-0.9,1.1-1.8,2.2-2.6,3.4c-2,3-4,6-6,9c-0.2,0.2-0.2,0.5-0.3,0.9c0,0,0,0,0,0c0.1-0.3,0.2-0.6,0.3-0.9
		c2-3,4-6,6-9c0.8-1.2,1.7-2.3,2.6-3.4c0.1-0.4,0.2-0.8,0.5-1.1c1.4-2.1,2.9-4.3,4.4-6.5c0.4,0.2,0.7,0.3,1,0.5
		c1.8,1.2,3.5,2.3,5.2,3.5c1.7,1.1,3.3,2.3,5,3.4v0c0,0,0,0,0,0l0,0c0,0,0,0,0,0c0,0,0,0,0,0c0.5,0.3,1,0.6,1.5,1
		c-0.5-0.3-1-0.6-1.5-1c-0.9,1.7-1.9,3.5-2.8,5.2c-0.3,0.5-0.4,1.1-0.6,1.5c1.1,0.7,1.9,1.3,2.8,1.8c2.6,1.4,5.2,2.8,7.8,4.2
		c0.7,0.4,1.3,0.9,1.9,1.3c0.4,0.1,0.8,0.2,1.1,0.3c0,0,0,0,0,0c-0.3-0.2-0.7-0.2-1.1-0.3v0c-2,4.4-3.9,8.8-5.9,13.2
		c0.8,0.4,1.5,0.7,2.2,1c2.4,1.1,4.8,2.1,7.2,3.2c0,0,0,0,0,0c-0.5,2.1-1.9,3.8-2.8,5.6c-1,1.9-2,3.7-3,5.6
		c7.8,4.3,15.5,8.5,23.2,12.7c4.3-7.8,8.5-15.5,12.7-23.2c-2.7-1.5-5.2-2.8-7.7-4.2c-0.4-0.2-0.9-0.6-1.3-0.9
		c-0.2-0.1-0.5-0.2-0.7-0.3c-3.8-2-7.6-4.1-11.3-6.2c-0.7-0.4-1.3-0.8-2-1.2c0.2-0.4,0.3-0.8,0.5-1.1c0.8-1.5,1.6-3,2.4-4.4
		c1.3-2.3,2.6-4.6,3.9-6.9c0.6-1.2,1.3-2.5,1.9-3.7c1-2,2.1-3.9,3.2-5.9c0.2-0.4,0.5-0.6,0.8-1c0.8,0.3,1.5,0.6,2.1,0.9
		c3.2,1.8,6.4,3.5,9.6,5.3c0.1,0.1,0.2,0.2,0.2,0.3c0,0,0,0,0,0c-1.4,3.2-2.9,6.5-4.4,10c-4.5-2-9-4-13.5-6
		c-1.3,2.3-2.6,4.6-3.9,6.9c-0.8,1.5-1.6,2.9-2.4,4.4c-0.2,0.3-0.3,0.7-0.5,1.1c0.7,0.4,1.3,0.9,2,1.2c3.8,2.1,7.6,4.1,11.3,6.2
		c0.2,0.1,0.5,0.2,0.7,0.3c2.1-4.6,4.1-9.3,6.2-14c3.8,1.7,7.5,3.3,11.1,4.9c0.6,0.3,1.2,0.6,1.9,1l0,0c0,0,0,0,0,0
		c-0.7,2.2-1.3,4.5-2,6.7c-0.7,2-1.5,3.9-2.1,5.9c-0.5,1.6-1,3.2-1.5,4.8c1,0.4,2,0.7,3,1c0.7,0.2,1.4,0.4,2.1,0.6
		c1.9,0.7,3.9,1.4,5.8,2.1c0,0,0,0,0,0c-1.3,3.2-2.7,6.4-4,9.6c8.5,3.8,16.9,7.5,25.3,11.2c1.2-2,11.1-24.5,11.1-25.6
		c-0.9-0.4-1.7-0.8-2.6-1.1c-2.6-1.2-5.2-2.4-7.8-3.5c-1.7-0.7-3.4-1.4-5.1-2.2c-2.4-1-4.8-2-7.1-3.1c-0.8-0.3-1.5-0.7-2.4-1.2
		c1.4-3.7,3-7.3,4.7-10.8c0.6-1.5,1.2-2.9,1.8-4.4c1.4-3.3,2.9-6.7,4.4-10.2c0.8,0.3,1.5,0.6,2.2,0.9c3.2,1.4,6.4,2.8,9.6,4.2
		c0.2,0.1,0.4,0.2,0.5,0.4c1.8,0.8,3.7,1.5,5.5,2.3c2.5,1.1,4.9,2.2,7.5,3.3c0.2-0.3,0.6-0.6,0.7-0.9c1.6-3.7,3.2-7.3,4.8-11
		c0.4-0.9,0.9-1.8,1.3-2.7c1-2.3,2-4.7,3-7c0.3-0.8,0.6-1.5,1-2.3c0.2,0,0.4-0.1,0.6-0.1c4,1,7.9,1.9,11.9,2.9
		c0.6-1.6,1.3-3.2,1.9-4.8c1.3-3.8,2.6-7.6,3.9-11.4c0.1-0.2,0.2-0.3,0.2-0.5c0.8,0.2,1.6,0.4,2.3,0.6c1.7,0.5,3.4,1.1,5.2,1.6
		c0.3,0.1,0.5,0.3,0.8,0.5c0.4,0,0.8,0.1,1.3,0.1l3.3-13.3l-29.9-7.3l-6.7,27.5c-3.2-1.5-6.2-2.9-9.3-4.3c-2.8-1.2-5.6-2.4-8.3-3.6
		c-0.6-0.3-1.2-0.5-2-0.8c-0.9,2-1.7,3.9-2.5,5.7c-1.1,2.4-2.2,4.8-3.3,7.1c0,0.1,0,0.2,0,0.3c-1.7,3.9-3.4,7.8-5.1,11.7
		c-0.1,0.2-0.3,0.3-0.4,0.5c-4.1-1.8-8.2-3.7-12.3-5.5c-1.3,2.4-2.6,4.8-4,7.2c-1.2,2.2-2.5,4.4-3.7,6.6c-0.3,0.6-0.7,1.2-1.1,1.8
		c0,0,0,0,0,0c0.4-0.6,0.8-1.2,1.1-1.8c1.3-2.2,2.5-4.4,3.7-6.6c1.3-2.4,2.7-4.8,4-7.2c0.8-1.5,1.7-3.1,2.5-4.6
		c0.5-0.9,0.9-1.9,1.3-2.8c-1.3-0.8-2.3-1.4-3.4-2c-2.7-1.4-5.3-2.8-8-4.3c-0.5-0.3-0.9-0.7-1.3-1c-1.8-0.9-3.6-1.8-5.4-2.7
		c-1.6-0.8-3.1-1.7-4.8-2.6c0,0,0,0,0,0c1.7,0.9,3.3,1.8,4.8,2.6c1.8,0.9,3.6,1.8,5.4,2.7c1.7-3.9,3.4-7.7,5.1-11.6
		c0.7-1.6,1.4-3.1,2-4.6c-1.3-1-24.4-11-25.5-11.1c-3.7,8.3-7.3,16.7-11.1,25.2c1.4,0.6,2.7,1.2,3.9,1.7c3.4,1.5,6.8,2.9,10.2,4.4
		c0,0,0,0,0,0c-0.6,1.1-1.2,2.2-1.8,3.3c-1.2,2.1-2.4,4.3-3.5,6.4c-0.7,1.3-1.4,2.7-2.2,4.1c-2.3-1.3-4.5-2.5-6.6-3.7
		c-1.6-0.9-3.3-1.7-4.9-2.5c-1.9,2.7-3.8,5.4-5.7,8.2c-1.7,2.5-3.3,5.1-5,7.6c-0.1,0.2-0.3,0.3-0.6,0.4c0,0,0,0,0,0
		c0.2-0.2,0.5-0.3,0.6-0.4c1.7-2.5,3.3-5.1,5-7.6c1.9-2.8,3.8-5.5,5.7-8.2c0.3-0.5,0.6-1.1,0.9-1.6c0.6-1,1.3-2,2-3.1
		c-0.6-0.3-1-0.5-1.4-0.8c-2.2-1.5-4.4-3-6.6-4.5c-1.1-0.8-2.2-1.6-3.3-2.4c-2.1-1.4-4.2-2.7-6.3-4.1c-1-0.7-2.1-1.4-3.2-2.2
		c0,0,0,0,0,0c1.2,0.8,2.2,1.5,3.2,2.2c2.1,1.4,4.2,2.8,6.3,4.1c1.3-2.5,2.6-5,4-7.5c1.4-2.6,2.9-5.2,4.4-7.8c0.4-0.7,0.6-1.4,1-2.1
		c-7.8-4.3-15.4-8.4-23-12.7c-4.3,7.8-8.5,15.5-12.7,23.2c1.9,1.1,3.6,2,5.4,3c2.4,1.3,4.8,2.6,7.2,3.9c0,0,0,0,0,0
		c-0.3,0.6-0.5,1.2-0.9,1.8c-2,3-4,6-6,9c-0.9,1.3-1.8,2.6-2.8,4c-3.4-2.3-6.7-4.5-9.9-6.7c0,0,0,0,0,0c0.4-0.7,0.8-1.4,1.2-2.1
		c-2.6-2.1-5.2-4.1-7.7-6.2c-0.8-0.7-1.6-1.4-2.4-2c-1.8-1.4-3.7-2.9-5.5-4.3c-0.9-0.7-1.8-1.4-2.9-2.3c0,0,0,0,0,0
		c1,0.8,2,1.5,2.9,2.3c1.8,1.4,3.7,2.9,5.5,4.3c3.9-5.9,7.9-11.8,11.8-17.6c-1.4-1.4-19.9-13.6-21-13.8c-4.6,6.8-9.1,13.7-13.8,20.6
		c3.9,2.6,7.7,5.2,11.5,7.7c0,0,0,0,0,0c-0.1,0.3-0.2,0.7-0.4,0.9c-1.5,1.9-3,3.8-4.5,5.6c-1.7,2.2-3.5,4.4-5.2,6.5
		c-0.5,0.7-1.1,1.3-1.7,2c-2.9-2.3-5.8-4.6-8.6-6.8c-0.8,0.9-1.6,1.9-2.4,2.7c-2.9,3.1-5.9,6.2-8.9,9.3c-1.4,1.5-2.8,2.9-4.4,4.5
		c-2.7-2.5-5.3-5-7.9-7.5c0,0,0,0,0,0c2.6,2.5,5.3,5,7.9,7.5c1.5-1.6,3-3,4.4-4.5c3-3.1,5.9-6.2,8.9-9.3c0.8-0.9,1.6-1.8,2.4-2.7
		c-2.9-2.8-5.9-5.5-8.8-8.3c-0.2-0.2-0.3-0.4-0.4-0.7c-1.3-1.1-2.5-2.3-3.8-3.4c-1.1-1-2.1-2-3.2-3.1c-0.6,0.5-1.1,0.9-1.6,1.3
		c-0.8,0.9-1.6,1.7-2.4,2.7c-0.4,0.5-0.9,0.6-1.5,0.4c-0.6-0.2-1.2-0.3-1.8-0.4c-7-1.7-14-3.4-21.1-5.2c-0.5-0.1-0.9-0.2-1.7-0.4
		c4.5-4.7,8.9-9.3,13.3-13.9c-0.4-1.2-1.6-1.8-2.4-2.6c-1.8-1.9-3.7-3.6-5.6-5.4c-0.2-0.2-0.3-0.5-0.4-0.8c0.1-0.7,0.2-1.4,0.3-2
		c0.4-1.8,0.8-3.6,1.2-5.5c0,0,0,0,0,0c-0.4,1.8-0.8,3.6-1.2,5.5c-0.1,0.7-0.2,1.3-0.3,2c0.1-0.3,0.3-0.5,0.4-0.8
		c0.5-2.1,1-4.3,1.6-6.4c0.3,0,0.6,0,0.9,0.1c7.8,1.9,15.5,3.8,23.3,5.7c0.2,0.1,0.4,0.1,0.6,0.2c-0.7,1-1.3,2.2-2.1,3.1
		c-2.1,2.7-4.3,5.3-6.4,7.9c-1.7,2.1-3.5,4.3-5.2,6.4c-0.1,0.1-0.2,0.3-0.4,0.5c0.3,0.3,0.5,0.5,0.8,0.8c3,2.4,6,4.8,9.1,7.1
		c0.3,0.3,0.6,0.6,0.9,1c0.5-0.4,1-0.9,1.6-1.3c1.1,1.1,2.2,2.1,3.2,3.1c1.2,1.2,2.5,2.3,3.8,3.4c0.7-1,1.5-1.9,2.2-2.9
		c1.7-2.1,3.4-4.2,5.1-6.3c1.6-2,3.3-4,4.9-6c0.6-0.8,1.2-1.6,1.9-2.5c-1.4-1.1-2.6-2-3.8-3c-3.9-3.1-7.8-6.2-11.6-9.4
		c-0.3-0.3-0.5-0.7-0.8-1.1c0.6,0.1,1.1,0.2,1.7,0.3l2.3-9.3c0,0,0,0,0,0c2-2.5,3.9-5,5.9-7.5c0.9-1.1,1.7-2.2,2.6-3.4
		c-1.7-1.4-3.3-2.7-4.9-3.9c0,0,0,0,0,0c0.3-1.1,0.6-2.3,0.9-3.4c-3.2-1.8-6.3-3.9-10.1-5c1.8-2.7,3.5-5.2,5.3-7.9c0,0,0,0,0,0
		c-1.8,2.8-3.5,5.3-5.3,7.9c3.8,1.1,6.9,3.2,10.1,5c1.1,0.6,2.3,1.2,3.4,1.9c1.5,0.8,3.1,1.6,4.6,2.4c1.4,0.7,2.7,1.5,4.1,2.3
		c0,0,0,0,0,0c-0.2,0.4-0.3,0.7-0.5,1.1c-1.9,2.9-3.9,5.8-5.8,8.8c-0.2,0.2-0.3,0.5-0.4,0.8c6.8,4.5,13.4,9,20.3,13.5
		c4.5-6.8,9-13.4,13.5-20.2c2.2,0.9,4.3,1.8,6.4,2.7c0.6-1,1.2-1.9,1.8-2.9c1.9-3.5,3.9-7.1,5.8-10.6c0.1-0.1,0.2-0.2,0.4-0.3
		c0,0,0,0,0,0c-0.2,0.2-0.4,0.2-0.4,0.3c-1.9,3.5-3.8,7.1-5.8,10.6c-0.5,1-1.2,1.9-1.8,2.9c-0.8,1.5-1.6,3.1-2.4,4.6
		c-0.8,1.5-1.6,3-2.4,4.5c3.9,2.1,7.6,4.1,11.4,6.2c3.7,2.1,7.4,4.2,11.3,6.1c3.2-5.8,6.3-11.4,9.5-17.2c2.3,0.7,4.7,1.5,7,2.2
		c0,0,0,0,0,0c-0.6,1.4-1.1,2.9-1.7,4.3c-0.4,1-0.9,2.1-1.4,3.2c8.4,3.7,16.6,7.2,24.9,10.9c2.1-4.7,4.1-9.2,6.1-13.9l7.2,1.8
		c0.7-2,1.4-4.1,2.1-6.1c1.4-4.1,2.9-8.3,4.3-12.4c0.5-1.3,0.9-2.6,1.3-4c0,0,0,0,0,0c0,0,0,0,0,0l0,0c0,0,0,0,0,0c0,0,0,0,0,0
		c-3.6-1.2-7.2-2.5-10.8-3.7c-3.2-1.1-6.5-2.2-9.7-3.3c-2.4-0.8-4.7-1.7-7.1-2.6c0.5-1.5,0.9-2.9,1.3-4.3l-2.6-0.6
		c1.6-4.4,3.8-8.5,5.4-12.9c-1-0.4-1.9-0.8-2.9-1.2c1.7-3.2,3.4-6.4,5.2-9.7c0.8,0.3,1.4,0.6,2.1,0.8c-1,2.4-2,4.8-3,7.2
		c-0.4,0.9-0.7,1.8-1.2,2.7c0.4,0.3,0.8,0.7,1.2,1c0.6,0.3,1.3,0.5,1.9,0.8c-0.6-0.3-1.3-0.5-1.9-0.8c-1.4,4.2-2.9,8.4-4.3,12.6
		c-0.4,1.4-0.9,2.8-1.3,4.3c2.4,0.9,4.8,1.8,7.1,2.6c3.2,1.1,6.5,2.2,9.7,3.3c3.6,1.2,7.2,2.4,10.8,3.7c0.8-2.3,1.5-4.5,2.3-6.8
		c0.3-1.1,0.7-2.2,1.1-3.4c0.5-1.5,0.9-3.1,1.5-4.6c0.9-2.6,1.8-5.1,2.6-7.7c0.5-1.3,0.8-2.7,1.3-4c0.1-0.3,0.4-0.4,0.6-0.7
		c0.1-0.2,0.1-0.4,0.2-0.6h0c-0.9-0.3-1.7-0.6-2.6-0.9c-0.5,0.9-1,1.8-1.4,2.8c-1.2,2.8-2.4,5.7-3.6,8.5c-0.2,0.4-0.5,0.6-0.8,0.9
		c0,0,0,0,0,0c0.2-0.3,0.6-0.6,0.8-0.9c1.2-2.8,2.4-5.7,3.6-8.5c0.4-1,0.9-1.9,1.4-2.8c0.5-1.2,0.9-2.4,1.4-3.6
		c0.6-1.4,1.2-2.8,1.9-4.3c0.4,0,0.9,0,1.4,0c0.3-1.2,0.6-2.5,0.9-3.7c0.5-2.3,1.1-4.5,2.2-6.6c0.2-0.4,0.6-0.9,0.2-1.5c0,0,0,0,0,0
		c0.3-0.3,0.6-0.7,1-1c0.4-0.4,0.7-0.9,1.3-1.2c-0.8,2.2-1.6,4.4-2.4,6.7c-0.4,1.2-0.9,2.5-1.2,3.7c-0.5,1.7-1.1,3.4-1.9,5
		c-0.5,1-1.1,2.1-1.1,3.4c-0.1,1.4-0.7,2.7-1,4c1.9,0.6,3.8,1.3,5.7,1.9c3.7,1.2,7.3,2.5,11,3.7c2.9,1,5.8,2,8.7,3
		c0.4,0.1,0.8,0.2,1.4,0.4c1.2-3.6,2.5-7.1,3.7-10.6c0.1-0.4,0.2-0.8,0.3-1.1c0.9-2.8,1.9-5.5,2.8-8.3c0.8-2.3,1.5-4.6,2.3-6.8
		c0-0.1,0.1-0.2,0.2-0.3c0.4-1.2,0.7-2.4,1.1-3.6l0,0c0-0.1,0.1-0.2,0.1-0.3c0.2-0.3,0.4-0.6,0.5-0.9c0.4-1.3,0.9-2.6,1.3-3.9
		c0.2-0.5,0.3-1.1,0.4-1.6c-6.9-4.6-13.7-9.2-20.6-13.8c1.4-2.1,2.6-3.9,3.9-5.8c1.1-1.6,2.1-3.3,3.2-5c-2.4-0.7-4.8-1.5-7.4-2.2
		c-1.8,5.2-3.5,10.3-5.2,15.3c0.2,0.2,0.5,0.4,0.8,0.6c-0.2,0.5-0.4,0.9-0.6,1.5c0,0,0,0,0,0c0.3-0.6,0.4-1.1,0.6-1.5
		c-0.3-0.2-0.5-0.4-0.8-0.6c-1.1-0.4-2.2-0.8-3.4-1.3l3.9-15.8c0,0,0,0,0,0c1,0.3,2,0.6,3,0.9c0.5,0.2,1,0.3,1.6,0.4
		c0.8-2.3,1.6-4.5,2.4-6.9c0.8,0.6,1.5,1.1,2.1,1.6c1.4,1.2,2.8,2.3,4.2,3.5c0.4,0.3,0.7,0.8,1,1.2c0.9,0.6,1.7,1.1,2.6,1.7
		c0.4,0.3,0.8,0.6,1.3,1c1.8-2.2,3.6-4.3,5.4-6.4l2.2-2.8l7,1.7l3.6-14.6c-2.3-0.8-4.6-1.6-7.1-2.5c1.1-2.1,2.5-3.8,3.7-5.8
		c1.4,0.9,2.8,1.8,4.1,2.7c1.6,1.1,3.2,2.1,4.8,3.2c0.2,0.1,0.3,0.3,0.4,0.5c2.1,1.4,4.3,2.7,6.4,4.1c0.4,0.3,0.7,0.6,1.1,0.9
		c1,0.6,2.1,1.3,3.1,1.9c0.3,0.2,0.6,0.3,1,0.6c0.9-1.4,1.8-2.8,2.8-4.2c0.2-0.3,0.4-0.5,0.7-0.8c2.1-3.5,4.4-6.8,6.8-10.2l5.3,1.3
		l2.6-10.6C475.7,114.6,472.9,113.6,470,112.6z M-20.2,229.7C-20.2,229.7-20.2,229.7-20.2,229.7c1.1,0.3,2,0.6,2.9,0.9c0,0,0,0,0,0
		C-18.2,230.3-19.1,230-20.2,229.7z M282,317.3c1.9,1.5,3.8,3.1,5.7,4.6c0.8,0.7,1.7,1.3,2.6,2c0,0,0,0,0,0c-0.9-0.7-1.7-1.3-2.6-2
		C285.8,320.4,283.9,318.8,282,317.3C282,317.3,282,317.3,282,317.3z M267.9,313.6c0.3-0.4,0.5-0.8,0.8-1.2c0.9-1.1,1.8-2.2,2.8-3.4
		c1.3,0.9,2.5,1.8,3.6,2.7c1.8,1.4,3.5,2.9,5.3,4.3c0.3,0.3,0.6,0.6,0.9,0.9c0,0,0,0,0,0c-0.8,1.3-1.7,2.5-2.6,3.9
		C275.1,318.4,271.5,316,267.9,313.6L267.9,313.6z M249.4,321.8c2,1.6,4,3.3,6,4.9c0.2,0.2,0.5,0.3,0.8,0.5
		c-0.3-0.1-0.5-0.3-0.8-0.5C253.4,325,251.4,323.4,249.4,321.8c-0.2-0.1-0.3-0.2-0.5-0.3C249,321.6,249.2,321.6,249.4,321.8z
		 M333.1,93.4C340,97.3,347,101,354,105c0,0,0,0,0,0C347,101,340,97.3,333.1,93.4c-6.9-3.9-13.9-7.6-21.1-11.5c0,0,0,0,0,0
		C319.2,85.8,326.2,89.6,333.1,93.4z M338.9,148.8C338.9,148.8,338.9,148.8,338.9,148.8c3.8-4.7,7.5-9.4,11.3-14.1c0,0,0,0,0,0
		C346.5,139.4,342.7,144,338.9,148.8z M341.2,150.6L341.2,150.6L341.2,150.6L341.2,150.6L341.2,150.6z M340.5,150.1
		C340.5,150.1,340.5,150.1,340.5,150.1c-0.2,0-0.3-0.1-0.5-0.1C340.2,150.1,340.3,150.1,340.5,150.1z M340,150c0,0.1,0,0.1,0,0.2
		c0,0,0,0,0,0C339.9,150.1,340,150.1,340,150C340,150,340,150,340,150z M339,148.8C339,148.8,339,148.8,339,148.8
		c0.2,0.3,0.5,0.5,0.7,0.8c-0.1,0.1-0.2,0.2-0.2,0.2c0,0,0,0,0,0c0.1-0.1,0.2-0.2,0.2-0.2C339.5,149.3,339.2,149.1,339,148.8z
		 M337.6,129.5c-1.8-0.6-3.5-1.1-5.3-1.6c-1.5-0.5-2.7-1.4-3.6-2.7c-0.2-0.4-0.2-1-0.1-1.5c0.1-0.5,0.4-1,0.6-1.6
		c0.7,0.2,1.4,0.2,2.1,0.5c2.3,1.2,4.6,2.5,6.9,3.8c0.9,0.5,2,0.9,3,1.4c0.2-0.5,0.4-0.8,0.6-1.1c1.1,1,2.2,2,3.3,3
		c0.3,0.2,0.5,0.6,0.7,0.8c0,0,0,0,0,0c-1-0.5-1.9-1-2.9-1.5c-0.6-0.3-1.2-0.5-1.7-0.8c-0.4,0.7-0.8,1.3-1.2,2
		C339.2,130.1,338.4,129.7,337.6,129.5z M318.4,146C318.4,146,318.4,146,318.4,146c1.8,2.1,3.5,4,5.3,6c-3.8,3.4-7.5,6.6-11.3,9.9
		c0,0,0,0,0,0c3.8-3.3,7.5-6.6,11.3-9.9C321.9,150,320.2,148.1,318.4,146z M320.4,167.5C320.4,167.5,320.4,167.5,320.4,167.5
		c2.5,3.4,4.9,6.5,7.3,9.8c0,0,0,0,0,0C325.2,174,322.9,170.8,320.4,167.5z M326.8,188.2c-3.8,2.5-7.1,5.3-10.8,7.7c0,0,0,0,0,0
		C319.6,193.6,323,190.7,326.8,188.2C326.8,188.2,326.8,188.2,326.8,188.2z M326.6,115c-1.9,2.9-3.8,5.9-5.8,8.8
		c0.5,0.2,1,0.3,1.7,0.6c-1.7,1.8-3.3,3.3-5.2,4.5c-2.6,2.3-5.1,4.6-7.7,7c1.4,2.2,3.6,3.8,4.9,6.1c-2,2.4-3.8,4.8-5.8,7.2
		c-0.5,0.6-1,1.2-0.8,2.1c-0.4,0.3-0.7,0.5-1,0.8c-0.3,0.3-0.6,0.6-1.1,1.1c1.1,0.9,2.2,1.7,3.3,2.6c0,0,0,0,0,0
		c-1.1-0.9-2.2-1.7-3.3-2.6c0.5-0.5,0.8-0.8,1.1-1.1c0.3-0.3,0.6-0.5,1-0.8c-0.2-0.8,0.2-1.4,0.8-2.1c1.9-2.3,3.8-4.7,5.8-7.2
		c-1.3-2.3-3.4-3.9-4.9-6.1c2.6-2.3,5.1-4.7,7.7-7c1.2-1.7,2.3-3.4,3.5-5.1C322.8,120.8,324.7,117.9,326.6,115
		c0.5-0.8,1.1-1.7,1.7-2.6c-0.3-0.2-0.5-0.5-0.7-0.6c-2.9-2-5.8-3.9-8.7-5.9c-4-2.7-8-5.3-11.9-7.9c-1.9-1.2-3.7-2.5-5.5-3.8
		c-0.3-0.2-0.4-0.5-0.6-0.8c-3-1.8-6-3.6-9-5.5c0.5-1.7,1.1-3.1,1.9-4.3c0.7-1.7,1.4-3.3,2.1-5c2.1-4.8,4.2-9.6,6.4-14.4
		c0.1-0.1,0.1-0.3,0.1-0.5c0,0,0,0,0,0c-0.1,0.3-0.1,0.4-0.1,0.5c-2.1,4.8-4.2,9.6-6.4,14.4c-0.7,1.6-1.4,3.3-2.1,5
		c2.2,0.8,4.4,1.6,6.7,2.3c0.7,0.3,1.5,0.4,2.3,0.7c0.4,0.1,0.8,0.3,1.4,0.5c-0.2,0.6-0.4,1.1-0.6,1.5c-0.9,1.6-1.8,3.2-2.6,4.8
		c0.2,0.3,0.4,0.6,0.6,0.8c1.8,1.3,3.7,2.5,5.5,3.8c4,2.7,8,5.3,11.9,7.9c2.9,1.9,5.8,3.9,8.7,5.9c0.2,0.2,0.4,0.4,0.7,0.6
		C327.7,113.3,327.1,114.1,326.6,115z M292.3,188.1C292.3,188.1,292.3,188.1,292.3,188.1c3.9-2.9,7.7-5.6,11.6-8.5c0,0,0,0,0,0
		C300,182.4,296.2,185.2,292.3,188.1z M296.9,204.5C296.9,204.5,296.9,204.5,296.9,204.5c-1.5-2-2.9-3.8-4.3-5.7c0,0,0,0,0,0
		C294,200.7,295.4,202.5,296.9,204.5z M291.8,163c2.6-1.9,5.1-3.8,7.8-5.7c0,0,0,0,0,0C296.9,159.3,294.4,161.1,291.8,163
		c4.1,5.5,8,10.9,12.1,16.5c0,0,0,0,0,0C299.8,174,295.9,168.5,291.8,163z M270.4,189.5C270.4,189.5,270.4,189.5,270.4,189.5
		c5.5-3.4,11-6.6,16.6-10c0,0,0,0,0,0C281.3,182.8,275.9,186.1,270.4,189.5z M280.4,206.1C280.4,206.1,280.4,206.1,280.4,206.1
		c-1.3-2.1-2.6-4.2-4-6.4c0,0,0,0,0,0C277.9,201.9,279.1,204,280.4,206.1z M269.5,167.3C269.5,167.3,269.5,167.3,269.5,167.3
		c0.6,0.8,1.1,1.4,1.7,2.1c0,0,0,0,0,0C270.6,168.7,270.1,168.1,269.5,167.3z M282.2,170C282.2,170,282.2,170,282.2,170
		c-1.8-2-3.5-3.9-5.1-5.7c0,0,0,0,0,0C278.8,166.2,280.5,168.1,282.2,170z M280.1,161.6c2.2-1.9,4.3-3.7,6.5-5.6c0,0,0,0,0,0
		C284.3,157.9,282.3,159.7,280.1,161.6C280.1,161.6,280.1,161.6,280.1,161.6z M276.2,158c-0.3,0.4-0.5,0.7-0.8,1
		c1.3,1.1,2.5,2.1,3.9,3.3c-0.9,0.7-1.6,1.2-2.3,1.8c0,0,0,0,0,0c0.8-0.6,1.5-1.2,2.3-1.8c-1.4-1.1-2.6-2.2-3.9-3.3
		C275.7,158.7,275.9,158.4,276.2,158c-0.9-0.9-1.8-1.8-2.9-2.8c2-2.8,4.3-5.4,6.6-8.3c0,0,0,0,0,0c-2.2,2.9-4.6,5.5-6.6,8.3
		C274.4,156.2,275.4,157.1,276.2,158z M282.3,144.5c-0.1-0.1-0.1-0.1-0.2-0.2c0.3-0.6,0.7-1.1,1.1-1.8c-4-2.7-8-5.3-12-8.1
		c1.3-3,2.3-6,4.2-8.7c-7.3-7-14.7-14.1-22.1-21.2c1.2-1.5,2.3-2.8,3.4-4.3c1-1.3,1.9-2.6,2.9-3.9c-2.6-1.7-5.2-3.5-7.9-5.3
		c2.1-3,4.1-5.9,6.1-8.8c0,0,0,0,0,0c1.3,0.7,2.6,1.3,3.9,2c3,1.6,5.9,3.3,8.9,4.9c0.4,0.2,0.8,0.3,1.2,0.5c1.4-2.5,2.8-4.8,4.2-7.2
		c0.2-0.4,0.3-0.9,0.5-1.3c1.9-3.5,3.9-7,5.8-10.5c0.7-1.3,1.3-2.6,2-3.9c0,0,0,0,0,0c-0.7,1.4-1.3,2.7-2,3.9
		c-1.9,3.5-3.9,7-5.8,10.5c-0.2,0.4-0.4,0.9-0.5,1.3c3.2,1.4,6.3,2.8,9.7,4.2c-1.9,2.7-3.6,5.2-5.3,7.7c-1.9-1-3.9-2-5.8-3
		c-0.9-0.5-1.7-1-2.8-1.5c-0.7,1.1-1.3,2.2-2,3.4c-1.6-1.2-3-2.3-4.4-3.5c-0.5,0.5-0.9,0.9-1.2,1.3c-1.4,1.7-2.8,3.5-4.2,5.2
		c-0.1,0.1-0.2,0.1-0.4,0.1c-0.9,1.3-1.9,2.6-2.9,3.9c-1.1,1.4-2.2,2.8-3.4,4.3c7.4,7.1,14.8,14.2,22.1,21.2
		c-1.9,2.7-2.9,5.7-4.2,8.7c4,2.7,8,5.4,12,8.1c-0.4,0.7-0.8,1.3-1.1,1.8C282.2,144.4,282.3,144.5,282.3,144.5
		c4.6-3.4,9.2-6.7,13.9-10.1c3,4.1,6,8.1,9,12.3c0,0,0,0,0,0c-3.1-4.2-6-8.1-9-12.3C291.5,137.8,286.9,141.2,282.3,144.5z
		 M260.3,172.9C260.3,172.9,260.3,172.9,260.3,172.9c-2.9,1.7-5.6,3.3-8.3,5c0,0,0,0,0,0C254.7,176.2,257.4,174.6,260.3,172.9z
		 M255.1,164.5C255.2,164.5,255.2,164.5,255.1,164.5c1.7,2.8,3.4,5.5,5.1,8.3c0,0,0,0,0,0C258.5,170,256.9,167.3,255.1,164.5z
		 M250.3,156.3c0.3,0.5,0.6,1,0.9,1.6c0.3,0.4,0.3,0.9-0.1,1.2c-1.1,1-2.3,1.9-3.5,2.9c0,0,0,0,0,0c1.2-1,2.3-1.9,3.5-2.9
		c0.4-0.3,0.4-0.8,0.1-1.2C250.8,157.4,250.5,156.8,250.3,156.3c5.5-3.4,10.9-6.7,16.4-10.1c0,0,0,0,0,0
		C261.2,149.6,255.8,152.9,250.3,156.3z M303.5,161.5C303.5,161.5,303.5,161.5,303.5,161.5c1.1-1.1,2-2.1,3.1-3.2c0,0,0,0,0,0
		C305.5,159.4,304.6,160.4,303.5,161.5z M292.8,49.6C292.8,49.6,292.8,49.6,292.8,49.6l11.2,2.7l-0.9,3.6c5.2,1.8,10.4,3.6,15.6,5.4
		c0,0,0,0,0,0c-5.3-1.8-10.5-3.6-15.6-5.4c-2.2-0.7-4.5-1.5-6.7-2.2c-0.9-0.3-1.8-0.6-2.7-0.9c-0.6-0.2-1.2-0.5-2-0.8
		C292.1,51.1,292.5,50.3,292.8,49.6z M279.6,48c1.1-2.5,2.1-4.9,3.2-7.4c1.1-2.5,2.2-5.1,3.3-7.6c0.8-1.8,1.6-3.7,2.5-5.7
		c0,0,0,0,0,0c-0.9,2-1.7,3.8-2.5,5.7c-1.1,2.5-2.2,5.1-3.3,7.6C281.7,43.1,280.6,45.5,279.6,48c3.8,1.2,7.6,2.5,11.5,3.8
		c-0.6,2-1.2,4-1.8,6c0.2,0.1,0.4,0.3,0.7,0.4c-0.2-0.1-0.4-0.3-0.7-0.4c-0.9-0.3-1.8-0.6-2.7-1c-2.9-1.2-5.7-2.5-8.5-3.8
		c-0.2-0.1-0.3-0.2-0.6-0.4C278.2,51.1,278.9,49.5,279.6,48z M265.7,47.6c0.1-0.4,0.2-0.8,0.4-1.1c2.2-4,4.4-8,6.6-12
		c0.6-1.1,1.2-2.2,1.8-3.3c0,0,0,0,0,0c-0.6,1.1-1.2,2.2-1.8,3.3c-2.2,4-4.4,8-6.6,12C265.9,46.8,265.9,47.2,265.7,47.6
		c2.4,1.1,4.9,2.1,7.3,3.2c1.2,0.6,2.4,1.1,3.7,1.8c-1.1,2.7-2.3,5.3-3.4,7.9c0,0,0,0,0,0c-0.7-0.3-1.5-0.5-2.2-0.9
		c-3.1-1.7-6.1-3.4-9.2-5.1C262.1,53.6,264.6,49,265.7,47.6z M259.2,35.9C259.2,35.9,259.2,35.9,259.2,35.9c-0.9-0.7-1.9-1.4-2.9-2
		C257.3,34.5,258.2,35.2,259.2,35.9z M261.2,54c-0.3,0.6-0.5,1.1-0.7,1.5c-1.3,2.4-2.6,4.8-4,7.2c-0.2,0.3-0.5,0.6-0.7,0.9
		c3.2,2.2,6.5,4.4,9.7,6.6c0,0,0,0,0,0c-3.2-2.2-6.4-4.4-9.7-6.6c-1.1-0.7-2.2-1.3-3.2-2c-2.2-1.4-4.4-2.9-6.5-4.4
		c-0.2-0.1-0.4-0.3-0.7-0.6c2-2.8,3.6-5.7,5.7-8.3c0,0,0,0,0,0C254.4,50.2,257.8,52.1,261.2,54z M244.2,1.7c2.5,2.4,4.9,4.7,7.3,7
		C249.1,6.4,246.7,4,244.2,1.7C244.2,1.7,244.2,1.7,244.2,1.7z M229.6,57.8c1.9-2.3,3.7-4.7,5.6-7c0.2-0.2,0.4-0.3,0.6-0.5
		c3,2,5.9,4,8.9,6.1c-2.5,3.7-4.8,7.2-7.2,10.7c-1.2-0.9-2.5-1.7-3.7-2.6c-1.6-1.2-3.2-2.6-4.8-3.8c-0.3-0.2-0.6-0.5-0.9-0.9
		C228.6,59.1,229.1,58.4,229.6,57.8z M211.6-3.3C211.6-3.3,211.6-3.3,211.6-3.3c-0.8,0.9-1.7,1.8-2.5,2.7c4.6,4.4,9.1,8.7,13.7,13.2
		c-3.3,2.9-6.5,5.7-9.7,8.5c3.7,5.1,7.4,10.1,11,15c-1.8,1.3-3.5,2.6-5.3,4c2.5,2.4,4.9,4.7,7.3,7c-2.1,2.2-4,4.3-6,6.4
		c2.5,1.9,4.9,3.9,7.5,5.9c-1,1.3-1.9,2.5-2.8,3.6c-1.5,1.9-3.1,3.9-4.7,5.8c-0.6,0.7-1.1,1.4-1.7,2.2c0.7,0.7,1.3,1.4,2,2.1
		c1.9,1.9,3.8,3.7,5.9,5.6c-0.3,0.4-0.5,0.8-0.9,1.2c-1.4,1.6-2.9,3.1-4.4,4.7c0.5,0.5,1,1,1.5,1.4c2.4,1.9,4.9,3.8,7.3,5.8
		c0.4,0.3,0.8,0.7,1.3,1.2c1.4-1.8,2.8-3.5,4.2-5.3c1.1-1.4,2.2-2.8,3.4-4.2c0.2-0.2,0.4-0.3,0.7-0.4c4,2.7,8,5.3,12.2,8.1
		c-1.6,2.4-3.2,4.7-4.8,7.2c-1.2-1.2-2.4-2.2-3.7-3.4c-1.4,1.4-2.8,2.7-4.1,4.1c-1.2-0.9-2.4-1.8-3.6-2.8c-1.3-1-2.7-2.1-4.1-3.3
		c-2.6,3.2-5.1,6.3-7.7,9.6c-0.5-0.4-1-0.7-1.3-1.1c-0.6-0.6-1.1-1.1-2-1.1c-1.1,1.1-2.2,2.2-3.4,3.3c-3.4,3-6.8,5.9-10.2,8.9
		c-0.5,0.4-0.9,0.9-1.5,1.5c5.1,7.3,11.6,13.6,17.2,20.5c-0.3,0.7-0.6,1.2-0.9,2c1,1,1.9,2.1,2.9,3.1c2.3,2.3,4.7,4.5,7,6.8
		c0.2,0.2,0.3,0.4,0.5,0.7c-5.1,4.4-10.1,8.8-15.2,13.4c0,0,0,0,0,0c5.2-4.5,10.2-8.9,15.2-13.4c-0.2-0.3-0.3-0.6-0.5-0.7
		c-2.3-2.3-4.7-4.5-7-6.8c-1-1-1.9-2-2.9-3.1c0.3-0.7,0.6-1.3,0.9-2c-5.7-6.9-12.1-13.2-17.2-20.5c0.5-0.6,1-1,1.5-1.5
		c3.4-3,6.8-5.9,10.2-8.9c1.2-1,2.3-2.2,3.4-3.3c-1.1-0.7-2.2-1.4-3.4-2.2c-0.4,0.5-0.8,1-1.3,1.6c-1.6-1.5-3.2-3-4.9-4.6
		c0.9-0.9,1.7-1.8,2.5-2.6c2.5-2.6,5-5.2,7.5-7.7c0.1-0.1,0.3-0.2,0.4-0.3c1.5-1.6,2.9-3.1,4.4-4.7c0.3-0.3,0.5-0.7,0.9-1.2
		c-2-1.9-4-3.8-5.9-5.6c-0.7-0.7-1.3-1.4-2-2.1c-0.7-0.6-1.3-1.1-2-1.7c-1.9-1.7-3.7-3.5-5.5-5.2c-0.2-0.1-0.2-0.4-0.5-0.7
		c3.2-3.3,6.4-6.6,9.6-9.9c1.9-2.1,3.9-4.1,6-6.4c-2.4-2.3-4.8-4.6-7.3-7c1.8-1.4,3.5-2.6,5.3-4c-3.6-5-7.3-9.9-11-15
		c3.2-2.8,6.4-5.6,9.7-8.5c-4.6-4.4-9.1-8.7-13.7-13.2C210-1.5,210.8-2.3,211.6-3.3z M243.6,166.6c-0.9-1.3-2-2.6-2.8-4
		c-0.9-1.4-1.7-2.8-2.3-4.3c-0.4-0.9-0.8-1.3-1.7-1.2c-0.7-0.8-1.3-1.6-2-2.4c-4.8,3.5-9.4,6.9-14,10.3c-1.7-1.1-2.5-2.9-4.1-4.2
		c-0.5,0.4-1,0.8-1.7,1.3c-2.9-3.9-5.7-7.8-8.7-11.8c-5.7,3.8-10.9,8-16.6,11.9c-2.5-3.3-4.8-6.5-7.3-9.8c-0.7,0.4-1.4,0.8-2,1.1
		c-6.6-10.9-13.2-21.8-19.9-32.7c0,0,0,0,0,0c6.7,11,13.3,21.8,19.9,32.7c0.6-0.3,1.3-0.7,2-1.1c2.4,3.3,4.8,6.5,7.3,9.8
		c5.6-3.9,10.8-8.1,16.6-11.9c3,4,5.8,7.9,8.7,11.8c0.6-0.5,1.2-0.9,1.7-1.3c1.5,1.3,2.4,3.1,4.1,4.2c4.7-3.4,9.3-6.8,14-10.3
		c0.7,0.8,1.3,1.6,2,2.4c0.9-0.1,1.3,0.4,1.7,1.2c0.6,1.5,1.4,2.9,2.3,4.3C241.6,164,242.7,165.2,243.6,166.6
		c0.9,1.4,2.3,2.6,2.7,4.3c0,0,0,0,0,0C245.8,169.1,244.5,168,243.6,166.6z M245.7,173.4C245.7,173.4,245.7,173.4,245.7,173.4
		c-0.2-0.4-0.4-0.9-0.7-1.5c0,0,0,0,0,0C245.3,172.5,245.5,173,245.7,173.4z M199.3,189.2c-1.5-3.7-2.9-7.4-4.4-11.2
		c-2.4,1.2-4.7,2.2-6.9,3.3c0,0,0,0,0,0c2.2-1.1,4.5-2.2,6.9-3.3C196.4,181.8,197.9,185.4,199.3,189.2c5.5-2.1,10.8-4.2,16.3-6.3
		c0,0,0,0,0,0C210.1,185,204.8,187,199.3,189.2z M213.1,191.7C213.1,191.7,213.1,191.7,213.1,191.7c-0.1-0.1-0.2-0.2-0.2-0.2
		c-0.3,0.3-0.6,0.6-1,1c-0.5-0.6-0.9-1.1-1.2-1.5c0,0,0,0,0,0c0.4,0.4,0.7,0.9,1.2,1.5c0.4-0.4,0.7-0.7,1-1
		C213,191.6,213.1,191.7,213.1,191.7z M206.1,213.5c-0.4,0.1-0.6-0.2-1.2-0.8c-1.5-1.7-3-3.3-4.4-5c0,0,0,0,0,0c1.5,1.7,3,3.3,4.4,5
		C205.5,213.4,205.8,213.6,206.1,213.5z M193.8,223.6C193.8,223.6,193.8,223.6,193.8,223.6c0.6,1.6,1.2,3,1.8,4.6
		c-1.4,0.6-2.7,1.1-4.2,1.7c0.3,0.3,0.6,0.7,0.9,1c-0.3-0.3-0.6-0.7-0.9-1c1.5-0.6,2.8-1.1,4.2-1.7
		C195,226.6,194.4,225.2,193.8,223.6z M195.2,234.3c0.2,0.3,0.5,0.5,0.7,0.8c-0.1,0.3-0.2,0.6-0.3,0.9l0,0c0.1-0.4,0.2-0.6,0.3-0.9
		C195.7,234.8,195.4,234.5,195.2,234.3z M191,207c-1.1,0.3-2.1,0.5-3.2,0.8c-1.5-3.7-2.9-7.3-4.4-11.1c-3.7,2.2-7.1,4.3-10.8,6.5
		c-0.8-2.6-1.4-5-2.2-7.5c0,0,0,0,0,0c0.7,2.5,1.4,4.9,2.2,7.5c3.7-2.2,7.1-4.3,10.8-6.5c1.5,3.8,2.9,7.4,4.4,11.1
		C188.9,207.6,189.9,207.3,191,207c0.4,1.2,0.8,2.4,1.2,3.6c0.7-0.2,1.2-0.4,1.7-0.6c0.3-0.1,0.6-0.1,1-0.1c0,0,0,0,0,0
		c-0.3,0-0.7,0-1,0.1c-0.5,0.1-1.1,0.4-1.7,0.6C191.8,209.4,191.4,208.3,191,207z M190.4,259.9c0,0.1,0,0.1-0.1,0.2
		c0,0.1,0,0.1-0.1,0.2c0-0.1,0-0.1,0.1-0.2C190.4,260,190.4,259.9,190.4,259.9z M185.2,255.5C185.2,255.5,185.2,255.5,185.2,255.5
		c1.8,0.7,2.4,1.4,1.9,2.2c0,0,0,0,0,0C187.6,256.9,187,256.2,185.2,255.5z M181.9,276.4c-1.3,1-2.7,2.1-4.1,3.2c0,0,0,0,0,0
		C179.3,278.5,180.6,277.5,181.9,276.4c0.1-0.2,0.1-0.4,0.2-0.5c1.2-1,2.4-2,3.7-3c-0.4,1.4-0.6,2.8-1.4,4.1c0,0,0,0,0,0
		C183.6,276.9,182.8,276.7,181.9,276.4z M182.1,284.4C182.1,284.4,182.1,284.4,182.1,284.4c-1.7-1.3-2.7-3-4.2-4.4c0,0,0,0,0,0
		C179.4,281.4,180.4,283,182.1,284.4z M176.5,217C176.5,217,176.5,217,176.5,217c1.1,3.6,2.1,7.1,3.2,10.7c0,0,0,0,0,0
		C178.6,224,177.6,220.5,176.5,217z M154.3,200.3C154.3,200.3,154.3,200.3,154.3,200.3c1.3,4.2,2.5,8.3,3.7,12.4
		c-1.1,0.1-1.9,0.6-2.4,1.8c0,0,0,0,0,0c0.5-1.2,1.3-1.7,2.4-1.8C156.7,208.6,155.5,204.6,154.3,200.3z M138.7,165
		C138.7,165,138.7,165,138.7,165c1.5,2.9,2.9,5.8,4.4,8.7c0,0,0,0,0,0C141.6,170.8,140.2,168,138.7,165z M142.6,201.2
		c0.2,0.9,0.4,1.6,0.6,2.3c0,0,0,0,0,0C143,202.8,142.8,202,142.6,201.2C142.6,201.2,142.6,201.2,142.6,201.2z M138.7,164.9
		C138.7,164.9,138.7,164.9,138.7,164.9c5.6-2.7,11-5.4,16.6-8.1c0,0,0,0,0,0C149.8,159.5,144.3,162.2,138.7,164.9z M148.3,82.1
		c-1.9,1.2-3.8,2.4-5.7,3.5c-0.4,0.2-0.8,0.5-1.2,0.8c-0.5-0.8-0.9-1.6-1.5-2.6c3.4-1,6.5-2.1,9.8-2.8
		C149.2,81.4,148.8,81.8,148.3,82.1z M149.9,103.5c0.5-0.1,0.9-0.2,1.4-0.3c-0.1,0.1-0.1,0.3-0.2,0.3c-1.1,0.5-2.3,1-3.4,1.5
		c-1.1-1.5-2.1-2.9-3.2-4.4c0.9-0.8,1.8-1.3,2.8-1.5C148.1,100.5,149,102,149.9,103.5z M155.7,115.9
		C155.7,115.9,155.7,115.9,155.7,115.9c-5.5,2.7-10.9,5.4-16.6,8.2c5.4,10.9,10.7,21.7,16.1,32.7c0,0,0,0,0,0
		c-5.4-10.9-10.7-21.7-16.1-32.7C144.7,121.2,150.2,118.6,155.7,115.9z M154.7,75.1c1.1,0.1,1.5,0.9,1.9,1.9
		c-0.9,0.6-1.8,1.2-2.8,1.8c-0.3-0.9-0.6-1.8-1-2.7C153.6,75.8,154.2,75.5,154.7,75.1C154.7,75.2,154.7,75.1,154.7,75.1z M154,169.6
		c2.1,5.3,4.1,10.6,6.2,15.9c-1.4,0.6-2.7,1.1-4.1,1.7c0.2,1.2,0.4,2.2,0.7,3.4c0,0,0,0,0,0c-0.2-1.2-0.5-2.3-0.7-3.5
		c1.4-0.6,2.7-1.1,4.1-1.7C158.1,180.1,156.1,174.9,154,169.6C154,169.6,154,169.6,154,169.6z M158.5,155.3
		C158.5,155.3,158.5,155.3,158.5,155.3c1.7,2.8,3.3,5.6,5.1,8.5c-1.2,0.7-2.4,1.4-3.7,2.2c0,0,0,0,0,0c1.3-0.8,2.5-1.5,3.7-2.2
		C161.8,160.9,160.2,158.1,158.5,155.3z M154.5,200.3C154.5,200.3,154.5,200.3,154.5,200.3c5.2-1.7,10.5-3,15.8-4.7
		c-1.2-4.3-2.4-8.4-3.7-12.5c0,0,0,0,0,0c1.2,4.2,2.4,8.3,3.7,12.5C165.1,197.3,159.8,198.6,154.5,200.3z M186.4,190.1
		c1.4-1.1,2.8-2.1,4.3-3.2c0,0,0,0,0,0C189.2,188,187.8,189,186.4,190.1c-0.4-0.4-0.5-0.7-0.5-1C185.9,189.4,186,189.7,186.4,190.1z
		 M185.4,187.7c-0.4-1.5-0.8-2.8-1.3-4.3c0,0,0,0,0,0C184.6,184.9,185,186.3,185.4,187.7c0.5-0.3,0.8-0.4,1.3-0.7c0,0,0,0,0,0
		C186.3,187.3,185.9,187.5,185.4,187.7z M187.1,186.7C187.1,186.7,187.1,186.7,187.1,186.7l0.1,0c0,0.1-0.1,0.2-0.1,0.4c0,0,0,0,0,0
		c0-0.1,0.1-0.2,0.1-0.4L187.1,186.7z M188,181.4c-2.7-5.4-5.3-10.7-7.9-16.2c-4,2-7.9,3.9-11.8,5.8c-1.6-2.4-3-4.8-4.5-7.1
		c0,0,0,0,0,0c1.5,2.4,3,4.7,4.5,7.1c3.9-1.9,7.8-3.8,11.8-5.8C182.7,170.6,185.4,175.9,188,181.4C188,181.4,188,181.4,188,181.4z
		 M183.2,192.2c-0.3,0.4-0.6,0.8-1,1.2c0,0,0,0,0,0C182.5,192.9,182.8,192.6,183.2,192.2C183.2,192.2,183.2,192.2,183.2,192.2z
		 M173.6,219.7C173.6,219.7,173.6,219.7,173.6,219.7c-3.6-1.2-6.7-2.9-10-4.2c0,0,0,0,0,0C166.8,216.8,169.9,218.5,173.6,219.7z
		 M170.4,213.7c0.1,0.1,0.1,0.1,0.2,0.2c0.2,0.2,0.3,0.4,0.5,0.5c-0.2-0.2-0.3-0.3-0.5-0.5C170.6,213.9,170.5,213.8,170.4,213.7z
		 M173.2,216.5c0.3,0.4,0.6,0.8,0.9,1.2c0,0,0,0,0,0C173.8,217.3,173.5,216.9,173.2,216.5z M176.8,109.6L176.8,109.6
		c0.2,0.6,0.4,1.1,0.6,1.6c0,0,0,0,0,0C177.2,110.7,177,110.2,176.8,109.6z M181.8,116.7c-1.3-1.7-2.5-3.5-3.8-5.2
		c-0.1-0.1-0.3-0.2-0.5-0.3c0,0,0,0,0,0c0.2,0.1,0.4,0.1,0.5,0.3C179.2,113.2,180.5,115,181.8,116.7c0.1,0.1,0.2,0.3,0.3,0.5
		c-0.2,0.3-0.4,0.4-0.7,0.4c0.2,0,0.5-0.1,0.7-0.4C181.9,117,181.9,116.8,181.8,116.7z M198.6,105.6
		C198.6,105.6,198.6,105.6,198.6,105.6c0.5,0.3,0.8,0.6,1.2,0.9c0,0,0,0,0,0C199.4,106.2,199.1,105.9,198.6,105.6z M204.9-0.3
		c0.7,0.4,1.4,0.8,2.3,1.2C206.4,0.4,205.6,0,204.9-0.3C204.9-0.3,204.9-0.3,204.9-0.3z M204.3,57.8c1.9,1.8,3.7,3.5,5.6,5.3
		c-1,1.1-1.9,2.2-2.9,3.2c-1.5,1.6-3.1,3.2-4.7,4.8c-1.2,1.2-2.4,2.3-3.5,3.5c-0.8-0.7-1.6-1.4-2.3-2.1c-1.4-1.5-2.7-3.1-4.1-4.7
		c0.9-0.8,1.7-1.6,2.6-2.3c2.8-2.4,5.5-4.8,8.3-7.2C203.7,58.1,204,58,204.3,57.8z M190.3,59.2c-1.6-2-2.8-4.2-3.9-6.5
		c-1.6-3.4-3.3-6.8-5.1-10.2c-0.3-0.6-0.8-1.1-1.2-1.7c5.1-3.1,10.1-6.1,15.2-9.3c-3.5-4.8-6.9-9.4-10.4-14.2c1.7-1.5,3.3-3,5-4.5
		c-0.4-0.5-0.7-0.9-1.1-1.4c3.7-2.7,7.3-5.4,11-8.1c-0.1-0.3-0.2-0.6-0.4-0.8c-2.7-3.7-5.4-7.3-8.1-11c-1-1.3-1.9-2.7-2.9-4.1
		c-0.1-0.1-0.1-0.1-0.2-0.2c0.1,0.1,0.2,0.1,0.2,0.2c1,1.3,1.9,2.7,2.9,4.1c2.7,3.7,5.4,7.3,8.1,11c0.2,0.2,0.3,0.5,0.4,0.8
		c-3.7,2.7-7.3,5.4-11,8.1c0.4,0.5,0.7,0.9,1.1,1.4c-1.7,1.5-3.3,3-5,4.5c3.5,4.8,6.9,9.4,10.4,14.2c-5.2,3.1-10.1,6.2-15.2,9.3
		c0.5,0.6,0.9,1.1,1.2,1.7c1.7,3.4,3.5,6.8,5.1,10.2C187.4,55,188.7,57.1,190.3,59.2c0.3,0.3,0.5,0.7,0.8,1.2
		c-1.1,0.8-2.1,1.6-3.2,2.4l0,0c1.7,1.2,2.7,3,4.3,4.6c-1.2,1.1-2.3,2.1-3.4,3.1c-2.1,1.9-4.2,3.7-6.3,5.5c-1,0.9-2.1,1.7-3.1,2.6
		c0,0.2,0,0.4,0.1,0.5c1.8,2.5,3.7,5,5.5,7.4c0.5,0.7,0.9,1.4,1.3,2c-0.8,0.8-1.6,1.4-2.3,2.1c2,2.3,4,4.6,6.1,7
		c0.5-0.3,0.9-0.5,1.2-0.8c1.8-1.6,3.6-3.2,5.4-4.7c1.4-1.3,2.8-2.6,4.3-3.8c0.4-0.4,0.9-0.6,1.4-0.9c2.7,2.6,5.4,5.2,8.3,7.9
		c-2.2,2.3-4.3,4.4-6.5,6.5c-1.7-1.3-3.4-2.6-5.1-3.9c-0.5-0.4-1.1-0.6-1.6-1c-1.4,1.7-2.6,3.2-3.9,4.8c-1.2-1.4-2.3-2.6-3.4-3.9
		c-1.3,1.1-2.6,2.2-3.8,3.3c-0.4,0.3-0.9,0.6-1.3,0.9c0,0,0,0,0,0c-2.3-1.9-4.1-4.2-6.5-6c-2.3,2.4-4.5,4.7-6.8,7.1
		c-0.6-0.9-1.2-1.6-1.8-2.4c-1.3,0.8-2.5,1.6-3.8,2.3c-1.1,0.9-2.1,1.8-3.2,2.6c-2.4,1.8-4.7,3.5-7.1,5.2c-0.2,0.2-0.4,0.4-0.8,0.8
		c1.5,2.9,3.4,5.6,5,8.5c-0.2,0.3-0.3,0.6-0.5,0.9c0.5,0.7,1,1.3,1.5,2.1c-0.3,0.4-0.6,0.7-1.1,1.1c0,0,0,0,0,0
		c0.4-0.5,0.7-0.8,1.1-1.1c-0.5-0.8-1-1.4-1.5-2.1c0.2-0.3,0.3-0.6,0.5-0.9c-1.6-2.9-3.5-5.6-5-8.5c0.4-0.4,0.6-0.6,0.8-0.8
		c2.4-1.7,4.8-3.4,7.1-5.2c1.1-0.8,2.2-1.7,3.2-2.6c-0.5-0.5-0.9-1-1.4-1.5c-1.2-1.4-2.4-2.8-3.7-4.3c1.4-1.2,2.8-2,4.4-2.7l0,0
		c1.5,2,2.9,3.9,4.4,6c2.1-1.5,4.2-3,6.2-4.5c2.3-1.7,4.7-3.4,7-5.1c0.2-0.2,0.5-0.2,0.8-0.3c0.7-0.7,1.5-1.3,2.3-2.1
		c-0.4-0.7-0.8-1.4-1.3-2c-1.8-2.5-3.7-5-5.5-7.4c-0.1-0.1-0.1-0.3-0.1-0.5c-0.7-0.8-1.4-1.6-2-2.4c-0.7-0.9-1.4-1.9-2.1-2.8
		c-0.2-0.3-0.3-0.6-0.5-1c1.5-1.1,2.9-2.1,4.3-3.1c2.8-2.1,5.5-4.1,8.3-6.2c0.2-0.1,0.4-0.2,0.6-0.3c1-0.8,2.1-1.6,3.2-2.4
		C190.7,59.9,190.5,59.5,190.3,59.2z M170.8,69.3c0.3-0.2,0.6-0.4,1-0.7c0,0,0,0,0,0c0.8,1.1,1.7,2.2,2.6,3.4
		c-4.8,3.5-9.5,6.9-14.2,10.4c0.1,0.1,0.1,0.2,0.1,0.4c0-0.1-0.1-0.3-0.1-0.4c-0.5-0.8-1.1-1.6-1.6-2.3c-0.4-0.5-0.7-1.1-1-1.7
		c-0.2-0.4-0.3-0.8-0.4-1c3.4-2.1,6.6-4.1,9.8-6C168.1,70.6,169.5,70,170.8,69.3z M168.2,47.8c0,0,0.1,0,0.1-0.1
		C168.3,47.8,168.3,47.9,168.2,47.8z M171.8,65.1c0.2,0.3,0.3,0.5,0.5,0.8C172.1,65.6,171.9,65.4,171.8,65.1
		c-0.7-1.3-1.5-2.6-2.2-3.9C170.3,62.5,171,63.8,171.8,65.1z M170.3,46.6C170.4,46.6,170.4,46.6,170.3,46.6L170.3,46.6
		C170.3,46.6,170.3,46.6,170.3,46.6z M172.3,65.9c0.2,0.3,0.4,0.6,0.6,0.8C172.7,66.5,172.5,66.2,172.3,65.9z M166.8,93.3
		C166.8,93.3,166.8,93.3,166.8,93.3c-0.5-0.6-1-1.1-1.4-1.8c-1.6-2.6-3.2-5.3-4.8-7.9c-0.1-0.2-0.2-0.4-0.3-0.6
		c0.1,0.2,0.2,0.4,0.3,0.6c1.6,2.6,3.2,5.3,4.8,7.9C165.8,92.2,166.3,92.7,166.8,93.3z M177.8,42.2c0.1,0.2,0.2,0.5,0.4,0.8
		c-2,1-4,2-6,2.9c-0.6,0.3-1.3,0.5-1.9,0.7C172.8,45,175.1,43.3,177.8,42.2z M164.7,8.7c2.4,4.9,4.9,9.8,7.3,14.7c0,0,0,0,0,0
		C169.5,18.5,167.1,13.6,164.7,8.7C164.7,8.7,164.7,8.7,164.7,8.7z M171.1,26C171.1,26,171.1,26,171.1,26c-4.6,2.3-9.1,4.4-13.8,6.7
		c0,0,0,0,0,0C162,30.4,166.4,28.2,171.1,26z M164.4,49.8C164.4,49.8,164.4,49.8,164.4,49.8c-2.2-4.4-4.3-8.7-6.5-13.1c0,0,0,0,0,0
		C160.1,41.1,162.2,45.4,164.4,49.8z M155.9,54c2.8-1.4,5.6-2.7,8.4-4.1c0.5,1,1,1.9,1.4,2.8c0.1,0.2-0.1,0.6-0.1,0.9c0,0,0,0,0,0
		c-0.8-0.8-1.6-1.7-2.5-2.6c-2,1.2-4.1,2.4-6.2,3.6c-2.2,1.3-4.4,2.6-6.7,3.8c-0.6,0.3-1.3,0.4-1.5,1.2l-0.2-0.3
		c-0.7,0.2-1.4,0.3-2,0.5c-4.1,1.6-8.1,3.2-12.1,4.8c-0.6,0.2-1.2,0.6-1.9,0.9c0,0,0,0,0,0c0.8-0.4,1.3-0.7,1.9-0.9
		c4-1.6,8.1-3.2,12.1-4.8c0.6-0.2,1.3-0.3,2-0.5c-0.1-0.6-0.2-1.1-0.3-1.7c0,0,0,0,0,0C150.8,56.5,153.4,55.2,155.9,54z
		 M131.3,159.5C131.3,159.5,131.3,159.5,131.3,159.5c1.4-0.5,2.7-1,4-1.5c0,0,0,0,0,0C134,158.5,132.7,159,131.3,159.5z
		 M134.3,167.1C134.3,167.1,134.3,167.1,134.3,167.1c-1-2.5-2-5-3-7.5c0,0,0,0,0,0C132.3,162.1,133.3,164.6,134.3,167.1z M135,120.9
		C135,120.9,135,120.9,135,120.9c0.6,1.4,1.1,2.7,1.7,4.1c0,0,0,0,0,0C136.1,123.6,135.6,122.3,135,120.9z M136.7,90.1
		c-4.1,0.8-8.1,1.7-12.4,2.5c0.1,0.6,0.2,1,0.4,1.5c0.5,1.3,1,2.7,1.5,4c0.1,0.1,0.1,0.2,0.2,0.3c0.1,0.1,0.1,0.2,0.2,0.2
		c1,2,2,4,3.1,6c-0.4,0.4-0.8,0.7-1.1,1c0.3,0.6,0.7,1.2,1.1,1.9c-5.1,2.5-10.2,5-15.4,7.6c1.2,2.5,2.5,5.1,3.7,7.7
		c-0.1,0.3-0.3,0.6-0.5,1c0.3,1,0.7,2,1,3.1c-0.9,0.3-1.7,0.6-2.5,0.9c0,0,0,0,0,0c0.9-0.3,1.6-0.5,2.5-0.9c-0.4-1.1-0.7-2.1-1-3.1
		c0.2-0.4,0.3-0.7,0.5-1c-1.3-2.6-2.5-5.1-3.7-7.7c5.2-2.6,10.3-5.1,15.4-7.6c-0.4-0.7-0.7-1.3-1.1-1.9c-0.3-0.4-0.5-0.8-0.9-1.2
		c0.2-0.2,0.4-0.4,0.6-0.7c-0.6-1.7-1.1-3.5-1.7-5.2c-0.1-0.1-0.1-0.2-0.2-0.2c-0.1-0.1-0.1-0.2-0.2-0.3c-0.5-1.3-1-2.7-1.5-4
		c-0.2-0.5-0.2-0.9-0.4-1.5C128.5,91.7,132.6,90.9,136.7,90.1c-0.4-2.2-0.7-4.1-1-6c-0.1-0.3-0.1-0.7-0.2-1c0.7-0.3,1.2-0.5,1.8-0.8
		c-1.3-4.6-2.6-9.2-3.9-13.9c0,0,0,0,0,0c1.3,4.7,2.6,9.3,3.9,13.9c0.4,0.4,0.3,0.8-0.2,1.1c-0.5,0.3-0.9,0.4-1.4,0.7
		C136,86,136.3,87.9,136.7,90.1z M129.2,173.6c-1.8,0-3.3,0.8-5,1.2c-0.1,0-0.2,0.1-0.3,0.1c0.1,0,0.2-0.1,0.3-0.1
		C125.8,174.4,127.4,173.6,129.2,173.6C129.2,173.6,129.2,173.6,129.2,173.6z M121.9,175.4c-1,0.3-1.9,0.6-2.9,0.9c0,0,0,0,0,0
		C120,176,121,175.7,121.9,175.4z M99.4,130.3c0.1,0.7,0.1,1.3,0.1,1.9c0.1,0.2,0.1,0.5,0.2,0.7c0.2,0.4,0.3,0.9,0.5,1.3
		c0.5,1.5,1.1,3,1.5,4.5c1.5,5.1,2.9,10.1,4.4,15.2c0.6,2.1,1.1,4.1,1.7,6.2c0.2,0.6,0.5,1.3,0.7,1.9c0,0,0,0,0,0
		c-0.3-0.7-0.6-1.3-0.7-1.9c-0.6-2.1-1.1-4.1-1.7-6.2c-1.4-5.1-2.9-10.1-4.4-15.2c-0.4-1.5-1-3-1.5-4.5h0c-0.9,0.4-1.8,0.9-3,1.4
		c-0.3-1.8-0.5-3.4-0.7-4.9c-0.1,0-0.2-0.1-0.4-0.1c0.1,0,0.3,0.1,0.4,0.1c0.6-0.1,1.2-0.2,1.8-0.2c0.5,0.6,0.3,1.6,1.3,1.7
		C99.5,131.6,99.4,131,99.4,130.3c5.2-1.5,10.5-3,15.7-4.6c0,0,0,0,0,0C109.9,127.3,104.7,128.8,99.4,130.3z M115,165.9
		C115,165.9,115,165.9,115,165.9c-0.7-1.8-1.4-3.4-2.1-5.1c0,0,0,0,0,0C113.6,162.4,114.2,164.1,115,165.9z M105.6,176.6
		C105.6,176.6,105.6,176.6,105.6,176.6c0.3,3.7,1.5,7.1,4.1,10.1c0,0,0,0,0,0C107.1,183.8,105.9,180.4,105.6,176.6z M108,187.5
		C108,187.5,108,187.5,108,187.5c-0.7-0.8-0.7-1.8-0.8-2.8c0,0,0,0,0,0C107.3,185.7,107.2,186.7,108,187.5z M92.6,193
		C92.6,193,92.6,193,92.6,193c2.5-0.3,4.8-0.5,7.1-0.7c0,0,0,0,0,0C97.4,192.5,95.1,192.8,92.6,193z M98.6,209.6
		c-1.3,0.5-2.5,0.9-3.8,1.4c0,0,0,0,0,0C96.1,210.5,97.3,210,98.6,209.6C98.6,209.5,98.6,209.5,98.6,209.6z M92,223.4
		C92,223.4,92,223.4,92,223.4c-0.1-4.7-0.2-9.4-0.3-14.1c0.8-0.1,1.4-0.2,2.2-0.3c0,0,0,0,0,0c-0.7,0.1-1.4,0.2-2.2,0.3
		C91.8,214,91.9,218.7,92,223.4z M87.8,228.7c0.3,0.6,0.7,1.1,0.4,1.8c-2.4,1.2-4.8,2.4-7.2,3.6c-0.4-0.9-0.2-5,0.2-7.3c0,0,0,0,0,0
		c1.9,1,3.8,2,5.7,3c0.4,0.2,0.9,0.4,1.3,0.6C88.5,229.8,88,229.2,87.8,228.7c-0.8-1.6-1.5-3.1-2.4-4.9c2.2-0.4,4.2-0.2,6.3-0.3
		c0,0,0,0,0,0c-2.1,0.1-4.1-0.1-6.3,0.3C86.3,225.5,87,227.1,87.8,228.7z M68.1,221.2c2.5-1,5.1-1.9,7.6-2.9c0.5-0.2,1-0.4,1.6-0.7
		c0.7,2.1-0.2,4.4,0.8,6.6c-1.2-0.6-2.4-0.4-3.5-0.4c-2.3,0-4.5,0-6.8,0C67.9,223,68,222.1,68.1,221.2
		C68.1,221.2,68.1,221.2,68.1,221.2z M71.3,167.3C71.3,167.4,71.3,167.4,71.3,167.3c-1.5,0.3-2.9,0.5-4.4,0.8c0,0,0,0,0,0
		C68.4,167.9,69.8,167.6,71.3,167.3z M70.9,165.5C70.9,165.5,70.9,165.5,70.9,165.5c0.2,0.5,0.3,1.1,0.6,1.7c0,0,0,0,0,0
		C71.2,166.6,71,166.1,70.9,165.5z M69.8,195.3C69.8,195.3,69.8,195.3,69.8,195.3c-0.5-3.9-0.9-7.6-1.3-11.4c0,0,0,0,0,0
		C69,187.7,69.4,191.4,69.8,195.3z M69.4,198.3c2.6,0.2,5,0.3,7.6,0.5c0.2-0.4,0.4-0.7,0.4-1.1c0-0.8-0.2-1.6-0.4-2.4
		c0,0,0-0.1-0.1-0.1c0.1,0,0.1,0.1,0.1,0.1c0.2,0.8,0.3,1.6,0.4,2.4c0,0.3-0.3,0.7-0.4,1.1C74.4,198.6,72,198.4,69.4,198.3
		c-0.3,4.6-0.6,9-0.9,13.5c0,0,0,0,0,0C68.8,207.2,69.1,202.8,69.4,198.3z M73.9,180.3C73.9,180.3,73.9,180.3,73.9,180.3
		c3.2-0.3,6.2-0.7,9.1-1c0,0,0,0,0,0C80.1,179.7,77.1,180,73.9,180.3z M93.1,109.7c3.6-0.1,7-0.2,10.6-0.3c0-1.6-0.1-3-0.1-4.5
		c0-2.1-0.1-4.2-0.1-6.3c0-1-0.2-2,0.9-2.5c-0.4-3.2-0.6-6.3-1.2-9.4c0,0,0,0,0,0c0.6,3.1,0.7,6.2,1.2,9.4c-1.1,0.5-1,1.5-0.9,2.5
		c0.1,2.1,0.1,4.2,0.1,6.3c0,1.4,0.1,2.9,0.1,4.5C100.2,109.5,96.8,109.6,93.1,109.7c0.4,1.4,0.8,2.7,1.2,4c-1.3,1-3.5,1.7-5.9,1.9
		c0,0,0,0,0,0c2.4-0.2,4.5-0.9,5.9-1.9C93.9,112.4,93.5,111.2,93.1,109.7z M95.4,115.9L95.4,115.9c0.1,0.3,0.2,0.6,0.3,1
		c-0.1,0-0.2,0.1-0.3,0.1c0,0,0,0,0,0c0.1,0,0.2-0.1,0.3-0.1C95.6,116.5,95.5,116.2,95.4,115.9z M95.1,115.2c0,0.1,0,0.2,0,0.3
		c0,0-0.1,0-0.1,0c0,0,0,0,0,0c0,0,0.1,0,0.1,0C95.1,115.4,95.1,115.3,95.1,115.2C95.1,115.2,95.1,115.2,95.1,115.2z M92.4,166.8
		c1.2,3.9,2.3,7.8,3.5,11.8c0,0,0,0,0,0C94.7,174.6,93.6,170.7,92.4,166.8C92.4,166.8,92.4,166.8,92.4,166.8z M90.9,184.6
		C90.9,184.6,90.9,184.6,90.9,184.6c-1.3,0.3-2.5,0.6-3.8,0.9c0,0,0,0,0,0C88.4,185.2,89.6,184.9,90.9,184.6z M86.8,164.3
		C86.8,164.3,86.8,164.3,86.8,164.3c0.3,1.4,0.6,2.5,0.9,3.8c0,0,0,0,0,0C87.4,166.8,87.1,165.6,86.8,164.3z M86.9,164.1
		C86.9,164.1,86.9,164.1,86.9,164.1c1.5-0.3,3-0.5,4.5-0.8c0,0,0,0,0,0C89.9,163.6,88.4,163.8,86.9,164.1z M89,104.9
		c-2.2-0.1-4.3-0.3-6.5-0.4l0,0C84.7,104.6,86.8,104.8,89,104.9C89,104.9,89,104.9,89,104.9z M86.5,208.9
		C86.5,208.9,86.5,208.9,86.5,208.9c-0.3-2-0.5-3.9-0.7-5.9c0,0,0,0,0,0C86,205,86.2,206.9,86.5,208.9z M83.9,182.9
		C83.9,182.9,83.9,182.9,83.9,182.9c0.4,1,0.8,2,1.2,3.1c-0.4,0.2-0.6,0.3-1.1,0.6c0,0,0,0,0,0c0.5-0.2,0.8-0.4,1.1-0.6
		C84.7,184.9,84.3,183.9,83.9,182.9z M83.5,180.8C83.5,180.8,83.5,180.8,83.5,180.8c0.5,0,0.8,0,1.2,0c0,0,0,0,0,0
		C84.3,180.9,83.9,180.9,83.5,180.8z M82.8,133C82.8,133,82.8,133,82.8,133c-0.3-0.4-0.4-0.7-0.6-1c0,0,0,0,0,0
		C82.3,132.4,82.5,132.7,82.8,133z M92.5,166.6C92.5,166.6,92.5,166.6,92.5,166.6c5.4-1.5,10.6-3,15.9-4.5c0,0,0,0,0,0
		C103.1,163.6,97.9,165.1,92.5,166.6z M108.3,101.3c0.2,0,0.4,0,0.6,0c0.3,0.8,0.5,1.7,0.9,2.4c0.4,0.7,0.4,1.3,0,2
		C109.1,104.7,108.4,102.8,108.3,101.3z M115,184.8c0.6,1.8,1.1,3.4,1.7,5.2c0,0,0,0,0,0C116.1,188.2,115.6,186.6,115,184.8
		C115,184.8,115,184.8,115,184.8z M152.3,20.1C152.3,20.1,152.3,20.1,152.3,20.1c-2.1,0.8-4,1.6-6.1,2.4c0,0,0,0,0,0
		C148.3,21.6,150.2,20.9,152.3,20.1z M139.9,31.7c1.1,3.6,2.1,7,3.2,10.7c0,0,0,0,0,0C142,38.8,141,35.3,139.9,31.7
		C139.9,31.7,139.9,31.7,139.9,31.7z M144.3,47.9C144.3,47.9,144.3,47.9,144.3,47.9c-5.1,1.5-10,2.9-15.1,4.3c0,0,0,0,0,0
		C134.3,50.7,139.2,49.3,144.3,47.9z M127.4,43.5C127.4,43.5,127.4,43.5,127.4,43.5c-1.2,0.2-2.2,0.4-3.4,0.6c0,0,0,0,0,0
		C125.2,43.9,126.3,43.7,127.4,43.5z M130.5,59C130.5,59,130.5,59,130.5,59c-4.9,1-9.7,1.9-14.7,2.9c0,0,0,0,0,0
		C120.8,60.9,125.6,60,130.5,59z M117.4,73C117.4,73,117.4,73,117.4,73c-0.3-1.1-0.5-1.9-0.8-2.9c0,0,0,0,0,0
		C116.8,71.1,117.1,71.9,117.4,73z M113.4,54.1c0.1,0.4,0.2,0.7,0.3,1c0.4,0,0.8,0.1,1.3,0.1c0,0,0,0,0,0c-0.5,0-0.9-0.1-1.3-0.1
		c-1.4,0.5-1.6,0.4-1.7-0.7c0,0,0,0,0,0C112.4,54.3,112.9,54.2,113.4,54.1z M102.8,66.8c0.1,1.6,0.1,3.2,0.2,4.8c0,0,0,0,0,0
		C102.9,69.9,102.9,68.4,102.8,66.8C102.8,66.8,102.8,66.8,102.8,66.8z M108.6,79.6c3.1-0.6,6.3-1.3,9.5-2c0,0,0,0,0,0
		C114.8,78.3,111.7,78.9,108.6,79.6c-2.3,0.5-4.6,1.2-6.9,1.3c-3.5,0.3-7.1,0.2-10.9,0.3c0,0,0,0,0,0c3.8-0.1,7.3,0,10.9-0.3
		C103.9,80.7,106.2,80,108.6,79.6z M99.2,65.1c-0.1-0.6-0.2-1.3-0.2-1.9c-0.1-0.7-0.2-1.5-0.2-2.2c-0.2-0.6-0.3-1.3-0.5-1.9
		c-0.6-2.9-1.2-5.8-1.7-8.7c-0.1-0.3-0.2-0.6-0.2-0.6c0,0,0,0,0,0c0,0,0.1,0.3,0.2,0.6c0.6,2.9,1.2,5.8,1.7,8.7
		c0.1,0.6,0.3,1.3,0.5,1.9c0.5-0.1,1-0.3,1.8-0.4c0.1,1.6,0.2,3,0.3,4.5c0.2,0.5,0.3,1,0.5,1.5c0,0,0,0,0,0c-0.2-0.5-0.3-1-0.5-1.5
		c-0.3,0.1-0.7,0.1-1,0.2l-0.4,1.5c-2.7,0.1-5.3,0.1-8,0.2c0-0.1,0-0.1,0-0.2C94,66.2,96.5,65.7,99.2,65.1z M90.8,77.9
		C90.8,77.9,90.8,77.9,90.8,77.9c-0.6-0.1-1.2-0.2-2-0.3c0,0,0,0,0,0C89.6,77.7,90.2,77.8,90.8,77.9z M79.2,88.8
		C79.2,88.8,79.2,88.8,79.2,88.8c0,0.7,0,1.2,0,1.9c0,0,0,0,0,0C79.2,90,79.2,89.5,79.2,88.8z M77.4,101.3c0.3-1.9,0.6-3.7,0.9-5.6
		c3.7-0.1,7.2-0.1,10.9-0.2c0,0,0,0,0,0c-3.7,0.1-7.2,0.1-10.9,0.2C77.9,97.6,77.7,99.4,77.4,101.3c-3.1-0.1-6-0.9-9-1.3
		c0,0,0,0,0,0C71.4,100.4,74.3,101.3,77.4,101.3z M74.9,110.1c-3,0.1-6,0.2-9.1,0.2c0,0,0,0,0,0C68.9,110.2,72,110.2,74.9,110.1
		c0.2-1.7,0.3-3.2,0.5-4.8c-0.1-0.3-0.3-0.7-0.5-1.2h0c-0.1,0-0.1,0-0.2-0.1c0.1,0,0.1,0,0.2,0.1c0,0,0,0,0,0h0
		c0.2,0.4,0.4,0.9,0.5,1.2C75.2,106.9,75.1,108.4,74.9,110.1z M75.3,114.3c-0.3,1.8-0.5,3.5-0.8,5.4c0,0,0,0,0,0
		C74.8,117.7,75,116,75.3,114.3C75.3,114.3,75.3,114.3,75.3,114.3z M64.9,98.2l3,0.7c0,0,0,0,0,0L64.9,98.2
		C64.9,98.2,64.9,98.2,64.9,98.2z M56.9,111.4c2,0.3,3.8,0.5,5.7,0.8c0.1-0.7,0.2-1.2,0.3-1.8c0,0,0,0,0,0c-0.1,0.6-0.2,1.1-0.3,1.8
		C60.7,111.9,58.8,111.7,56.9,111.4c-0.6,1.6-1.1,3.1-1.8,4.8c0,0,0,0,0,0C55.7,114.5,56.3,113,56.9,111.4z M61.4,118.5
		C61.4,118.5,61.4,118.5,61.4,118.5c-0.1-0.6-0.2-1.2-0.3-1.6c0,0,0,0,0,0C61.2,117.4,61.3,118,61.4,118.5z M62.4,123
		C62.4,123,62.4,123,62.4,123c-3.8-1.1-7.8-1.8-11.5-2.9c0,0,0,0,0,0C54.6,121.1,58.5,121.8,62.4,123z M52.8,178.1
		c-0.4-3.5-0.7-6.8-1.1-10.3c1.6-0.3,3.3-0.4,5-0.4c1.7,0,3.4-0.1,5.1-0.2c0.3-0.3,0.6-0.6,0.7-0.8c1.4-0.2,2.7-0.3,4.1-0.5
		c-1.1-9.9-2.1-19.6-3.2-29.4c0.5-0.1,1-0.2,1.5-0.3c2-0.2,4-0.4,6-0.6c1.4-0.2,2.9-0.4,4.2-1.1c0.3-0.2,0.7-0.3,1.1-0.4
		c1.4-0.4,2.9-0.7,4.4-1.1c-0.6-3.2-1.2-6.2-1.8-9.3c0.3-0.3,0.5-0.5,0.8-0.8c-0.3-1.1-0.5-2.2-0.9-3.2c-0.3-0.6-0.9-1.2-1.4-1.7
		c0,0,0,0,0,0c0.5,0.5,1.1,1,1.4,1.7c0.4,1,0.6,2.1,0.9,3.2c-0.2,0.2-0.5,0.5-0.8,0.8c0.6,3.1,1.2,6.2,1.8,9.3
		c-1.5,0.4-3,0.7-4.4,1.1c-0.4,0.1-0.8,0.2-1.1,0.4c-1.3,0.8-2.7,0.9-4.2,1.1c-2,0.3-4,0.4-6,0.6c-0.5,0.1-1,0.2-1.5,0.3
		c1.1,9.8,2.1,19.5,3.2,29.4c-1.4,0.2-2.7,0.3-4.1,0.5c-0.2,0.2-0.4,0.5-0.7,0.8c-1.7,0.1-3.4,0.1-5.1,0.2c-1.7,0-3.4,0.1-5,0.4
		C52,171.3,52.4,174.6,52.8,178.1c-1.6,0.5-3.1,1.1-4.7,1.6c0.1,0.7,0.1,1.4,0.2,2.2c0,0,0,0,0,0c-0.1-0.8-0.1-1.4-0.2-2.2
		C49.7,179.1,51.2,178.6,52.8,178.1z M65.7,184.5C65.7,184.5,65.7,184.5,65.7,184.5c-0.4-1-0.8-2-1.3-3c0,0,0,0,0,0
		C64.9,182.5,65.3,183.4,65.7,184.5z M57.6,202.2c1.1-0.7,2.4-0.9,3.7-1.1C60,201.3,58.8,201.6,57.6,202.2c1.3,0.2,2.6,0.4,3.9,0.7
		c0,0.9-0.1,1.7-0.1,2.7c0,0,0,0,0,0c0-1,0.1-1.8,0.1-2.7C60.2,202.7,58.9,202.4,57.6,202.2z M55.8,198L55.8,198
		c-0.6-1-1-1.6-1.5-2.4c-1.8,0.1-3.7,0.1-5.9,0.2c0,0,0,0,0,0c2.1-0.1,4.1-0.1,5.9-0.2C54.8,196.4,55.2,197.1,55.8,198z M31.1,182.4
		c-0.5,0-1,0.1-1.6,0.2c-0.3,4.4-0.5,8.6-0.8,12.8c0,0,0,0,0,0c0.3-4.2,0.5-8.4,0.8-12.8C30.1,182.5,30.6,182.4,31.1,182.4
		c3.5,0.2,6.9,0.4,10.4,0.7c0.6,0,1.1,0.3,1.7,0.3c0.6,0.1,1.2,0.1,1.8,0.1c0-0.6,0-1,0-1.6c1,0,1.9-0.1,3-0.1c0,0,0,0,0,0
		c-1.1,0.1-2,0.1-3,0.1c0,0.6,0,1,0,1.6c-0.7,0-1.3,0-1.8-0.1c-0.6-0.1-1.1-0.3-1.7-0.3C38,182.9,34.6,182.6,31.1,182.4z
		 M31.8,195.9c0,0.1,0,0.2,0,0.3c-2.1,0-4.1,0.1-6.2,0.1c-0.4,0-0.9-0.2-1,0.6c0,0,0,0,0,0c0-0.8,0.6-0.6,1-0.6
		c2.1,0,4.1-0.1,6.2-0.1C31.8,196.1,31.8,196,31.8,195.9C31.8,195.9,31.8,195.9,31.8,195.9z M30,147.8c-2.6-1.2-5.1-2.3-7.7-3.4
		c0.4-1,0.8-2,1.2-3.2c0,0,0,0,0,0c-0.4,1.2-0.8,2.1-1.2,3.2C24.9,145.5,27.4,146.6,30,147.8z M30,133c-0.7,1.1-1.3,2.1-1.8,3.1
		c-2.5-0.9-4.9-1.8-7.3-2.6c2.4,0.9,4.8,1.7,7.3,2.6C28.8,135.2,29.4,134.2,30,133c0.9,0.1,1.7,0.3,2.5,0.4c0,0,0,0,0,0
		C31.7,133.3,30.9,133.2,30,133z M32.9,128.3L32.9,128.3c0-0.4,0-0.8,0-1.2c-2.1-1.2-4.3-2.4-6.6-3.6c2.2,1.2,4.4,2.4,6.6,3.6
		C32.9,127.6,32.9,127.9,32.9,128.3z M34.4,137.5c-0.5-0.3-1.1-0.5-1.7-0.7c0,0,0,0,0,0C33.3,137,33.8,137.3,34.4,137.5z
		 M36.2,114.2C36.2,114.2,36.2,114.2,36.2,114.2c0.1,0.1,0.2,0.1,0.4,0.2C36.5,114.3,36.3,114.2,36.2,114.2z M47.3,130.1
		c-0.3-0.2-0.5-0.6-0.4-1.2c0,0,0,0,0,0C46.8,129.5,47,129.9,47.3,130.1z M49.6,120l0.7,0.2h0l-1.1,4.4c-0.7,0-1.3,0-2,0.1
		c0,0,0,0,0,0c0.8,0,1.4-0.1,2-0.1l1.1-4.4h0L49.6,120z M49,130.8c0.3,0.1,0.6,0.3,1,0.4c-0.8,2.8-2.2,5.2-2.5,8.1c0,0,0,0,0,0
		c0.4-2.9,1.8-5.3,2.5-8.1C49.7,131.1,49.3,131,49,130.8z M42.8,116.3c2.6,0.9,5,1.7,7.5,2.6c0,0,0,0,0,0
		C47.9,118,45.4,117.2,42.8,116.3L42.8,116.3z M46.6,122.9l-2.4-0.6c0,0,0,0,0,0L46.6,122.9z M46.4,142c0.2-0.5,0.3-0.9,0.5-1.4
		c0,0,0,0,0,0C46.7,141.1,46.6,141.5,46.4,142c-1.4-0.2-2.7-0.7-4-1.2C43.7,141.3,45,141.8,46.4,142z M40.4,108.9
		C40.4,108.9,40.4,108.9,40.4,108.9c-0.5,2.1-0.9,4.1-1.4,6.2c1.3,0.5,2.4,0.9,3.6,1.3c-0.1,0.1-0.1,0.3-0.2,0.4
		c-0.5-0.2-1-0.4-1.5-0.6c0.5,0.2,1,0.4,1.5,0.6c0.1-0.1,0.1-0.3,0.2-0.4c-1.1-0.4-2.2-0.8-3.6-1.3C39.5,113,39.9,111,40.4,108.9z
		 M35.4,101.5C35.4,101.5,35.4,101.5,35.4,101.5c-0.1,0.7-0.3,1.3-0.3,1.8c0.1,0.2,0.3,0.3,0.5,0.4c-0.2-0.1-0.3-0.2-0.5-0.4
		C35.1,102.8,35.2,102.3,35.4,101.5z M33.7,107.1c0.4-0.8,1.6-1.3,2.4-1.9c0.2-0.1,0.4-0.2,0.6-0.4c-0.1-0.5-0.4-0.7-0.7-0.9
		c0.3,0.2,0.6,0.4,0.7,0.9c-0.2,0.1-0.4,0.2-0.6,0.4C35.2,105.8,34,106.3,33.7,107.1c-0.7,1.7-1.7,3.4-1.3,5.6c0,0,0,0,0,0
		C32,110.6,32.9,108.8,33.7,107.1z M35.5,113.9C35.5,113.9,35.5,113.9,35.5,113.9c-1.2,3.5-2.8,6.7-4.4,10.1c0,0,0,0,0,0
		C32.7,120.6,34.3,117.4,35.5,113.9z M30.9,115.3C30.9,115.3,30.9,115.3,30.9,115.3l-4.3-1.1l-1.7,7c0,0,0,0,0,0l1.7-7L30.9,115.3z
		 M25.4,109.5C25.4,109.5,25.4,109.5,25.4,109.5c-1.5-0.7-3.1-1.3-4.6-2C22.3,108.1,23.8,108.8,25.4,109.5z M21.1,119.7
		C21.1,119.7,21.1,119.7,21.1,119.7c-1.5,3.4-2.9,6.7-4.4,10.1c0.1,0,0.2,0.1,0.2,0.1c-0.1,0-0.2-0.1-0.2-0.1
		C18.2,126.4,19.6,123.1,21.1,119.7z M19.5,137.4c-0.1-0.1-0.2-0.1-0.3-0.2c0,0,0,0,0,0C19.3,137.3,19.4,137.4,19.5,137.4
		c-0.1,1.1-0.2,2.2-0.4,3.4c0,0,0,0,0,0C19.3,139.6,19.4,138.5,19.5,137.4z M18.6,130.6c0.2,0.1,0.4,0.2,0.6,0.2c0,0,0,0,0,0
		C19,130.8,18.8,130.7,18.6,130.6z M18.6,132.7c-0.5,0.4-0.9,0.7-1.3,0.9c0,0,0,0,0,0C17.7,133.3,18.1,133,18.6,132.7
		C18.6,132.7,18.6,132.7,18.6,132.7z M16.9,170.2c3.4,0.5,6.8,1,10.3,1.5c0.2-1.3,0.4-2.4,0.6-3.6c0.9-0.1,1.8-0.2,2.6-0.4
		c0.4-6.5,0.8-12.8,1.3-19.2c0,0,0,0,0,0c-0.4,6.3-0.8,12.7-1.3,19.2c-0.8,0.1-1.7,0.2-2.6,0.4c-0.2,1.2-0.4,2.3-0.6,3.6
		C23.8,171.2,20.3,170.7,16.9,170.2c-0.3,0.8-1.1,1.3-2.6,1.6c-0.5,3.5-1.1,7.1-1.6,10.7c0,0,0,0,0,0c0.6-3.6,1.1-7.2,1.6-10.7
		C15.8,171.5,16.7,171,16.9,170.2z M14.4,198.9C14.4,198.9,14.4,198.9,14.4,198.9c1.3,0.3,2.5,0.6,3.8,0.9l0,0
		C16.9,199.6,15.7,199.3,14.4,198.9z M0,206.3C0,206.3,0,206.3,0,206.3c0.4-1.1,0.8-2.2,1.1-3.4c0.3-0.9,0.5-1.7,0.8-2.7
		c-0.8-0.3-1.5-0.5-2.2-0.8c-1.8-0.6-3.6-1.3-5.4-1.9c-0.7-0.2-1.4-0.3-2-0.5c-0.8-0.3-1.1-0.6-0.9-1.4c0.2-0.9,0.5-1.7,0.7-2.6
		c0.1-0.3,0.2-0.5,0.4-0.8c0,0,0,0,0,0c-0.1,0.3-0.2,0.6-0.4,0.8l1.7,0.4c0.1,1.3,0.3,2.7,0.4,4.1c1.8,0.6,3.6,1.3,5.4,1.9
		c0.7,0.2,1.4,0.5,2.2,0.8c-0.3,0.9-0.5,1.8-0.8,2.7c1.2-0.1,2.4-0.2,3.7-0.2l-1.3,5.4C2.3,207.5,1.1,206.9,0,206.3z M1.4,219.1
		C1.4,219.1,1.4,219.1,1.4,219.1c-1.7-0.7-3.3-1.4-5-2.1c0,0,0,0,0,0C-1.9,217.7-0.3,218.4,1.4,219.1z M-6.5,209.6
		C-6.5,209.6-6.5,209.6-6.5,209.6c0.8-1.8,1.5-3.3,2.3-4.9c0,0,0,0,0,0C-4.9,206.2-5.6,207.8-6.5,209.6z M-4.5,218.8
		c-0.3,1.1-0.6,2.1-0.9,3.4c-2-0.6-3.9-1.1-5.7-1.7c0-0.9,0.6-1.1,1.3-1.1C-8.1,219.2-6.3,219-4.5,218.8z M-2.9,182.5
		c-0.6,3.3-1.5,6.5-2.3,9.8c0,0,0,0,0,0C-4.4,189-3.5,185.9-2.9,182.5l-11.6-2.8l0,0L-2.9,182.5z M-11.3,138.5
		c-0.7-0.5-1.4-0.9-2-1.4l0,0C-12.7,137.6-12.1,138-11.3,138.5c0.5-1.2,1-2.3,1.4-3.4c0,0,0,0,0,0
		C-10.3,136.2-10.8,137.3-11.3,138.5z M-0.5,182.8l0.5-2.2c4.2,0.6,8.3,1.3,12.6,1.9c0,0,0,0,0,0c-4.3-0.7-8.4-1.3-12.6-1.9
		L-0.5,182.8l-2-0.5c0,0,0,0,0,0L-0.5,182.8z M-1.7,174.7c0.6-1.4,0.9-2.7,1.6-3.8c0,0,0,0,0,0C-0.8,172-1.1,173.3-1.7,174.7
		C-1.7,174.7-1.7,174.7-1.7,174.7z M5.8,138L5.8,138c-0.5-0.3-0.9-0.6-1.4-0.9c0.4-0.1,0.8,0,1.1,0.1C5.2,137,4.9,137,4.4,137
		C4.9,137.3,5.4,137.6,5.8,138z M5.2,146.5c-0.2,0.8-0.3,1.6-0.5,2.6c0,0,0,0,0,0C4.9,148.1,5,147.4,5.2,146.5L5.2,146.5z
		 M9.9,126.4c1.3,0.7,2.6,1.4,4.1,2.2c0,0,0,0,0,0C12.5,127.9,11.2,127.2,9.9,126.4z M11.5,129.8c-1.6,2.4-3.1,4.6-4.7,6.9
		c-0.1,0-0.1-0.1-0.2-0.1c0.1,0,0.1,0.1,0.2,0.1C8.4,134.5,9.9,132.2,11.5,129.8C11.5,129.8,11.5,129.8,11.5,129.8z M10.4,113.1
		c-0.7,0-1.3-0.1-2-0.1c0,0,0,0,0,0C9.1,113,9.8,113,10.4,113.1c0.2,0,0.4,0,0.5,0C10.8,113.1,10.6,113.1,10.4,113.1z M9.8,126.2
		C9.8,126.2,9.8,126.2,9.8,126.2c-1.2-0.2-2.2-0.4-3.3-0.6c0,0,0,0,0,0C7.6,125.7,8.6,125.9,9.8,126.2z M14.3,143.6
		C14.3,143.6,14.3,143.6,14.3,143.6c-2.8-1.8-5.5-3.6-8.3-5.4c0,0,0,0,0,0C8.8,140,11.5,141.8,14.3,143.6z M7.3,142.4
		C7.3,142.4,7.3,142.4,7.3,142.4c1.7,0.3,3.3,0.6,5,0.9c0,0,0,0,0,0C10.6,143,9,142.7,7.3,142.4z M6.3,140.6
		c0.4,0.2,0.7,0.3,1.1,0.5c0,0,0,0,0,0C7,140.9,6.7,140.7,6.3,140.6z M5.8,209.4l5,1.2c-0.2,0.3-0.4,0.7-0.6,0.7
		c-1.8,0.3-3.7,0.6-5.5,0.8C5,211.3,5.4,210.4,5.8,209.4z M10,197.8c-0.6-0.1-0.7-0.6-0.6-1.1c-0.9,0-1.7-0.1-2.8-0.1c0,0,0,0,0,0
		c1.1,0,2,0.1,2.8,0.1c1.1-0.4,2.2-0.2,3.3,0c0.1,0.6,0.2,1.2,0.2,1.7c0.4,0.1,0.7,0.3,1.1,0.4c-0.4-0.1-0.7-0.3-1.1-0.4
		C12,198.2,11,198.1,10,197.8z M2.3,115.7c0.8,0.1,1.3,0,1.6-0.8c0.3-0.7,0.8-1.3,1.2-2c-0.5-0.2-0.9-0.3-1.3-0.5
		c0-0.3,0-0.6-0.1-1.1c1.9-0.1,3.6-0.2,5.4-0.2c-0.7-1.4-1.3-2.8-2-4.3c1.5-0.7,2.7-1.4,4-2c0.9-0.4,1.7-0.8,2.6-1.1
		c0.4,0.7,0.8,1.5,1.2,2.2c0.2-0.2,0.4-0.5,0.6-0.7c0,0,0,0,0,0c-0.2,0.2-0.4,0.5-0.6,0.7c-0.8,1.8-1.6,3.5-2.4,5.3
		c-1.2,0-2.4,0-3.5,0c-1.8,0.1-3.6,0.2-5.4,0.2c0,0.5,0,0.8,0.1,1.1c0.5,0.2,0.8,0.3,1.3,0.5c-0.4,0.7-0.9,1.3-1.2,2
		C3.5,115.7,3,115.8,2.3,115.7z M-2.3,132.6c2.2,1.4,4.2,2.7,6.4,4.1l0,0C1.9,135.4-0.1,134-2.3,132.6
		C-2.3,132.7-2.3,132.7-2.3,132.6z M0.4,146.2c-0.7-0.4-1.4-0.8-1.8-1c0,0,0,0,0,0C-1,145.4-0.3,145.8,0.4,146.2z M0.4,146.5
		C0.4,146.5,0.4,146.5,0.4,146.5c-1.8,2.7-3.6,5.3-5.5,8.2c2.8,1.9,5.5,3.7,8.2,5.5c-0.8,3.4-2.3,6.7-2.9,10.3l0,0
		c0.6-3.6,2.1-6.8,2.9-10.3c-2.8-1.9-5.5-3.7-8.2-5.5C-3.2,151.8-1.4,149.2,0.4,146.5z M-8,142.9c1.6,0.4,3,1.4,4.6,1.9
		C-5.1,144.2-6.5,143.3-8,142.9z M-5.2,131.2c-0.6-0.1-1.2-0.2-1.8-0.2c0.5,0.4,0.9,0.7,1.5,1.1c-1.4,2.5-2.7,5-4.1,7.5
		c0.7,0.3,1.3,0.6,1.9,0.9c0,0,0,0,0,0c-0.7-0.3-1.3-0.6-1.9-0.9c1.4-2.5,2.7-5,4.1-7.5c-0.6-0.4-1-0.8-1.5-1.1
		C-6.4,131.1-5.8,131.1-5.2,131.2z M-11.4,130.8c0.3-1.4,1.6-2.6,0.9-4.2c0.8-1.1,1.5-2.1,1.6-3.5c0,0,0,0,0,0
		c-0.1,1.4-0.7,2.4-1.6,3.5C-9.8,128.2-11,129.4-11.4,130.8c-0.3,1.1-0.7,2.2-1.1,3.3c0,0,0,0,0,0C-12,133-11.6,131.9-11.4,130.8z
		 M-12.6,134.2c-2-0.7-3.9-1.4-5.9-2.1l-0.5,2.2c0,0,0,0,0,0l0.5-2.2C-16.6,132.8-14.6,133.5-12.6,134.2L-12.6,134.2z M-22.5,136.5
		c0.6,0.3,1.2,0.5,2,0.8l0,0C-21.3,137.1-21.8,136.8-22.5,136.5c-0.3,0.6-0.6,1-0.9,1.6c-1.4,0.2-2.9,0.1-4.4-0.2
		c-0.5,0-1.1,0-1.8,0l0.3-1.1c0.6,0.2,1.5,0,1.5,1.1c1.5,0.2,3,0.4,4.4,0.2C-23,137.6-22.8,137.1-22.5,136.5z M-23,142.3
		c0.4,0.4,0.8,0.7,1.4,1.2c1.8-2.6,3.4-5.2,5.2-7.8c0,0,0,0,0,0c-1.8,2.7-3.5,5.2-5.2,7.8C-22.2,143-22.6,142.6-23,142.3
		C-23,142.3-23,142.3-23,142.3z M-21.1,143.9c2.1,1.4,4.2,2.9,6.3,4.3c0,0,0,0.1-0.1,0.3c-2.4-1.4-4.9-2.5-7.2-4
		C-22,143.8-21.6,143.5-21.1,143.9z M-18.1,126.3C-18.1,126.3-18.1,126.3-18.1,126.3c-6.4-2.9-12.8-5.7-19.2-8.5l0,0
		C-30.8,120.7-24.5,123.5-18.1,126.3z M-41.9,109.1c1.7,1.7,4.2,1.2,6.2,2.3v0C-37.7,110.4-40.2,110.8-41.9,109.1
		c-1.7-0.3-3.5-0.6-5.5-0.9l0,0C-45.5,108.6-43.6,108.8-41.9,109.1z M-44.7,97c-1.5-1-3.3-0.8-4.7-1.6c0,0,0,0,0,0
		C-48,96.1-46.2,96-44.7,97L-44.7,97z M-48.3,85.4C-48.3,85.4-48.3,85.4-48.3,85.4c0.8,0.3,1.6,0.7,2.5,1c0,0,0,0,0,0
		C-46.7,86-47.4,85.7-48.3,85.4z M-53.5,74.8C-53.5,74.8-53.5,74.8-53.5,74.8c2.7,1.2,5.3,2.3,8,3.5c0,0,0,0,0,0
		C-48.2,77.1-50.8,76-53.5,74.8z M-76.9,100.3c-0.6-0.2-1.1-0.3-1.7-0.5c0.4-1.8,1-3.3,2-4.9c0.8,0.6,1.6,1,2.4,1.6
		C-75.2,97.8-76,99-76.9,100.3z M-65.9,173.7c-2.6-1.7-5-3.3-7.5-5c0.6-1.1,1.1-2.2,1.8-3.4c-3-1.7-5.9-3.3-9-4.9
		c1.1-2.1,2.4-3.9,3.7-5.8c2.8,1.8,5.5,3.6,8.1,5.5c-0.6,1.3-1.2,2.4-1.8,3.7c3,1.3,5.8,2.5,8.8,3.9
		C-63.2,169.7-64.6,171.7-65.9,173.7z M-51.7,170.4c-3.1-0.9-5.3-2.7-7.8-4.4c0.2-0.7,0.3-1.5,0.7-2c1.2-2.1,2.4-4.2,3.6-6.2
		c1.3-2,2.7-4,4-6c0.6-0.8,1.1-1.6,1.8-2.6c-4-2.7-7.8-5.2-11.6-7.8c0.7-1.7,1.4-3.2,2.1-4.9c-1.5-0.9-2.8-1.7-4.2-2.5h0
		c0.6-1.4,2.2-3.7,3-4.3c1.8,1.2,3.7,2.5,5.5,3.7c0,0.4,0,0.7,0,1c1.4,0.7,2.8,1.4,4.3,2.1c-0.3,0.9-0.5,1.8-0.8,2.7
		c-0.5,1.4-0.5,1.5,0.8,2.2c1.4,0.8,2.8,1.6,4.4,2.5c-1.1,1.7-2.2,3.4-3.3,5.1c2.5,1.7,5,3.4,7.6,5.2
		C-44.5,159.9-48.1,165.2-51.7,170.4z M-42.5,139.9c-0.1-1,0.5-1.7,1-2.5c1-1.5,2-3,3-4.5c0.1-0.2,0.2-0.5,0.3-0.7
		c-1.7-1.1-3.3-2.2-4.9-3.4c-2.1-1.5-4.2-3-6.4-4.4c-0.3-0.2-0.6-0.3-0.9-0.5c-0.7-0.4-1.4-0.8-2.3-1.3c0.4-0.7,0.7-1.3,1.1-1.8
		c0.7-1.8,1.5-3.6,2.2-5.5c0.3-0.8,0.6-1.5,1-2.4c-1.4-0.6-2.8-1.2-4.1-1.8c-1.8-0.8-3.7-1.6-5.6-2.4c-0.2-0.1-0.4-0.1-0.6-0.1
		c-0.4,0.9-0.7,1.9-1.2,3c1.1,1.2,2.8,1.5,4.2,2.7c-0.6,1.2-1.3,2.4-2,3.7c-0.4,0.8-0.8,1.6-1.2,2.5c1.1,0.5,2.2,1,3.4,1.6
		c-0.5,1.2-1.3,2.2-2,3.1c-0.9,1.4-1.8,2.8-2.7,4.2c-1.2-0.2-1.9-1.1-2.7-1.7c-0.9-0.5-1.7-1-2.6-1.5c-1-0.7-2-1.4-3.1-2.1
		c0.8-1.2,1.6-2.3,2.4-3.5c1-1.6,2-3.1,3.1-4.8c-1.6-1.2-3.2-2.3-4.7-3.4c-1.1-0.7-2.3-1.4-3.6-2.1c0.5-0.8,1-1.4,1.5-2.1
		c0.7,0.1,1.4,0.2,2,0.3c-0.3-0.4-0.6-0.9-1-1.5c0.6-1.6,2-2.9,2.9-4.8c-1.6-1.1-3.1-2.1-4.8-3.3c0.4-1.2,0.8-2.6,1.2-3.8
		c-0.9-0.5-1.6-0.9-2.6-1.4c1.2-1.8,2.2-3.4,3.4-5.2c0.8,0.6,1.5,1.1,2.3,1.6c-0.4,0.9-0.8,1.8-1.3,2.9c0.9,0.4,1.8,0.8,2.6,1.2
		c0.2,0,0.4,0,0.6,0.1c0.3-0.4,0.6-0.8,0.9-1.2c0.1-0.2,0.2-0.4,0.4-0.9c0.6,0.4,1.1,0.8,1.6,1.1l0,0c0.5,0.2,1,0.5,1.5,0.7
		c3.6,1.2,7.2,2.4,11,3.7c-1.2,3.6-2.4,7.1-3.6,10.7c3.6,1.2,7.2,2.5,11,3.8c-0.9,2.7-1.8,5.4-2.7,8.2c5.5,3.2,11.1,6,16.5,9.2
		c-1.3,2.4-2.5,4.6-3.7,6.7c-0.2,0.4-0.6,0.8-0.1,1.3c-0.9,0.6-0.6,1.4,0.7,2.3c-1.4,2.1-2.8,4.2-4.2,6.4c-0.4-0.3-0.7-0.5-1.1-0.8
		c0.3-0.8,0.6-1.4,0.9-2.2C-37.9,142-40.2,141-42.5,139.9z M-32.2,175c-1.8-1-3.6-2-5.4-3.1c-1.3-0.8-1.4-1-0.5-2.3
		c0.2-0.3,0.3-0.5,0.5-0.8c1.4-2.6,3-5.3,4.3-8c1.3-2.7,2.4-5.5,3.7-8.5c-2.4-1.3-4.7-2.6-7.2-4c0.5-0.8,0.9-1.5,1.4-2.2
		c2.8,1.8,5.4,3.6,8.3,5.5c0.9-1.3,1.8-2.6,2.8-3.9c2.1,0.9,4.1,1.8,6.3,2.7c-0.7,2-1.3,3.8-1.8,5.6c-0.2,0.6-0.1,1.4-0.2,2
		c-0.2,0.8-0.6,1.6-0.9,2.3c-1.4,3.3-2.9,6.5-4.3,9.8c-0.1,0.3-0.3,0.5-0.4,0.8c-0.4,0-0.7,0-1.1,0c-0.9,1.7-1.9,3.4-2.9,5.2
		C-30.6,175.8-31.4,175.4-32.2,175z M-28.7,181.8c-0.5-0.2-0.8-0.2-1.3-0.4c0.4-1.1,0.8-2.1,1.2-3.3c0.5,0.1,0.8,0.2,1.3,0.2
		C-27.9,179.6-28.3,180.6-28.7,181.8z M-27.2,178.3c0.1-0.5,0.2-1,0.3-1.6c-0.2-0.2-0.4-0.4-0.8-0.8c0.6-1.4,1.3-2.9,2-4.6
		c3.4,1.4,6.6,2.8,9.9,4.3c0.7-0.7,0.9-1.7,1.3-2.5c0.4-0.7,0.3-1.9,1.8-2.1h0c-0.6,1.9-1.1,3.5-1.7,5.2c-0.3,0.9-0.9,1.9-0.1,2.8
		c-0.5,0.5-1,0.8-1.3,1.2c-0.3,0.5-0.4,1-0.7,1.7C-20.1,180.7-23.6,179.5-27.2,178.3z M-15.1,182.2L-15.1,182.2
		c-0.4,0.1-0.8,0.1-1.1,0.2C-15.9,182.3-15.5,182.3-15.1,182.2z M-22,190.2C-22,190.2-22,190.2-22,190.2c0.9,0.2,1.7,0.3,2.7,0.5
		c0,0,0,0,0,0C-20.3,190.5-21.1,190.3-22,190.2z M-14.6,204.8c-0.5,0-1,0.1-1.8,0.1c0.7-1.7,1.4-3.3,2-4.7c-2.1-1-4-1.9-5.9-2.8
		c2.1-0.1,4.3-0.2,6.4-0.3c1.1,0,2.3,0,3.4-0.1c0.3,0,0.7,0,1.3,0c-0.9,2.6-1.7,5.1-2.5,7.6C-12.7,204.7-13.7,204.7-14.6,204.8z
		 M-4.9,233.9C-4.9,233.9-4.9,233.9-4.9,233.9c1.2-0.1,2.1-0.1,3.2-0.2c0,0,0,0,0,0C-2.8,233.8-3.7,233.8-4.9,233.9z M-2.4,232.4
		l0.6-2.6c0,0,0,0,0,0L-2.4,232.4L-2.4,232.4z M-0.3,224.3l-1,3.9c-2.3,1.3-4.1,0.4-5.8-0.8c-1.3-0.5-2.7-1-4-1.6
		c-0.6-0.2-1.2-0.5-1.9-0.8c-1.2,2.7-2.4,5.3-3.7,8.2c0,0,0,0,0,0c1.3-2.9,2.5-5.5,3.7-8.2c0.7,0.3,1.3,0.6,1.9,0.8
		c1.3,0.5,2.7,1,4,1.6c0.5-1.6,1-3.1,1.6-4.7c0.4,0,0.7,0,0.9,0.1C-3.2,223.2-1.8,223.7-0.3,224.3c1.4,0.4,2.8,0.8,4.1,1.2
		c0.6,0.2,1.2,0.3,1.8,0.4c0.5-1.3,0.9-2.4,1.4-3.7l5.4,1.3l1.7-6.9c2.1,0.7,4.2,1.4,6.2,2.1c0.7-1.9,1.3-3.6,1.8-5.3
		c0.4-1.1,0.7-2.2,1.1-3.5c1.6,0.3,3.2,0.6,4.8,0.8c0.5-1.9,1-3.9,1.5-5.8c0.2-0.6,0.3-1.3,0.5-2.1l5,1.2l0.9-3.7
		c0.1-0.4,0.1-0.9,0.2-1.3c0,0,0,0,0,0c1.2-0.1,2.4-0.2,3.6-0.2c0,0.1,0,0.2,0.1,0.4c-1.3,0.4-2.6,0.8-3.8,1.2l-0.9,3.7l-5-1.2
		c-0.2,0.8-0.3,1.4-0.5,2.1c-0.5,1.9-1,3.9-1.5,5.8c-0.2,1.3-0.4,2.5-0.7,4l6,1.5c-0.1,0.6-0.1,1.3-0.2,1.9c0,0,0,0,0,0
		c-2.3,0.7-4.7,1.4-7.3,2.1c0.2-1.2,0.4-2,0.6-2.9c0.2-0.9,0.4-1.8,0.7-2.7l-5-1.2c-0.6,1.7-1.2,3.4-1.8,5.3
		c-2.1-0.7-4.1-1.4-6.2-2.1l-1.7,6.9L7,222.2c-0.5,1.3-0.9,2.4-1.4,3.7c-0.6-0.2-1.2-0.3-1.8-0.4C2.4,225.1,1,224.7-0.3,224.3z
		 M10.6,243.5c-0.1-0.4-0.2-0.9-0.3-1.2c0,0,0,0,0,0C10.4,242.6,10.5,243.1,10.6,243.5C10.6,243.5,10.6,243.5,10.6,243.5z
		 M10.1,242.2c-0.1-0.8-0.3-1.4-0.4-2.1c-0.6-0.3-1.2-0.6-1.9-0.9c-0.9-0.4-1.9-0.7-3-1.1c0,1.9,0.6,3.5,0.9,5.4c0,0,0,0,0,0
		c-0.3-1.9-0.9-3.5-0.9-5.4c1.2,0.4,2.1,0.8,3,1.1c0.6,0.3,1.3,0.6,1.9,0.9h0c1,0.2,2,0.3,3.1,0.5c1.2-3.5,2.4-7.1,3.7-10.8
		c-1.8-0.7-3.5-1.3-5.2-1.9c0.1-0.3,0.3-0.6,0.4-0.9l0.8-3.3l0,0l-0.8,3.3c2.4-0.3,4.8-0.7,7.2-1.6c-0.1,3.3-1.2,6.5-1.2,9.8
		c1.4,0.2,2.8,0.5,4.2,0.7l0,0c-0.1,0.5-0.2,1-0.2,1.5c0,0.5,0,0.9-0.1,1.5C18,239.9,14.2,241.2,10.1,242.2z M24.3,255.6
		c-1-4.8-1.9-9.4-2.8-14.1c0,0,0,0,0,0C22.4,246.1,23.3,250.8,24.3,255.6C24.3,255.6,24.3,255.6,24.3,255.6z M34.3,252.6
		c0.2-0.1,0.4-0.2,0.6-0.2C34.7,252.5,34.5,252.6,34.3,252.6c-1.1,0.4-2.2,0.7-3.3,1c0,0,0,0,0,0C32.1,253.3,33.2,253,34.3,252.6z
		 M31.5,228.2c-2.4-0.3-4.6-1.1-7-1.6l0.8-3.1c0,0,0,0,0,0l-0.8,3.1C27,227.1,29.1,227.9,31.5,228.2
		C31.5,228.2,31.5,228.2,31.5,228.2z M60.4,211.4c-0.2,1.4-0.5,2.8-0.7,4.2c-1.8-0.3-3.5-0.5-5.1-0.7c-0.2,3.2-0.4,6.3-0.6,9.5
		c1.7,0.2,3.2,0.4,4.7,0.5l-4.8,1.8c0-0.7,0-1.5,0-2.3c-2.8-0.2-5.6-0.4-8.4-0.6l-0.6,2.4c-4.2-0.7-8.3-1.3-12.5-2c0,0,0,0,0,0
		c4.3,0.7,8.3,1.3,12.5,2l0.6-2.4c0.1-0.9,0.1-1.9,0.2-2.8c0.4-2.3,0.8-4.6,1.2-7c2.7-0.1,5.2,0.3,7.7,0.9c1.6,0.2,3.3,0.5,5.1,0.7
		C60,214.2,60.2,212.9,60.4,211.4c2.7-0.2,5.3,0.3,8,0.4c0,0,0,0,0,0C65.8,211.7,63.1,211.3,60.4,211.4z M78.5,225.8
		c-3.8,0.5-7.3-0.5-10.8-0.2c-0.5,4.4-0.8,8.8-1,13.2l0,0c0.1-4.4,0.4-8.8,1-13.2C71.2,225.3,74.7,226.2,78.5,225.8
		c0.4,0.1,1.1,0.4,1.7,0.4c0.3,0,0.5,0.1,0.6,0.2c-0.2-0.1-0.4-0.2-0.6-0.2C79.6,226.1,78.9,225.9,78.5,225.8z M106.1,265.9
		c-0.4-0.8-0.8-1.5-1.2-2.3c-0.5,0.1-0.8,0.2-1.2,0.4c-3.5,1.7-7,3.5-10.6,5.2c-0.5,0.2-0.9,0.4-1.4,0.6c-1.1,0.6-2.1,1.1-3.3,1.8
		c0,0,0,0,0,0c1.2-0.6,2.3-1.2,3.3-1.8c-1.6-2.6-3.2-5.2-4.8-7.7c-1-1.7-2-3.3-3.1-5c-0.8,0.4-1.5,0.7-2.1,1c-0.5-1-1-1.9-1.6-3
		c5.5-2.7,11-5.4,16.6-8.2c-1.4-2.8-2.7-5.6-4.1-8.4c0.2,0,0.3,0,0.5-0.1c0,0,0,0,0,0c1.7-0.1,3.5-0.3,5.2-0.4
		c2.1-0.2,4.2-0.3,6.3-0.5c0.6,0,1.1,0,1.9-0.1c0-4.8-0.2-9.4-0.3-14.1c0,0,0,0,0,0c0.1,4.7,0.3,9.3,0.3,14.1
		c-0.8,0-1.3,0.1-1.9,0.1c-1.1,2.5-2.1,5.1-3.2,7.6c-0.2,0.5-0.3,1-0.5,1.5c0,0,0,0,0,0c-0.2,0.4-0.4,0.8-0.6,1.2
		c2.4,2.2,3.6,5,5.3,7.6c1.3,2,2.5,4.1,3.7,6.1c0.4,0.7,0.8,1.3,1.2,2.1C109,264.4,107.9,265.7,106.1,265.9z M106,206.9
		c-0.1,0.6-0.1,1.2-0.2,1.9c-1.4,0.1-2.8,0.1-4.1,0.2c0.2,2.3,0.3,4.4,0.4,6.4c0,0,0,0,0,0c-0.1-2.1-0.3-4.1-0.4-6.4
		c1.4-0.1,2.7-0.1,4.1-0.2C105.9,208.1,105.9,207.4,106,206.9c1.7-0.8,3.2-1.5,4.9-2.3c0,0,0,0,0,0
		C109.2,205.4,107.7,206.1,106,206.9z M110.2,167.8C110.1,167.8,110.1,167.8,110.2,167.8c1.6-0.6,3.1-1.2,4.7-1.8c0,0,0,0,0,0
		C113.2,166.6,111.8,167.2,110.2,167.8z M111.5,206C111.5,206,111.5,206,111.5,206c1.5-0.1,3.1-0.2,4.8-0.4c0,0,0,0,0,0
		C114.6,205.8,113,205.9,111.5,206z M116.4,205.6c-0.3-2.6-0.6-5-0.9-7.5c-0.2-2.5-0.7-4.9-0.7-7.4c1.7-0.2,3.3-0.3,4.8-0.5
		c1.5-0.2,3.1,0,4.6-0.8c-0.1-0.3-0.2-0.4-0.3-0.5c0.1,0.1,0.2,0.2,0.3,0.5c-1.5,0.7-3.1,0.5-4.6,0.8c-1.5,0.2-3.1,0.3-4.8,0.5
		c0,2.5,0.5,4.9,0.7,7.4C115.8,200.5,116.1,203,116.4,205.6C116.4,205.6,116.4,205.6,116.4,205.6z M121.8,205.2
		c0,0.1-0.1,0.1-0.1,0.2c-0.1-0.1-0.2-0.2-0.4-0.2c0,0,0,0,0,0c0.1,0.1,0.2,0.2,0.4,0.2C121.7,205.3,121.7,205.3,121.8,205.2
		C121.8,205.2,121.8,205.2,121.8,205.2z M120.8,205.4c0-0.1,0-0.2-0.1-0.3c0,0,0,0,0,0C120.7,205.2,120.7,205.3,120.8,205.4
		c-0.9,0.3-1.8,0.5-2.9,0.8c1.3,2.6,2.5,5.1,3.8,7.8c0,0,0,0,0,0c-1.3-2.7-2.5-5.2-3.8-7.8C118.9,205.9,119.8,205.7,120.8,205.4z
		 M119.7,235.5c-0.6-5-1.1-9.8-1.7-14.9c0,0,0,0,0,0C118.6,225.7,119.1,230.6,119.7,235.5C119.7,235.5,119.7,235.5,119.7,235.5z
		 M124.7,249.1c-0.2-0.3-0.3-0.6-0.5-0.8C124.4,248.5,124.6,248.8,124.7,249.1c2.5-4.4,4.9-8.8,7.2-13.2c0,0,0,0,0,0
		C129.7,240.3,127.2,244.6,124.7,249.1z M118.1,220.5C118.1,220.5,118.1,220.5,118.1,220.5c4.9-0.5,9.8-1,14.8-1.6c0,0,0,0,0,0
		C127.8,219.5,123,220,118.1,220.5z M133.5,188.1c2.6-1.3,5-2.4,7.5-3.6c0,0,0,0,0,0C138.5,185.6,136.1,186.8,133.5,188.1
		C133.5,188.1,133.5,188.1,133.5,188.1z M147.3,242.9c-2.4-3.2-4.7-6.4-7.1-9.6c-1.3-1.8-2.6-3.5-3.9-5.2c-0.6,1.1-1.2,2.3-1.8,3.4
		c-0.2-2-0.4-4-0.6-6c0.8,0.4,1.6,0.8,2.4,1.2c0.5-0.4,1-0.7,1.5-1.1c0.8-1.6,1.6-3.2,2.5-4.9c0.5-1,1.1-1.9,1.6-2.8
		c0.1-0.2,0.4-0.4,0.4-0.5c0.5,0.4,0.9,0.6,1.3,0.9c0.3-1.1,1.1-1.6,2.3-1.8c-0.9-1.9-0.2-3.4,1-4.9c0,0,0,0,0,0
		c-1.2,1.5-1.8,3-1,4.9c-1.2,0.2-2,0.8-2.3,1.8c-0.5,1.3-1,2.6-1.6,3.9c-0.2,0.4-0.5,0.8-0.9,1.1c-1.1,0.8-2.2,1.5-3.3,2.3
		c-0.5,0.4-1,0.7-1.5,1.1c0,0.4,0,0.9,0.1,1.3c1.3,1.7,2.6,3.5,3.9,5.2C142.6,236.5,144.9,239.7,147.3,242.9c0,0,0.1,0.1,0.2,0.1
		C147.4,243,147.3,243,147.3,242.9z M142.7,201.1C142.7,201.1,142.7,201.1,142.7,201.1c3.8-0.7,7.5-1.5,11.1-2.2c0,0,0,0,0,0
		C150.2,199.6,146.5,200.4,142.7,201.1z M148.9,232.2C148.9,232.2,148.9,232.2,148.9,232.2c5.2-1,10.4-2.1,15.5-3.1
		c-1.1-5.2-2.1-10.3-3.1-15.4c0,0,0,0,0,0c1,5.1,2,10.1,3.1,15.4C159.2,230.1,154.1,231.1,148.9,232.2z M158.7,239.1
		c-0.7-0.4-1.5-0.8-2.1-1.2c-0.2-0.1-0.3-0.2-0.5-0.2c0.1,0,0.3,0.1,0.5,0.2C157.2,238.3,157.9,238.7,158.7,239.1z M155.3,288.4
		C155.3,288.4,155.3,288.4,155.3,288.4c0.3-0.4,0.5-0.6,0.7-0.8c-1.2-1.4-2.2-2.6-3.3-3.9c-0.4-0.3-0.9-0.6-1.3-0.9c0,0,0,0,0,0l0,0
		c0,0,0,0,0,0c0,0,0,0,0,0c0,0,0,0,0,0c1.1-3.4,2.3-6.8,3.4-10.2c-1.2-0.6-2.5-1.2-3.8-1.9c0.9-2.1,1.8-4.2,2.6-6.2
		c-0.1-0.1-0.2-0.1-0.2-0.2c0,0,0,0,0,0c0.1,0.1,0.2,0.1,0.3,0.2c-0.9,2-1.7,4-2.6,6.2c1.3,0.6,2.6,1.3,3.8,1.9
		c0.2,0.2,0.5,0.4,0.5,0.6c0,0.4-0.1,0.8-0.2,1.2c-0.8,3.1-1.6,6.2-2.3,9.4c1.1,1.3,2.1,2.5,3.3,3.9
		C155.8,287.8,155.6,288.1,155.3,288.4z M164,246.1c-0.5-0.2-1.1-0.4-1.7-0.6c-0.4,0.7-0.8,1.5-1.1,2.2c-0.9,2.1-1.8,4.2-2.7,6.3
		c0,0.1-0.2,0.2-0.2,0.3c-0.2,0.6-0.4,1.3-0.7,2.2c-1.1-1.1-1.9-2.1-2.5-3.2c-0.5-0.7-1-1.3-1.4-2c0,0,0,0,0,0
		c1.1-2,2.2-4.1,3.4-6.1c0.3-0.6,0.7-1,1.1-1.6c0.6-1.3,1.2-2.6,1.8-3.8c0,0,0,0,0,0c-0.6,1.3-1.2,2.6-1.8,3.8
		c1.3,0.5,2.7,1.1,4.2,1.7c0.7-1.6,1.4-3.2,2.1-4.8c0.6,0.1,1,0.1,1.4,0.2C165.2,242.5,164.6,244.3,164,246.1
		c3.5,1.6,7.1,3.1,10.6,4.7c0.7,0.3,1.5,0.7,2.5,1.1c0,0,0,0,0,0c-1-0.5-1.7-0.8-2.5-1.1C171,249.2,167.5,247.7,164,246.1z
		 M181.5,316.6c-1.9-2-3.6-4.1-5.5-6.2c0,0,0,0,0,0C177.8,312.5,179.6,314.6,181.5,316.6c0.6,0.7,1.1,1.5,1.8,2
		C182.5,318.1,182.1,317.3,181.5,316.6z M193.8,298.9c-0.7-0.7-1.4-1.4-2.1-2.1c-0.3,0.2-0.7,0.3-1,0.5c-4.1,3.6-8.3,7.2-12.4,10.8
		c-0.8,0.7-1.6,1.3-2.5,2c0,0,0,0,0,0c0.9-0.7,1.7-1.4,2.5-2c4.1-3.6,8.3-7.2,12.4-10.8c0.3-0.2,0.7-0.4,1-0.5
		c1.1-0.2,1.7,0.6,2.3,1.2c0.8,0.8,1.4,1.7,2.1,2.5c0.4,0.5,0.9,1.1,1.3,1.6C196.2,301,195,300,193.8,298.9z M198.1,271.5
		C198.1,271.5,198.1,271.5,198.1,271.5c0.3-0.4,0.7-0.8,1.1-1.1C198.8,270.8,198.4,271.1,198.1,271.5z M194.4,247.8
		C194.4,247.8,194.4,247.8,194.4,247.8c0.9-2.6,1.7-5.1,2.6-7.7c0.3-1,0.6-2.1,0.9-3.1c-0.7-0.3-1.2-0.6-1.7-0.9l1.3-5.4
		c0.5,0.1,0.9,0.1,1.5,0.2c1.1-2.6,2.3-5.2,3.4-7.8c-0.9-0.8-1.8-1.6-2.7-2.4c-1.8-1.5-3.7-2.9-5.5-4.5c-1.1-0.9-1.1-2.3-1.3-3.6
		c0,0,0,0,0,0c0.2,1.3,0.2,2.7,1.3,3.6c1.8,1.5,3.7,3,5.5,4.5c0.9,0.8,1.8,1.6,2.7,2.4c0.1,0.2,0.3,0.4,0.2,0.6
		c-0.8,2.4-1.6,4.8-2.4,7.2c-0.7,1.9-1.3,3.9-2,6c0.6,0.2,1.2,0.4,1.7,0.6c0,0,0,0,0,0h0c-0.4,0.5-0.7,1-1.1,1.4
		c-0.3,0.3-0.5,0.7-0.9,1.1c4,3.8,7.9,7.6,11.8,11.3c0,0.1-0.1,0.2-0.1,0.3L194.4,247.8z M208,310.7c-0.2,0.2-0.4,0.5-0.6,0.8
		C207.6,311.2,207.7,310.9,208,310.7c0.6-0.5,1.2-1,1.8-1.5C209.2,309.7,208.6,310.2,208,310.7z M212,221.9
		c-1.2-3.1-2.4-6.2-3.7-9.3c0,0,0,0,0,0C209.6,215.7,210.8,218.7,212,221.9C212,221.9,212,221.9,212,221.9z M212.4,193.2
		c0.4,0.6,0.8,1.1,1.2,1.8c0,0,0,0,0,0C213.2,194.3,212.8,193.8,212.4,193.2C212.4,193.2,212.4,193.2,212.4,193.2z M213.9,287.9
		C213.9,287.9,213.9,287.9,213.9,287.9c-1.3-0.7-1.5-1.1-1.4-2.4c0.6,0.5,1.3,1,2,1.5c0.3-0.2,0.7-0.4,1.1-0.7l-0.2,1
		C214.8,287.5,214.3,287.7,213.9,287.9z M221.4,298.9c-0.3,0.3-0.6,0.6-1,0.9c-0.5,0.5-1,0.9-1.5,1.3c0.5-0.5,1-0.9,1.5-1.3
		C220.8,299.6,221.1,299.3,221.4,298.9z M228.8,305.3c3.1,2.5,6,4.8,9.1,7.2c0.5-0.5,0.9-0.9,1.5-1.4c-0.6,0.5-1,1-1.5,1.4
		C234.8,310.1,231.9,307.8,228.8,305.3c-4.6,4.6-8.9,9.3-13.5,14c0,0,0,0,0,0C219.8,314.6,224.2,309.9,228.8,305.3z M226,246
		c-0.1,0.1-0.4,0.2-0.6,0.3c-0.6,2.4-1.1,4.8-1.7,7.1c-0.1,0.5-0.4,0.9-0.5,1.3c-2.3-0.6-4.5-1.2-6.8-1.7c0,0,0,0,0,0
		c-0.1-0.1-0.1-0.1-0.2-0.2c0,0.1,0,0.2,0,0.2c0,0,0,0,0,0c0-0.1,0-0.2,0-0.2c0.1-0.2,0.2-0.3,0.3-0.5c0.2-0.1,0.3-0.3,0.5-0.4
		c2.1-2.2,4.2-4.3,6.3-6.5c0.7,0.3,1.4,0.5,2.2,0.8C225.6,246.2,225.9,246.2,226,246c0.6-1.6,1.1-3.3,1.6-4.9c0,0,0,0,0,0
		C227.1,242.8,226.6,244.4,226,246z M218.4,228.2c2.5-1.2,4.7-2.3,6.9-3.4c0,0,0,0,0,0C223.1,225.9,220.9,226.9,218.4,228.2
		L218.4,228.2C218.4,228.2,218.4,228.2,218.4,228.2z M227.3,241C227.3,241,227.3,241,227.3,241c0.1,0,0.1,0.1,0.2,0.1
		C227.4,241,227.4,241,227.3,241z M228.7,238.1c-3.3-3.2-6.5-6.2-9.8-9.4C222.2,231.9,225.4,234.9,228.7,238.1
		C228.7,238.1,228.7,238.1,228.7,238.1z M231.9,203.8c-2,1.8-4,3.5-6,5.3c0,0,0,0,0,0C227.9,207.3,230,205.6,231.9,203.8
		c1.9-1.7,4-3.3,5.8-5.3c0,0,0,0,0,0C235.9,200.5,233.9,202.1,231.9,203.8z M243.7,220.6L243.7,220.6c-2.2-3.6-4.4-7.2-6.5-10.8
		c0,0,0,0,0,0C239.3,213.4,241.5,217,243.7,220.6z M249.2,260.4c-6.1-4.9-12.1-9.7-18.2-14.5c4.9-6.2,9.8-12.3,14.6-18.4
		c-1.3-1.6-17-14.5-18.2-14.6c0,0,0,0,0,0c1.1,0.1,16.9,13,18.2,14.6c-4.8,6.1-9.7,12.1-14.6,18.4
		C237.1,250.7,243.1,255.5,249.2,260.4C249.2,260.4,249.2,260.4,249.2,260.4z M257.7,197.2c-1.3-2.5-2.4-4.8-3.6-7.2
		c-1.6,0.7-3.1,1.4-4.7,2.2c-0.8-1.2-1.5-2.3-2.4-3.6c-0.9,0.9-1.8,1.7-2.5,2.7c-0.3,0.3-0.1,1-0.2,1.7c-2,1.7-3.9,3.9-6.8,5.1
		c-2.8-5.6-5.5-11.1-8.2-16.6c-2.6,1.3-4.9,2.5-7.2,3.6c-1.8-3-3.5-5.8-5.2-8.7c-1,0.6-1.9,1.2-3,1.9c0,0,0,0,0,0c1-0.7,2-1.3,3-1.9
		c1.7,2.8,3.4,5.7,5.2,8.7c2.3-1.1,4.6-2.3,7.2-3.6c2.7,5.5,5.5,11,8.2,16.6c2.8-1.3,4.7-3.5,6.8-5.1c0.1-0.8-0.1-1.4,0.2-1.7
		c0.7-0.9,1.6-1.8,2.5-2.7c0.9,1.3,1.6,2.4,2.4,3.6c1.6-0.8,3.1-1.5,4.7-2.2C255.2,192.4,256.4,194.7,257.7,197.2
		c4.3-2.6,8.5-5.1,12.3-7.4c1,1.4,2,2.7,2.9,4c0,0,0,0,0,0c-1-1.3-1.9-2.6-2.9-4C266.2,192.1,262,194.6,257.7,197.2z M262.1,206.6
		c-0.1-0.5-0.2-0.9-0.3-1.5c0,0,0,0,0,0C261.9,205.7,262,206.1,262.1,206.6C262.1,206.6,262.1,206.6,262.1,206.6z M279.2,223.2
		c-5.5-4.3-10.8-8.6-16.2-13c0,0,0,0,0,0C268.4,214.6,273.7,219,279.2,223.2C279.2,223.2,279.2,223.2,279.2,223.2z M279.5,230.7
		c1.3,0.9,2.7,1.8,4.1,2.7c0,0,0,0,0,0C282.1,232.5,280.8,231.6,279.5,230.7C279.5,230.7,279.5,230.7,279.5,230.7
		C279.5,230.7,279.5,230.7,279.5,230.7c2.5-3.8,5.1-7.7,7.7-11.6c0,0,0,0,0,0C284.6,223,282,226.9,279.5,230.7z M290.5,220.7
		c1.7-3,3.3-6.1,5.1-9.3c0,0,0,0,0,0C293.8,214.6,292.1,217.7,290.5,220.7C290.5,220.7,290.5,220.7,290.5,220.7z M291.7,221.5
		c3.1,1.9,11.1,6.2,16.5,9.1C302.8,227.7,294.8,223.4,291.7,221.5z M305.5,196.6c2.3-2,4.4-3.8,6.6-5.7c0,0,0,0,0,0
		C309.9,192.8,307.8,194.6,305.5,196.6c4.8,5.4,9.4,10.8,14.1,16.2l0,0C315,207.4,310.3,202.1,305.5,196.6z M313.8,223.4
		c2.7-4,5.4-8,8-12c-0.1-0.1-0.1-0.1-0.2-0.2c0,0,0,0,0,0c0.1,0.1,0.1,0.1,0.2,0.2C319.2,215.4,316.5,219.4,313.8,223.4
		C313.8,223.4,313.8,223.4,313.8,223.4z M317.8,235.9C317.8,235.9,317.8,235.9,317.8,235.9c1.6-3.7,3.2-7.3,4.9-11c0,0,0,0,0,0
		C321.1,228.6,319.5,232.2,317.8,235.9z M325.5,218.2C325.5,218.2,325.5,218.2,325.5,218.2c-0.9-0.3-1.9-0.7-3-1
		c0.4-0.5,0.7-1,0.9-1.4c0,0,0,0,0,0c0.9,0.3,1.9,0.2,2.7,1C325.9,217.3,325.7,217.8,325.5,218.2z M326.4,210.4c1.1-2,2.1-4,3.2-5.9
		c-0.1-0.1-0.1-0.1-0.2-0.2c0,0,0,0,0,0c0.1,0.1,0.1,0.1,0.2,0.2C328.5,206.5,327.5,208.4,326.4,210.4c2,1.1,4,2.1,5.9,3.2
		C330.4,212.6,328.4,211.5,326.4,210.4z M330,146.6C330,146.6,330,146.6,330,146.6c3.3,3.2,6.6,6.3,9.9,9.5
		c-0.2,0.4-0.4,0.8-0.6,1.1c0,0,0,0,0,0c0.2-0.4,0.3-0.7,0.6-1.1C336.5,152.9,333.3,149.8,330,146.6z M334,196.3
		C334,196.3,334,196.3,334,196.3c0.4-0.6,0.7-1.1,1-1.6c2-3.9,4.1-7.9,6.1-11.8c1-2,1.9-4.2,2.8-6.2c0.4-0.9,0.3-1.5-0.4-2.2
		c-1.7-1.7-3.2-3.6-4.8-5.4c-0.2-0.2-0.4-0.4-0.7-0.7c0.3,0.3,0.5,0.5,0.7,0.7c1.6,1.8,3.1,3.7,4.8,5.4c0.7,0.7,0.8,1.3,0.4,2.2
		c-1,2.1-1.8,4.2-2.8,6.2c-2,4-4,7.9-6.1,11.8C334.7,195.2,334.4,195.7,334,196.3z M341.6,218.8c-1.9-1-3.8-2.1-5.6-3.1
		C337.8,216.7,339.7,217.8,341.6,218.8c1.6,0.8,3.2,1.8,4.8,2.7C344.8,220.6,343.2,219.6,341.6,218.8z M348.3,236
		C348.3,236,348.3,236,348.3,236c0.8,0.3,1.6,0.7,2.4,1C349.8,236.7,349.1,236.4,348.3,236z M351.8,237.5c-0.3-0.1-0.6-0.2-0.9-0.4
		C351.2,237.3,351.5,237.4,351.8,237.5C351.8,237.5,351.8,237.5,351.8,237.5z M348.2,236C348.2,236,348.2,236,348.2,236
		c1.3-2.9,2.5-5.6,3.8-8.5l0,0C350.7,230.3,349.4,233.1,348.2,236z M352.2,184.4c-1.3-1.4-2.5-2.7-3.8-4.1c0,0,0,0,0,0
		C349.7,181.7,350.8,183,352.2,184.4C352.2,184.4,352.2,184.4,352.2,184.4z M338,168.2C338,168.2,338,168.2,338,168.2
		c5.4-4.7,10.7-9.4,16.2-14.1c0,0,0,0,0,0C348.7,158.8,343.4,163.5,338,168.2z M402,89.7C402,89.7,402,89.7,402,89.7
		c-0.3,3.4-2.9,5.5-4.2,8.4c0,0,0,0,0,0C399,95.2,401.6,93.1,402,89.7z M398.9,99.1C398.9,99.1,398.9,99.1,398.9,99.1
		c-0.5,1.6-1,3.2-1.5,4.8c0,0,0,0,0,0C397.9,102.3,398.4,100.7,398.9,99.1z M388.6,127.4c-0.4-0.3-0.7-0.6-1.1-1
		C387.9,126.8,388.2,127.2,388.6,127.4z M392.6,143.9c-1.4-1.3-2.8-2.7-4.2-4c0,0-0.1-0.1-0.1-0.1c0,0,0.1,0.1,0.1,0.1
		C389.9,141.2,391.2,142.6,392.6,143.9z M381.7,121.9c2,1.6,3.8,3,5.7,4.6c-4.4,5.5-8.8,10.9-13.1,16.4c0,0,0,0,0,0
		c4.4-5.4,8.7-10.9,13.1-16.4C385.5,124.9,383.6,123.5,381.7,121.9C381.7,121.9,381.7,121.9,381.7,121.9z M376,148
		c0.6,0.5,1.3,1,1.9,1.5c0,0,0,0,0,0C377.2,148.9,376.6,148.5,376,148z M377.4,160.6c-0.1-0.1-0.2-0.2-0.3-0.3
		C377.2,160.5,377.3,160.6,377.4,160.6C377.4,160.6,377.4,160.6,377.4,160.6z M374.4,146.8c-0.6-0.5-1.3-1-1.9-1.5c0,0,0,0,0,0
		C373.1,145.8,373.7,146.3,374.4,146.8z M371.1,124.3c0.3-1.9-1.9-2.2-2.4-3.7c0.9-2.2,1.9-4.4,2.9-6.7c-0.8-0.7-1.6-1.5-2.5-2.3
		c0.6-0.8,1.2-1.7,1.8-2.5c2-2.5,4.1-4.8,5.9-7.4c0.9-1.2,1.4-2.7,2.1-4.3c0,0,0,0,0,0c-0.8,1.5-1.3,3.1-2.1,4.3
		c-1.9,2.5-4,4.9-5.9,7.4c-0.6,0.8-1.2,1.7-1.8,2.5c0.9,0.8,1.7,1.6,2.5,2.3v0c0.8,0.5,1.6,1.1,2.3,1.6c1.1,0.8,2.1,1.7,3.2,2.6
		c-1.4,2.4-2.7,4.8-4,7.1c-2.2,4.1-4.5,8.1-6.7,12.3c0.2,0.1,0.3,0.2,0.4,0.3c-0.2-0.1-0.3-0.2-0.4-0.3c2.3-4.1,4.5-8.2,6.7-12.3
		C372.4,124.9,371.7,124.6,371.1,124.3z M363.4,164.6C363.4,164.5,363.4,164.5,363.4,164.6c3-3.1,5.8-6,8.7-9c0,0,0,0,0,0
		C369.2,158.6,366.4,161.5,363.4,164.6z M369.9,184.8C369.9,184.8,369.9,184.8,369.9,184.8c-3-2.8-5.8-5.5-8.7-8.3c0,0,0,0,0,0
		C364.1,179.3,366.9,182,369.9,184.8z M368.3,141.7c0.5-0.6,0.9-1.1,1.4-1.8c-0.4-0.3-0.9-0.6-1.3-0.9c0.4,0.3,0.8,0.6,1.3,0.9
		C369.2,140.6,368.8,141.1,368.3,141.7c-1.1-0.9-2.2-1.8-3.3-2.6C366.1,140,367.2,140.8,368.3,141.7z M355.7,139.8
		c1.5-1.6,3-3,4.4-4.6c0,0,0,0,0,0C358.7,136.8,357.3,138.2,355.7,139.8C355.7,139.8,355.7,139.8,355.7,139.8z M356.1,140.1
		c3.8,3.8,7.6,7.4,11.5,11.1c0,0,0,0,0,0C363.7,147.5,359.9,143.9,356.1,140.1z M357.1,203.9C357.1,203.9,357.1,203.9,357.1,203.9
		c3.1-3.3,6.1-6.4,9.1-9.5c0.1,0.1,0.2,0.1,0.2,0.2c0,0,0,0,0,0c-0.1-0.1-0.2-0.1-0.2-0.2C363.2,197.5,360.2,200.6,357.1,203.9z
		 M379,219.1c-4.1-1.8-8.3-3.7-12.4-5.5c-0.7-0.3-1.5-0.6-2.2-0.9c0.7,0.3,1.5,0.6,2.2,0.9C370.7,215.5,374.9,217.3,379,219.1
		c0.9,0.4,1.8,0.8,2.8,1.3C380.8,219.9,379.9,219.5,379,219.1z M394.8,193.5c-6.2-5-12.3-9.9-18.5-14.9c2.9-3.6,5.7-7.1,8.6-10.7
		c0,0,0,0,0,0c-2.9,3.6-5.8,7.1-8.6,10.7C382.4,183.7,388.5,188.5,394.8,193.5C394.8,193.5,394.8,193.5,394.8,193.5z M388.5,171.3
		C388.5,171.3,388.5,171.3,388.5,171.3c2.4-2.5,4.7-4.9,7.2-7.4c0,0,0,0,0,0C393.2,166.4,390.9,168.8,388.5,171.3z M393.6,144.7
		c1.5,1.4,3,2.8,4.4,4.2C396.6,147.5,395.1,146.1,393.6,144.7z M404.7,132.7c-1.6-1-3.1-1.9-4.6-2.8c0.8-1.4,1.5-2.7,2.2-4
		c0.9-1.7,1.8-3.3,2.7-5c0.9-1.6,1.8-3.1,2.6-4.7c0.9-1.7,1.7-3.4,2.6-5.1c-1.2-0.6-2.4-1.1-3.7-1.7c-0.7-0.3-1.4-0.5-2.1-0.8
		c-1,2.2-1.9,4.3-2.8,6.4c-0.7,1.5-1.4,3.1-2.2,4.6c-1.6-0.5-3.3-0.9-4.8-1.9c2.6-3.3,5.2-6.5,7.7-9.6c0,0,0,0,0,0c0,0,0,0,0,0h0
		c2.8,0.7,5.6,1.4,8.4,2.1c0.5-0.7,1-1.4,1.7-2.2c2,1.3,4,2.7,6.2,4.1C413.8,118.9,409.3,125.7,404.7,132.7z"/>
	<path class="st0" d="M186.9-13C186.9-13,186.9-13,186.9-13C186.9-13,186.9-13,186.9-13L186.9-13z"/>
	<polygon class="st0" points="151.5,282.8 151.5,282.8 151.5,282.8 	"/>
	<polygon class="st0" points="220.1,53.5 220.1,53.5 220.1,53.5 	"/>
	<path class="st0" d="M377.3,254.2c-0.7,2-1.4,4.1-2.1,6.1v0c-0.6,1.7-1.1,3.4-1.7,5.2c1.6,0.6,3.1,1.1,4.6,1.7
		c1.5,0.5,3.1,1,4.6,1.5c2.4,0.8,4.9,1.7,7.3,2.6c2,0.7,4,1.5,6.1,2.2c1.4,0.5,2.9,0.7,4.5,1.1c3.1-9.1,6.1-18.2,9.2-27.3
		c-1.8-0.6-3.4-1.2-5-1.8c-1.4-0.5-2.8-0.9-4.1-1.3c-2.1-0.7-4.1-1.5-6.2-2.2c-3-1.1-6.1-2.1-9.1-3.1c-0.8-0.3-1.7-0.5-2.5-0.8
		c-0.4,1.3-0.9,2.6-1.3,4C380.1,245.9,378.7,250,377.3,254.2z"/>
	<path class="st0" d="M287.1-5.9c-2.2,3.5-4.6,6.6-6.6,10.1c1.3,0.8,2.5,1.6,3.7,2.3v0c1,0.5,2,0.9,3,1.4c1.8-3.2,3.5-6.3,5.3-9.4
		c0.2,0.2,0.4,0.4,0.6,0.5c1.9,0.8,3.9,1.7,5.8,2.5c0.3,0.1,0.6,0.1,0.9,0.2c1.2-2.5,2.3-5,3.5-7.5c0.3-0.7,0.5-1.5,0.8-2.2
		c1.1-2.6,2.3-5.1,3.4-7.7c1.1-2.4,2.2-4.9,3.2-7.4c0.1-0.2,0.1-0.3,0.1-0.6c-0.5-0.3-1.1-0.5-1.6-0.8c-1.9-0.8-3.7-1.6-5.6-2.4
		c-3.5-1.5-7.1-3.1-10.6-4.7c-1.1-0.5-2.2-1.1-3.3-1.6c-1.4-0.6-2.8-1.2-4.2-1.8c-1.4,3.2-2.8,6.3-4.2,9.3c-0.6-0.3-1.3-0.6-1.9-0.9
		c-0.9-0.4-1.7-0.9-2.6-1.4c-0.3,0.2-0.5,0.4-0.6,0.6c-0.8,1.4-1.6,2.8-2.3,4.3c-0.7,1.3-1.4,2.6-2.1,3.9c-0.4,0.7-0.8,1.4-1.2,2.2
		C276.2-13.2,281.7-9.7,287.1-5.9z"/>
	<path class="st0" d="M104.8,291.6c-0.7-1.2-0.8-1.2-1.9-0.5c-3.3,2-6.6,4-9.9,6c-1.8,1.1-3.6,2-5.6,3.2h0
		c3.4,5.8,6.7,11.3,10.1,16.7c2.3-1,16-9.5,16.5-10.2c-1.2-2.1-2.4-4.2-3.7-6.3C108.4,297.5,106.6,294.5,104.8,291.6z"/>
	<path class="st0" d="M-9.8,92.7c0.6-0.2,1.3-0.3,1.9-0.4c0.4-0.2,0.8-0.4,1.2-0.5c2.3-0.7,4.7-1.3,7.1-2c-0.1-0.4-0.1-0.8-0.2-1.2
		c-0.4-1.4-0.8-2.8-1.2-4.1c-0.4-1.5-0.8-2.9-1.2-4.4l0,0c-0.6-2.1-1.3-4.1-2-6.3c-2.5,0.7-4.8,1.4-7.2,2c0.1,0.9,0.2,1.9,0.4,2.8
		c0.5,2.5,1,5,1.5,7.5c0,0.2,0,0.4,0,0.8c-1.9,0.4-3.8,0.7-5.7,1.1c-0.7,0.2-1.4,0.4-2.1,0.7c0.6,1.9,1.1,3.8,1.7,5.7
		C-13.5,93.8-11.7,93.2-9.8,92.7z"/>
	<path class="st0" d="M62.4,96.1c-0.7,0.1-1.3,0.1-2,0.2c-0.6,0.1-1.1,0.3-1.7,0.5l3.6,0.9C62.3,97,62.4,96.5,62.4,96.1z"/>
	<path class="st0" d="M157.4,256.5c0.3-0.9,0.5-1.5,0.7-2.2c-1.1-0.3-2.1-0.7-3.2-1C155.5,254.4,156.3,255.4,157.4,256.5z"/>
</g>
</svg>
