<svg width="1440" height="347" viewBox="0 0 1440 347" fill="none" xmlns="http://www.w3.org/2000/svg">
<path d="M354.761 157.996C364.853 159.949 374.652 162.753 383.813 167.34C390.668 170.773 397.167 174.723 402.905 179.751C403.703 180.451 404.706 180.936 405.614 181.52C407.033 182.239 408.39 183.118 409.884 183.641C412.729 184.639 415.707 185.296 418.529 186.343C423.678 188.254 428.799 190.274 432.526 194.463C432.798 195.364 433.069 196.264 433.34 197.165C432.681 196.887 431.904 196.738 431.38 196.308C427.067 192.776 422.584 189.563 416.818 188.536C416.127 188.283 415.437 188.03 414.746 187.777C414.685 187.971 414.625 188.165 414.564 188.359C415.284 188.451 416.003 188.542 416.723 188.634C417.493 189.145 418.214 189.748 419.041 190.152C424.54 192.835 429.505 196.165 433.417 200.806C433.701 202.316 433.983 203.825 434.266 205.334L425.314 196.455C423.699 195.305 422.082 194.157 420.465 193.008C418.661 191.888 417.135 190.133 414.43 190.447C416.582 193.007 418.546 195.343 420.51 197.679C420.787 197.479 421.065 197.279 421.343 197.078C420.376 195.925 419.41 194.771 418.245 193.38C419.144 193.484 419.548 193.53 419.951 193.577C421.449 194.775 422.946 195.974 424.444 197.173C428.826 201.311 432.53 205.913 435.033 211.34C435.303 212.423 435.573 213.506 435.842 214.59C435.059 213.563 434.144 212.605 433.515 211.499C430.921 206.933 428.137 202.522 423.823 199.208C423.608 199.076 423.429 198.908 423.287 198.704C422.867 198.526 422.447 198.349 422.027 198.17C422.141 198.538 422.256 198.905 422.371 199.272L423.13 200.164C426.163 204.674 429.371 209.087 432.162 213.731C433.774 216.414 434.712 219.468 435.953 222.355C436.256 228.757 436.53 235.16 436.876 241.559C437.005 243.944 437.475 246.32 437.496 248.702C437.691 271.384 431.078 291.892 416.346 309.879C408.457 319.512 398.957 327.256 388.066 333.604C380.776 337.852 372.885 340.728 364.824 342.989C357.878 344.938 350.666 346.188 343.294 346.017C337.307 345.878 331.288 346.303 325.331 345.867C320.972 345.548 316.529 344.675 312.412 343.273C305.507 340.92 298.374 339.059 291.969 335.438C284.646 331.299 277.25 327.296 271.518 321.074C270.644 320.124 269.402 319.485 268.329 318.702C267.52 317.665 266.782 316.568 265.893 315.599C244.581 292.386 236.269 265.549 241.499 234.992C247.727 198.596 277.801 167.91 315.278 159.592C318.235 158.936 321.198 158.305 324.159 157.662C315.888 157.368 307.757 156.555 299.52 157.853C289.31 159.462 279.209 161.304 269.455 164.603C248.933 171.546 230.815 182.036 217.268 198.683C201.439 218.135 196.495 239.782 204.732 263.511C209.518 277.298 218.485 288.459 229.9 297.9C231.992 299.629 233.912 301.549 235.912 303.381C221.158 299.734 207 294.646 193.741 287.384C192.697 286.593 191.715 285.706 190.596 285.024C180.257 278.727 170.958 271.345 163.941 261.594C158.286 253.739 154.778 245.144 154.375 235.508C153.897 224.071 157.849 213.991 164.716 204.847C171.757 195.473 180.85 188.234 191.038 182.228C212.032 169.849 235.117 163.206 259.306 159.7C264.903 158.888 270.54 158.329 276.158 157.653C276.147 157.386 276.135 157.119 276.123 156.852C262.756 157.213 249.375 157.31 236.026 157.998C217.606 158.947 199.461 161.927 181.585 166.238C163.008 170.718 145.032 176.771 128.583 186.405C118.85 192.105 110.003 198.809 104.004 208.328C96.8827 219.631 96.705 231.177 103.908 242.432C106.572 246.594 110.056 250.388 113.691 253.844C122.01 261.752 132.201 267.058 142.643 271.933C143.848 272.496 144.947 273.269 146.095 273.944C126.353 271.705 107.15 267.16 88.1947 261.547C86.9452 261.035 85.7176 260.466 84.443 260.022C70.9082 255.309 57.6761 250.015 46.1747 241.474C41.5108 238.011 37.3751 234.043 34.4645 229.046C30.3331 221.952 29.9582 214.649 34.3513 207.699C36.8418 203.76 40.0433 200.053 43.5962 196.946C52.0395 189.562 62.1991 184.727 72.6884 180.608C102.623 168.851 134.096 163.321 166.027 159.726C172.374 159.011 178.742 158.468 185.101 157.845C184.288 157.391 183.478 157.217 182.671 157.229C168.996 157.44 155.304 157.342 141.651 157.991C126.746 158.699 111.861 159.939 96.9951 161.246C73.3668 163.323 49.9498 166.833 26.8112 171.877C9.94736 175.553 -6.68082 180.035 -22.3992 187.126C-30.0039 190.556 -37.2908 194.496 -43.034 200.562C-50.1976 208.128 -50.4475 216.465 -43.1262 223.823C-39.611 227.356 -35.394 230.389 -31.0789 233.022C-22.4546 238.284 -12.9212 241.786 -3.21935 244.767C5.10481 247.325 13.5288 249.581 21.9083 251.972C17.6812 251.606 13.4659 252.259 9.17508 251.273C5.26414 250.375 1.04546 250.776 -3.01222 250.368C-6.49299 250.018 -9.93271 249.302 -13.4009 248.813C-15.9526 248.452 -18.5176 248.164 -21.0827 247.897C-26.1818 247.367 -31.3062 247.014 -36.381 246.325C-40.7439 245.732 -45.0523 244.772 -49.385 243.975C-49.5217 243.95 -49.6643 243.905 -49.7976 243.92C-52.9949 244.292 -56.0179 243.738 -58.9444 242.47C-59.5414 242.211 -60.3171 242.329 -61.0097 242.272C-61.3585 242.079 -61.6856 241.785 -62.0604 241.709C-70.2336 240.049 -78.4563 238.592 -86.58 236.734C-100.273 233.6 -113.861 230.019 -126.481 223.886C-130.914 221.732 -135.264 219.109 -138.967 215.962C-145.876 210.087 -145.785 203.231 -138.878 197.367C-135.578 194.565 -131.829 191.951 -127.818 190.276C-119.161 186.664 -110.343 183.285 -101.34 180.579C-82.4284 174.894 -62.9434 171.497 -43.3786 168.666C-29.7381 166.691 -16.0247 165.157 -2.31878 163.626C6.82295 162.605 16.01 161.963 25.1693 161.082C27.1575 160.891 29.1021 160.203 31.0878 160.093C37.7323 159.725 44.5236 160.2 50.9887 159.007C55.4414 158.185 59.603 157.74 63.9911 158.489C64.6602 158.603 65.3797 158.446 66.0757 158.415C74.7177 158.032 83.3555 157.457 92.0008 157.306C111.682 156.963 131.368 156.833 151.051 156.6C152.102 156.587 153.151 156.417 154.154 156.324V121.947H130.146V93.8307H30.1896V44.052C29.8609 40.03 29.5314 36.0079 29.1675 31.5548H97.2911C97.4119 33.0129 97.6358 34.4702 97.6383 35.9283C97.6643 51.5789 97.6542 67.2295 97.655 82.8801C97.655 84.3084 97.655 85.7368 97.655 87.5914H181.517V118.708H200.995V156.59H239.559V113.965H223.478V80.1231H153.57C153.57 71.8089 153.59 63.9369 153.566 56.065C153.528 43.4955 153.46 30.9259 153.404 18.3564V3.44009C154.229 3.27844 154.736 3.09266 155.243 3.09266C169.615 3.07496 183.988 3.07336 198.359 3.08462C199.05 3.08462 199.741 3.22536 200.432 3.30015C200.399 25.5013 200.365 47.7033 200.352 69.9044C200.352 70.2615 200.61 70.6186 200.885 71.3336H258.924V109.4C268.971 109.229 278.508 109.702 288.096 109.119V61.6834H239.317V56.8966C239.317 34.5587 239.32 12.2208 239.308 -10.1179C239.308 -11.5824 239.181 -13.0469 239.113 -14.5122V-33.4273H338.508V60.9926H387.146V109.354H437.958V155.618H476.15C474.698 154.967 474.029 154.582 473.306 154.356C466.712 152.283 460.967 148.859 455.748 144.517C454.322 143.331 452.538 142.005 451.323 140.741C448.6 137.908 446.521 134.879 443.839 130.214C442.635 127.561 441.858 124.953 441.096 122.019C440.651 119.481 440.322 117.875 439.975 115.796C438.963 109.749 439.584 103.815 440.988 97.9018C441.834 94.343 442.736 90.7882 443.336 87.1884C443.503 86.1815 442.899 84.8947 442.276 83.9634C440.925 81.9399 440.934 79.9703 441.934 77.8873C444.026 79.2513 446.119 80.6161 448.345 82.0678C449.676 80.4304 450.831 79.0093 451.53 78.1503C447.898 74.4774 444.598 71.1389 441.296 67.8005C440.087 64.7396 439.701 61.6593 441.052 58.5364C441.352 58.7568 441.784 58.916 441.93 59.2072C445.086 65.4947 450.501 69.5498 456.717 73.0989C458.389 71.8853 460.034 70.6918 461.904 69.335C452.791 64.6149 445.542 58.4086 441.248 49.4356C440.915 45.5318 440.479 40.3509 440.145 36.4471C440.557 36.9224 441.251 38.6137 441.457 39.1606C445.169 49.0262 452.341 56.032 461.387 61.5459C465.833 64.2562 470.154 66.3054 475.595 63.5404C477.991 62.3228 481.005 62.2207 484.186 61.5129C464.935 58.7479 451.55 49.3544 443.648 32.9381C442.269 30.0726 441.412 26.9771 440.313 23.9877C439.712 18.1385 439.241 12.3399 440.13 6.42142C443.12 -13.4876 461.461 -30.4684 482.267 -33.1458C503.172 -35.8352 524.256 -25.5199 533.824 -6.99658C534.192 -6.28402 534.662 -5.61972 535.084 -4.93289C535.444 -3.79891 535.787 -2.6593 536.166 -1.53175C541.326 13.8205 539.376 28.2832 529.727 41.513C521.547 52.7306 510.08 59.1814 495.628 61.3199C496.342 61.8314 496.744 62.3654 497.198 62.4089C503.422 63.0048 508.956 65.4023 514.43 68.1053C515.757 68.7608 517.695 68.9876 519.133 68.6208C528.393 66.2564 536.838 62.2778 544.117 56.2154C556.659 45.7691 563.109 29.2048 554.448 12.9599C554.107 12.3206 553.247 11.0008 553.135 10.2488C561.218 13.7714 569.569 18.7054 575.632 25.0204C576.168 25.7957 576.695 26.5758 577.24 27.3454C584.212 37.1821 583.828 48.078 575.942 57.31C573.604 60.0468 570.758 62.3855 568.328 64.7307C574.204 63.7616 580.406 62.0856 586.657 61.8925C592.952 61.6979 599.296 62.9775 606.091 63.6587C611.371 59.0222 612.337 49.6906 607.16 42.9687C605.855 41.2749 604.649 39.5112 603.398 37.7797C608.66 39.3616 614.099 40.5463 619.137 42.6253C625.318 45.1755 631.163 48.4737 637.153 51.4486C638.399 52.8665 639.74 54.2176 640.873 55.7143C644.426 60.4103 644.351 65.1176 640.984 69.8248C639.032 72.5536 636.838 73.6514 633.243 72.7257C628.9 71.6078 624.393 70.9532 619.182 71.5137C634.306 84.3269 640.934 99.7917 637.139 118.437C633.332 137.143 620.9 148.916 601.516 155.548C613.306 157.123 624.094 156.067 635.036 156.454C634.664 155.84 634.475 155.527 634.248 155.153C634.632 155.06 634.994 154.969 635.358 154.885C647.265 152.119 657.976 147.194 666.407 138.479C674.504 130.11 678.54 120.32 676.629 108.753C675.021 99.0156 669.507 91.4823 661.811 85.2655C659.728 83.583 657.457 82.1129 654.95 80.3146C657.822 80.3146 660.196 80.1585 662.54 80.3515C666.009 80.6379 669.466 81.114 672.909 81.6215C675.187 81.9568 677.166 81.9568 679.148 80.3717C685.435 75.3467 685.653 70.0709 679.506 64.8948C678.359 63.9289 677.013 63.1833 675.819 62.2633C675.085 61.6979 674.466 60.9966 673.795 60.3556C680.442 61.4583 687.175 62.2231 693.717 63.7423C703.448 66.0022 713.044 68.7954 722.698 71.3617C724.435 72.4322 726.231 73.4254 727.899 74.5875C733.697 78.6289 733.757 82.7345 728.046 86.7815C726.388 87.9565 724.534 88.8757 722.864 89.8561C719.465 88.5146 716.227 87.6203 713.644 89.1701C709.161 87.786 705.228 87.338 700.412 87.5592C701.105 88.854 701.334 89.9534 702.032 90.4512C703.755 91.6817 705.767 92.5342 707.528 93.7213C711.944 96.6978 716.144 99.8794 719.277 104.227C726.011 113.572 726.031 123.666 719.229 132.971C715.476 138.105 710.337 141.744 705.029 145.19C702.788 146.645 700.517 148.272 698.001 149.08C690.727 151.417 683.321 153.379 675.002 155.765C678.206 156.084 680.516 156.517 682.824 156.51C693.71 156.48 704.595 156.327 715.481 156.223C717.247 156.206 719.013 156.221 721.289 156.221V190.929H743.766V218.279H843.616C843.616 219.913 843.616 221.215 843.616 222.518C843.616 236.292 843.607 250.066 843.632 263.84C843.635 265.295 843.839 266.75 843.949 268.205V279.926C842.746 280.123 841.97 280.36 841.195 280.361C820.545 280.379 799.894 280.373 779.244 280.365C778.83 280.365 778.416 280.273 778.002 280.224V225.387H694.051V194.852H674.844V156.375H636.514V199.209H652.44V233.823H722.028V238.511C722.028 255.768 722.022 273.023 722.037 290.28C722.038 291.744 722.179 293.208 722.254 294.672V310.3C721.425 310.5 720.917 310.729 720.409 310.729C705.949 310.749 691.49 310.75 677.031 310.735C676.346 310.735 675.661 310.559 674.976 310.465C675.028 310.068 675.124 309.671 675.124 309.274C675.133 287.597 675.137 265.92 675.12 244.244C675.12 243.502 674.893 242.761 674.722 241.712H616.9V204.039H587.937V251.479H636.529V256.156C636.529 278.502 636.525 300.848 636.538 323.193C636.538 324.658 636.669 326.124 636.739 327.589V346.576H537.456V252.253H488.771V203.826C492.123 203.73 495.475 203.634 498.827 203.538C511.359 203.578 523.889 203.62 536.42 203.641C536.653 203.641 536.886 203.394 537.043 203.306V198.998H510.833C510.743 197.658 510.653 196.317 510.564 194.976C515.321 194.945 520.079 194.913 524.837 194.882C528.952 194.882 533.067 194.882 537.406 194.882C537.307 193.31 537.232 192.134 537.159 190.958V186.692H524.941V156.482C520.152 156.793 515.635 157.086 510.868 157.396V191.061C510.803 192.4 510.737 193.737 510.672 195.075C506.745 195.055 502.818 195.035 498.891 195.016V157.043C518.133 156.171 535.191 151.34 548.58 137.55C543.19 130.709 540.639 123.046 538.715 114.689C538.507 115.536 538.395 115.916 538.32 116.304C534.405 136.46 522.186 149.474 501.684 155.328C499.85 155.852 498.91 155.87 495.505 156.232C494.08 156.502 493.862 156.711 492.325 156.891C490.731 157.068 490.103 156.828 489.088 157.432V199.094C489.014 200.702 488.941 202.31 488.867 203.918C473.51 203.871 458.153 203.823 442.796 203.777C441.297 203.772 439.798 203.777 437.837 203.777C437.837 201.312 437.854 197.1 437.854 197.1L437.965 166.913C437.965 166.913 437.692 160.144 437.692 157.181H364.986C364.934 155.448 364.845 153.715 364.835 151.981C364.775 141.97 364.735 131.958 364.688 121.947C364.697 120.863 364.704 119.78 364.712 118.695C368.644 118.717 372.577 118.739 376.509 118.761C376.601 120.082 376.771 121.403 376.773 122.724C376.796 132.61 376.786 142.495 376.785 152.38V156.551H386.558C386.724 156.009 386.935 155.642 386.935 155.276C386.899 141.523 386.843 127.771 386.79 114.018V109.836H376.478C365.074 109.757 353.671 109.678 342.267 109.601C341.206 109.594 340.146 109.6 338.983 109.6V113.983H364.56C364.647 115.588 364.734 117.192 364.821 118.796C360.069 118.839 355.315 118.883 350.562 118.927C346.661 118.819 342.662 118.546 338.763 118.907C338.819 119.885 338.871 121.092 338.923 121.997V125.236H350.509V156.096C348.166 156.271 346.265 156.413 344.365 156.555C344.377 156.697 344.389 156.839 344.401 156.981C347.854 157.319 351.306 157.657 354.758 157.996L354.761 157.996ZM427.587 209.538C427.524 209.066 427.317 208.99 427.254 208.518C427.07 208.591 427.029 208.267 426.846 208.34C427.118 208.72 427.391 209.101 427.663 209.482C428.459 211.122 429.255 212.761 430.051 214.401C431.832 219.925 433.614 225.449 435.396 230.974C434.887 225.021 433.686 219.283 430.3 214.193C429.396 212.642 428.492 211.09 427.588 209.539L427.587 209.538ZM544.429 84.7492C545.359 84.109 546.439 83.5999 547.193 82.8061C550.085 79.7588 552.873 76.6199 555.7 73.5147C556.246 72.9139 556.791 72.3123 557.337 71.7108C555.948 71.6311 554.935 71.9713 553.918 72.2995C549.186 73.8251 544.462 75.3757 539.718 76.8635C535.217 78.275 530.769 78.6063 526.514 76.044C526.126 75.81 525.593 75.7963 524.318 75.4802C532.415 83.6819 536.986 92.7216 538.525 103.033C540.457 97.7827 542.412 92.5664 544.252 87.3139C544.419 86.8378 543.85 86.1244 543.624 85.5212C543.892 85.2631 544.161 85.0057 544.43 84.7475L544.429 84.7492ZM578.842 156.235C578.864 156.089 578.885 155.942 578.907 155.795C575.977 155.513 573.046 155.004 570.117 155.01C566.924 155.017 563.736 155.595 560.537 155.747C557.681 155.882 554.812 155.775 551.949 155.775C551.948 155.577 551.946 155.377 551.945 155.178C556.757 154.272 561.568 153.365 566.884 152.364C564.325 150.841 562.389 149.521 560.29 148.516C559.324 148.054 557.824 147.767 556.925 148.158C547.514 152.249 537.662 154.792 527.469 156.236H578.842V156.235Z" fill="#EBEBEB"/>
<path d="M1207.17 120.495C1208.14 120.182 1209.11 119.603 1210.08 119.598C1221.81 119.543 1233.55 119.473 1245.28 119.612C1256.55 119.744 1267.82 120.09 1279.09 120.391C1287.57 120.617 1296.05 120.89 1304.52 121.199C1310.35 121.411 1316.17 121.687 1321.99 121.994C1331.54 122.499 1341.1 123.011 1350.64 123.598C1358.38 124.074 1366.12 124.581 1373.84 125.227C1382.24 125.929 1390.66 126.502 1398.99 127.684C1410.02 129.248 1421 131.224 1431.94 133.297C1434.97 133.871 1438.22 134.732 1440.11 137.884C1439.11 140.547 1436.42 141.25 1434 141.96C1429.65 143.235 1425.24 144.461 1420.77 145.166C1412.47 146.474 1404.13 147.53 1395.77 148.436C1386.86 149.402 1377.91 150.16 1368.96 150.845C1360.4 151.501 1351.83 151.991 1343.26 152.471C1332.88 153.054 1322.5 153.689 1312.12 154.045C1299.6 154.475 1287.07 154.595 1274.54 154.953C1272.39 155.015 1270.25 155.594 1268.15 156.485H1429.06V174.169H1266.75V156.521H1130.5V176.565C1132.2 176.565 1133.7 176.562 1135.2 176.565C1152.5 176.603 1169.8 176.642 1187.1 176.681V193.367C1200.7 193.45 1214.17 193.393 1227.63 193.403C1241.17 193.414 1254.71 193.405 1268.25 193.404C1281.93 193.404 1295.61 193.404 1309.3 193.404H1431.5V229.584H1268.81C1268.67 218.826 1268.52 208.069 1268.38 197.027H1063.62V179.133H1017.06V156.364H922.467V181.561H960.934V202.188H1132.31C1132.31 203.87 1132.31 205.175 1132.31 206.48C1132.31 214.238 1132.28 221.995 1132.33 229.753C1132.35 232.551 1132.54 235.347 1132.66 238.144V247.134C1122.99 247.375 1113.59 247.216 1104.2 247.244C1094.73 247.273 1085.25 247.251 1075.78 247.251C1066.31 247.251 1056.84 247.25 1047.36 247.251C1037.89 247.252 1028.42 247.256 1018.95 247.26C1018.87 245.797 1018.73 244.333 1018.73 242.87C1018.71 232.169 1018.72 221.469 1018.72 210.769C1018.72 209.484 1018.72 208.201 1018.72 206.567H875.396V183.98H842.517V155.602H771.141C771.814 155.057 772.498 155.004 773.182 154.952C787.534 153.855 801.671 151.568 815.46 147.572C824.288 145.014 832.905 141.914 840.171 136.208C849.066 129.224 849.114 121.032 840.337 113.985C839.483 113.299 838.636 112.545 837.653 112.077C832.055 109.415 826.49 106.669 820.765 104.279C817.242 102.808 813.455 101.92 809.786 100.77C819.557 100.664 829.261 100.914 838.926 101.645C844.216 102.044 849.214 101.775 853.924 99.3422C855.854 98.3449 858.389 97.5519 858.376 95.0411C858.363 92.5423 855.903 91.5804 853.888 90.7914C850.292 89.3832 846.567 88.279 842.895 87.0469C847.157 87.1233 851.419 87.194 855.682 87.2817C856.373 87.2962 857.062 87.3951 857.753 87.4377C866.58 87.9822 875.44 88.2283 884.226 89.1339C897.357 90.4874 910.455 92.1796 923.526 93.9971C927.72 94.5802 931.809 95.937 935.902 97.0854C938.974 97.9476 938.964 98.0682 941.361 101.138C940.227 103.575 937.665 104.145 935.421 105.021C933.035 105.952 930.536 106.614 928.086 107.394C919.03 107.031 909.977 106.568 900.917 106.337C894.293 106.169 887.659 106.304 880.81 106.304C884.099 107.007 887.212 107.626 890.301 108.342C899.382 110.445 908.451 112.681 916.651 117.107C919.752 118.781 922.725 120.956 925.134 123.453C928.213 126.645 928.007 130.2 925.177 133.641C924.071 134.985 922.745 136.306 921.229 137.17C917.65 139.209 914.032 141.283 910.191 142.779C896.809 147.992 882.709 150.552 868.483 152.477C860.27 153.588 852.01 154.381 843.772 155.318C845.94 155.791 848.141 156.015 850.344 156.041C875.175 156.336 899.998 156.758 924.817 155.123C943.193 153.912 961.5 152.29 979.651 149.27C990.499 147.464 1001.3 145.367 1011.47 141.189C1014.76 139.839 1017.98 138.054 1020.76 135.911C1024.35 133.141 1024.32 129.577 1020.82 126.678C1018.54 124.788 1015.9 123.006 1013.1 122.038C1006.04 119.602 998.851 117.511 991.631 115.562C986.717 114.236 981.664 113.383 976.673 112.319C977.817 112.056 978.96 111.577 980.107 111.564C986.387 111.496 992.671 111.441 998.949 111.576C1006.17 111.73 1013.38 112.008 1020.59 112.374C1029.44 112.824 1038.28 113.38 1047.13 113.964C1054.72 114.465 1062.3 115.071 1069.89 115.63C1070.33 115.844 1070.76 116.187 1071.23 116.255C1084.73 118.211 1098.3 119.788 1111.7 122.216C1118.61 123.467 1125.28 126.058 1131.93 128.387C1134.61 129.324 1137.59 130.917 1137.51 134.21C1137.43 137.472 1134.41 138.925 1131.74 139.928C1126.44 141.916 1121.08 143.9 1115.56 145.166C1092.98 150.345 1069.93 152.358 1046.85 154.091C1039.02 154.678 1031.2 155.192 1023.37 155.74C1042.11 156.51 1060.82 156.687 1079.53 156.46C1098.64 156.229 1117.74 155.558 1136.85 155.184C1140.25 155.117 1143.7 154.209 1147.1 155.741C1148.07 156.178 1149.55 155.691 1150.77 155.493C1152.79 155.163 1154.78 154.505 1156.82 154.364C1173.93 153.172 1191.09 152.425 1208.16 150.827C1223.26 149.414 1238.33 147.391 1253.31 145.017C1259.68 144.006 1265.95 141.798 1271.95 139.412C1276.33 137.668 1276.27 134.57 1272.02 132.502C1268.46 130.766 1264.59 129.445 1260.71 128.481C1247.05 125.085 1233.06 123.508 1219.08 121.978C1215.1 121.543 1211.13 120.992 1207.16 120.495L1207.17 120.495Z" fill="#EBEBEB"/>
<path d="M-398.127 82.6007V74.8036C-396.867 74.7095 -395.94 74.58 -395.012 74.58C-350.747 74.5703 -306.483 74.5712 -262.218 74.5744C-261.661 74.5744 -261.103 74.6162 -260.546 74.6379V111.641H-89.1267V131.439H-48.3645V156.701H31.0148V128.492H-2.4697V105.819H-145.612C-145.612 103.826 -145.606 102.237 -145.613 100.648C-145.665 89.0154 -145.719 77.3828 -145.772 65.7502V55.3594H-50.1498C-50.0357 56.8191 -49.8261 58.278 -49.8236 59.7377C-49.7976 71.9091 -49.8093 84.0805 -49.8093 96.252C-49.8093 97.55 -49.8093 98.8481 -49.8093 100.477H69.9968V125.354H98.2479V156.208C97.141 156.265 96.3285 156.343 95.5168 156.343C69.2898 156.388 43.0612 156.158 16.8637 157.834C8.23426 158.385 -0.437923 158.303 -9.07738 158.752C-33.5987 160.026 -58.1419 161.067 -82.6213 162.879C-105.138 164.546 -127.605 166.917 -150.055 169.309C-171.532 171.598 -192.835 175.037 -213.868 179.844C-225.117 182.415 -236.329 185.237 -246.67 190.352C-250.086 192.041 -253.367 194.258 -256.132 196.809C-259.746 200.143 -259.664 203.962 -256.196 207.461C-254.211 209.464 -251.863 211.387 -249.287 212.55C-243.259 215.273 -237.123 217.887 -230.801 219.88C-215.153 224.811 -198.985 227.71 -182.785 230.422C-179.022 231.053 -175.316 231.999 -171.583 232.801C-174.526 233.018 -177.467 233.362 -180.412 233.398C-182.023 233.418 -183.635 232.747 -185.259 232.679C-192.272 232.386 -199.298 232.345 -206.301 231.93C-211.463 231.625 -216.594 230.88 -221.741 230.34C-222.295 230.282 -222.854 230.272 -223.413 230.249C-228.891 230.022 -234.38 229.933 -239.843 229.525C-244.035 229.212 -248.193 228.496 -252.367 227.966C-252.782 227.914 -253.202 227.9 -253.62 227.881C-258.685 227.64 -263.755 227.468 -268.813 227.126C-270.692 226.999 -272.53 226.383 -274.409 226.157C-277.03 225.84 -279.673 225.679 -282.306 225.451C-282.809 225.262 -283.295 224.968 -283.814 224.9C-302.601 222.425 -321.423 220.175 -340.168 217.443C-353.255 215.537 -366.25 212.949 -378.745 208.642C-383.421 207.03 -388.07 204.982 -392.19 202.355C-397.22 199.148 -397.08 194.973 -392.006 191.724C-388.456 189.451 -384.49 187.617 -380.474 186.198C-365.763 180.997 -350.41 178.111 -334.975 175.924C-314.838 173.069 -294.634 170.542 -274.391 168.488C-252.884 166.305 -231.312 164.635 -209.739 163.124C-190.804 161.798 -171.839 160.735 -152.869 160.029C-122.311 158.894 -91.737 158.147 -61.169 157.244C-59.5732 157.197 -57.975 157.238 -56.3784 157.238C-56.381 156.979 -56.3826 156.72 -56.3851 156.462H-144.22V133.911H-193.039V115.383H-398.127V82.6015V82.6007Z" fill="#EBEBEB"/>
<path d="M-171.582 232.794C-175.315 231.993 -179.02 231.046 -182.784 230.415C-198.985 227.702 -215.153 224.804 -230.8 219.872C-237.122 217.88 -243.258 215.265 -249.286 212.543C-251.862 211.379 -254.21 209.456 -256.195 207.454C-259.663 203.955 -259.745 200.136 -256.13 196.802C-253.366 194.251 -250.085 192.034 -246.669 190.344C-236.328 185.229 -225.115 182.408 -213.866 179.837C-192.833 175.03 -171.531 171.591 -150.054 169.302C-127.604 166.91 -105.138 164.539 -82.6203 162.871C-58.1408 161.059 -33.5977 160.019 -9.0763 158.745C-0.436851 158.296 8.23528 158.378 16.8647 157.826C43.0623 156.151 69.2909 156.38 95.5178 156.336C96.3296 156.334 97.1421 156.257 98.2489 156.2V125.347H69.9978V100.469H-49.8083C-49.8083 98.8415 -49.8083 97.5435 -49.8083 96.2446C-49.8083 84.0732 -49.7966 71.9017 -49.8226 59.7303C-49.8259 58.2706 -50.0355 56.8117 -50.1487 55.352V44.0508H30.1916V93.8295H130.148V121.946H154.156V156.323C153.154 156.416 152.104 156.586 151.052 156.598C131.369 156.832 111.684 156.962 92.0027 157.304C83.3565 157.455 74.7188 158.031 66.0776 158.413C65.3816 158.444 64.6622 158.602 63.993 158.487C59.6049 157.739 55.4441 158.183 50.9907 159.005C44.5255 160.198 37.7342 159.724 31.0896 160.092C29.104 160.202 27.1594 160.891 25.1712 161.081C16.0119 161.962 6.82486 162.604 -2.31687 163.625C-16.0219 165.156 -29.7362 166.69 -43.3767 168.664C-62.9406 171.496 -82.4266 174.893 -101.338 180.578C-110.342 183.284 -119.159 186.662 -127.816 190.275C-131.827 191.95 -135.576 194.563 -138.876 197.365C-145.782 203.23 -145.873 210.086 -138.965 215.96C-135.263 219.108 -130.912 221.731 -126.479 223.885C-113.859 230.018 -100.271 233.599 -86.5781 236.732C-78.4552 238.591 -70.2317 240.048 -62.0585 241.708C-61.6837 241.785 -61.3575 242.079 -61.0078 242.271C-63.4865 244.073 -66.2663 243.013 -68.9236 242.986C-69.8619 242.977 -70.7885 242.478 -71.7335 242.426C-77.3953 242.114 -83.0756 242.025 -88.7232 241.559C-96.3983 240.927 -104.045 239.99 -111.711 239.252C-115.555 238.881 -119.426 238.757 -123.265 238.35C-129.547 237.686 -135.807 236.834 -142.087 236.151C-147.972 235.512 -153.877 235.047 -159.761 234.397C-163.714 233.96 -167.644 233.334 -171.584 232.792L-171.582 232.794Z" fill="#EBEBEB"/>
<path d="M842.893 87.0472C846.564 88.2784 850.29 89.3835 853.887 90.7917C855.902 91.5807 858.361 92.5417 858.374 95.0413C858.388 97.5522 855.853 98.346 853.923 99.3424C849.212 101.775 844.215 102.045 838.925 101.645C829.26 100.915 819.556 100.664 809.785 100.77C813.453 101.92 817.241 102.808 820.763 104.279C826.488 106.669 832.054 109.415 837.652 112.077C838.634 112.544 839.482 113.299 840.336 113.985C849.113 121.032 849.064 129.224 840.17 136.208C832.903 141.914 824.286 145.013 815.458 147.572C801.669 151.568 787.533 153.856 773.181 154.952C772.497 155.004 771.813 155.057 771.14 155.603H842.515V183.98H875.395V206.567H1018.72C1018.72 208.201 1018.72 209.484 1018.72 210.769C1018.72 221.469 1018.71 232.17 1018.73 242.87C1018.73 244.334 1018.87 245.797 1018.95 247.26V257.302H1014.03C985.617 257.302 957.206 257.3 928.795 257.307C927.265 257.307 925.737 257.385 924.208 257.427C923.983 256.003 923.568 254.579 923.562 253.154C923.51 240.982 923.538 228.809 923.523 216.636C923.521 215.231 923.397 213.825 923.311 212.029H803.752V186.83H776.975V156.297C767.413 156.297 758.202 156.34 748.992 156.285C739.9 156.231 730.784 156.61 720.752 155.55C721.975 154.423 722.808 153.466 722.949 153.552C725.548 155.134 728.087 153.824 730.648 153.573C731.965 153.445 733.306 153.551 734.932 153.551C736.116 151.254 737.996 149.715 741.237 151.028C741.677 151.207 742.346 150.982 742.873 150.83C752.5 148.062 761.861 144.719 769.977 138.837C773.795 136.069 777.311 132.92 779.059 128.55C780.562 124.79 782.533 120.805 778.587 117.155C778.441 117.02 778.302 116.68 778.377 116.553C779.813 114.131 777.666 112.684 776.453 111.384C772.533 107.184 768.638 102.796 762.304 101.789C761.972 101.736 761.464 101.414 761.424 101.162C761.105 99.0851 759.121 99.003 757.713 98.3918C754.337 96.9273 750.866 95.6614 747.19 94.2194C751.649 94.2194 755.781 94.0602 759.895 94.2564C766.025 94.5491 772.146 95.0494 778.263 95.544C782.431 95.881 785.463 93.8495 788.211 91.2928C789.638 89.965 790.234 88.1047 788.721 86.6354C787.296 85.2497 785.456 84.1527 783.616 83.2825C780.178 81.6571 776.609 80.2883 773.093 78.8125C777.797 79.0642 782.509 79.2154 787.2 79.5983C791.324 79.9344 795.415 80.6349 799.538 80.9928C812.861 82.1493 826.113 83.728 839.171 86.5984C840.384 86.8654 841.652 86.904 842.895 87.0488L842.893 87.0472Z" fill="#EBEBEB"/>
<path d="M773.093 78.8136C776.609 80.2894 780.179 81.6582 783.616 83.2836C785.456 84.1538 787.296 85.2507 788.721 86.6365C790.234 88.1066 789.638 89.966 788.211 91.2938C785.463 93.8513 782.431 95.882 778.263 95.5451C772.146 95.0505 766.025 94.5502 759.895 94.2575C755.781 94.0612 751.649 94.2205 747.19 94.2205C750.867 95.6625 754.337 96.9276 757.713 98.3929C759.122 99.0041 761.105 99.0861 761.424 101.164C761.463 101.415 761.972 101.737 762.304 101.79C768.638 102.797 772.533 107.185 776.453 111.385C777.666 112.685 779.813 114.132 778.377 116.554C778.302 116.681 778.441 117.021 778.587 117.156C782.532 120.806 780.562 124.791 779.059 128.551C777.311 132.921 773.795 136.07 769.977 138.838C761.862 144.721 752.5 148.063 742.873 150.831C742.346 150.983 741.677 151.208 741.237 151.029C737.996 149.717 736.116 151.256 734.932 153.552C733.306 153.552 731.965 153.446 730.648 153.574C728.087 153.825 725.548 155.136 722.949 153.554C722.807 153.468 721.975 154.424 720.752 155.551C730.783 156.612 739.9 156.232 748.992 156.286C758.203 156.341 767.413 156.298 776.975 156.298V186.831H803.752V212.03H923.311C923.397 213.826 923.52 215.231 923.523 216.637C923.539 228.81 923.51 240.982 923.562 253.155C923.568 254.58 923.983 256.004 924.208 257.428C923.825 258.354 923.172 259.263 923.11 260.208C922.952 262.601 923.058 265.01 923.058 268.063C896.564 268.11 870.257 268.158 843.951 268.205C843.84 266.75 843.636 265.295 843.634 263.84C843.609 250.065 843.618 236.292 843.617 222.517C843.617 221.215 843.617 219.913 843.617 218.278H743.767V190.928H721.29V156.22C719.014 156.22 717.248 156.206 715.483 156.223C704.597 156.326 693.712 156.479 682.826 156.51C680.517 156.516 678.206 156.084 675.003 155.764C683.322 153.378 690.728 151.417 698.002 149.08C700.519 148.271 702.79 146.644 705.03 145.19C710.338 141.744 715.477 138.105 719.231 132.971C726.032 123.665 726.013 113.571 719.279 104.227C716.145 99.8791 711.946 96.6975 707.53 93.721C705.768 92.534 703.756 91.6807 702.033 90.451C701.336 89.9532 701.108 88.8537 700.413 87.5589C705.229 87.3377 709.162 87.7849 713.645 89.1698C716.228 87.62 719.466 88.5144 722.866 89.8558C724.535 88.8755 726.389 87.9554 728.047 86.7812C733.758 82.7343 733.699 78.6286 727.9 74.5873C726.233 73.4251 724.436 72.4319 722.699 71.3614C723.145 71.1234 723.624 70.636 724.032 70.6851C732.315 71.6928 740.615 72.6121 748.859 73.8675C754.936 74.7932 760.941 76.1531 766.97 77.3643C769.027 77.7777 771.053 78.3262 773.094 78.8128L773.093 78.8136Z" fill="#EBEBEB"/>
<path d="M1132.66 238.144C1132.54 235.346 1132.34 232.55 1132.33 229.752C1132.28 221.995 1132.31 214.237 1132.31 206.48C1132.31 205.174 1132.31 203.869 1132.31 202.188H960.934V181.56H922.467V156.363H1017.06V179.132H1063.62V197.027H1268.38C1268.52 208.069 1268.66 218.826 1268.81 229.583C1268.67 232.234 1268.54 234.886 1268.38 238.143H1132.66L1132.66 238.144Z" fill="#EBEBEB"/>
<path d="M-145.772 65.7441C-145.718 77.3767 -145.665 89.0093 -145.613 100.642C-145.606 102.231 -145.612 103.82 -145.612 105.813H-2.46929V128.486H31.0152V156.694H-48.3641V131.433H-89.1263V111.635H-260.545V65.7441H-145.772V65.7441Z" fill="#EBEBEB"/>
<path d="M722.257 294.668C722.181 293.204 722.041 291.741 722.04 290.276C722.024 273.019 722.03 255.764 722.03 238.507V233.819H652.443V199.205H636.517V156.371H674.847V194.848H694.054V225.383H778.004V294.669H722.257V294.668Z" fill="#EBEBEB"/>
<path d="M153.404 18.3582C153.459 30.9278 153.528 43.4973 153.566 56.0668C153.591 63.9387 153.571 71.8107 153.571 80.125H223.478V113.967H239.559V156.592H200.995V118.709H181.517V87.5932H97.6552C97.6552 85.7386 97.6552 84.3102 97.6552 82.8819C97.6552 67.2313 97.6644 51.5807 97.6384 35.9301C97.6359 34.4721 97.412 33.0148 97.2913 31.5567V18.3574H153.404V18.3582Z" fill="#EBEBEB"/>
<path d="M21.9122 251.969C13.5327 249.579 5.10786 247.323 -3.21546 244.765C-12.9173 241.785 -22.4507 238.282 -31.075 233.02C-35.3901 230.387 -39.6072 227.354 -43.1223 223.821C-50.4436 216.463 -50.1937 208.126 -43.0301 200.56C-37.2869 194.493 -30 190.554 -22.3953 187.124C-6.67609 180.034 9.95209 175.551 26.8151 171.875C49.9537 166.831 73.3698 163.322 96.999 161.244C111.865 159.937 126.749 158.697 141.655 157.989C155.308 157.34 169 157.438 182.675 157.227C183.482 157.215 184.292 157.388 185.105 157.843C178.746 158.466 172.379 159.01 166.031 159.724C134.099 163.32 102.626 168.849 72.6923 180.606C62.2022 184.726 52.0433 189.561 43.6001 196.944C40.0472 200.051 36.8457 203.757 34.3552 207.697C29.9613 214.647 30.3369 221.949 34.4684 229.044C37.379 234.04 41.5147 238.008 46.1786 241.472C57.68 250.013 70.9129 255.308 84.4469 260.02C85.7223 260.464 86.9491 261.033 88.1986 261.545C86.4972 263.331 84.2658 262.534 82.3875 262.319C74.7635 261.448 67.1395 260.478 59.5801 259.2C49.0514 257.418 38.5772 255.338 28.0863 253.356C26.0134 252.964 23.9691 252.435 21.9122 251.969V251.969Z" fill="#EBEBEB"/>
<path d="M146.099 273.944C144.951 273.268 143.853 272.495 142.648 271.932C132.205 267.057 122.015 261.752 113.695 253.843C110.06 250.388 106.576 246.595 103.912 242.432C96.7092 231.177 96.8869 219.63 104.009 208.328C110.008 198.808 118.854 192.105 128.587 186.404C145.037 176.77 163.012 170.717 181.589 166.237C199.464 161.926 217.61 158.946 236.03 157.998C249.379 157.31 262.761 157.213 276.128 156.852C276.139 157.119 276.15 157.386 276.162 157.653C270.544 158.328 264.906 158.888 259.31 159.699C235.121 163.206 212.036 169.85 191.042 182.227C180.854 188.234 171.76 195.472 164.72 204.846C157.853 213.991 153.902 224.069 154.38 235.507C154.782 245.143 158.291 253.738 163.945 261.594C170.962 271.344 180.261 278.727 190.6 285.024C191.719 285.705 192.7 286.592 193.746 287.384C187.973 286.204 182.097 285.358 176.452 283.764C167.874 281.345 159.453 278.415 150.973 275.68C149.332 275.151 147.724 274.526 146.101 273.945L146.099 273.944Z" fill="#EBEBEB"/>
<path d="M235.914 303.384C233.914 301.552 231.993 299.632 229.901 297.902C218.486 288.462 209.519 277.3 204.733 263.513C196.496 239.784 201.44 218.138 217.27 198.686C230.816 182.039 248.934 171.548 269.457 164.605C279.211 161.305 289.312 159.464 299.522 157.856C307.759 156.558 315.889 157.371 324.16 157.664C321.2 158.307 318.237 158.938 315.28 159.595C277.803 167.913 247.729 198.599 241.5 234.994C236.271 265.551 244.582 292.389 265.894 315.602C266.784 316.571 267.522 317.668 268.331 318.705C264.094 317.193 259.663 316.044 255.665 314.086C248.937 310.79 242.483 306.979 235.914 303.384V303.384Z" fill="#EBEBEB"/>
<path d="M1207.16 120.498C1211.13 120.996 1215.1 121.546 1219.07 121.981C1233.06 123.512 1247.05 125.089 1260.71 128.484C1264.59 129.448 1268.45 130.769 1272.02 132.505C1276.27 134.574 1276.33 137.672 1271.95 139.415C1265.94 141.801 1259.68 144.009 1253.31 145.02C1238.33 147.395 1223.26 149.418 1208.16 150.831C1191.09 152.427 1173.93 153.175 1156.82 154.367C1154.78 154.508 1152.79 155.166 1150.77 155.496C1149.55 155.695 1148.07 156.181 1147.1 155.744C1143.7 154.212 1140.25 155.12 1136.85 155.187C1117.74 155.561 1098.64 156.232 1079.52 156.463C1060.82 156.69 1042.11 156.513 1023.37 155.743C1031.2 155.195 1039.02 154.681 1046.84 154.094C1069.93 152.361 1092.98 150.348 1115.56 145.169C1121.08 143.903 1126.44 141.919 1131.74 139.931C1134.41 138.929 1137.43 137.475 1137.51 134.213C1137.58 130.92 1134.61 129.327 1131.93 128.39C1125.28 126.061 1118.61 123.471 1111.7 122.219C1098.3 119.79 1084.73 118.213 1071.23 116.258C1070.76 116.189 1070.33 115.848 1069.89 115.633C1082.86 115.701 1095.84 115.727 1108.82 115.856C1114.8 115.916 1120.78 116.127 1126.76 116.358C1141.21 116.916 1155.68 117.412 1170.12 118.147C1182.48 118.776 1194.82 119.703 1207.16 120.498H1207.16Z" fill="#EBEBEB"/>
<path d="M636.742 327.591C636.672 326.126 636.542 324.661 636.541 323.195C636.528 300.849 636.532 278.504 636.532 256.158V251.482H587.94V204.041H616.903V241.714H674.725C674.896 242.763 675.123 243.504 675.123 244.246C675.14 265.923 675.135 287.6 675.127 309.276C675.127 309.674 675.03 310.07 674.979 310.467V327.592H636.743L636.742 327.591Z" fill="#EBEBEB"/>
<path d="M239.116 -14.5031C239.184 -13.0386 239.31 -11.5741 239.311 -10.1087C239.324 12.2291 239.32 34.567 239.32 56.9057V61.6925H288.1V109.128C278.512 109.711 268.974 109.238 258.928 109.409V71.3427H200.888C200.613 70.6277 200.355 70.2706 200.355 69.9135C200.368 47.7124 200.403 25.5104 200.435 3.30927V-14.3584C213.466 -14.6986 226.294 -14.4549 239.117 -14.5031H239.116Z" fill="#EBEBEB"/>
<path d="M976.674 112.317C981.665 113.381 986.718 114.233 991.632 115.559C998.852 117.508 1006.05 119.599 1013.1 122.035C1015.9 123.003 1018.54 124.786 1020.82 126.676C1024.32 129.574 1024.35 133.138 1020.76 135.908C1017.98 138.052 1014.76 139.837 1011.48 141.187C1001.3 145.365 990.499 147.462 979.652 149.267C961.501 152.288 943.194 153.909 924.818 155.12C899.999 156.755 875.176 156.333 850.345 156.039C848.142 156.013 845.941 155.788 843.773 155.316C852.012 154.379 860.271 153.586 868.484 152.474C882.71 150.55 896.81 147.99 910.192 142.777C914.033 141.28 917.652 139.205 921.23 137.167C922.746 136.303 924.072 134.983 925.178 133.638C928.008 130.197 928.214 126.643 925.135 123.451C922.725 120.953 919.753 118.778 916.652 117.104C908.452 112.678 899.383 110.442 890.303 108.339C887.213 107.623 884.1 107.005 880.811 106.302C887.66 106.302 894.293 106.166 900.918 106.335C909.978 106.565 919.031 107.028 928.087 107.391C935.389 108.009 942.704 108.509 949.99 109.276C958.482 110.169 966.949 111.298 975.428 112.314C975.837 112.363 976.258 112.317 976.674 112.316L976.674 112.317Z" fill="#EBEBEB"/>
<path d="M673.796 60.3612C674.467 61.0014 675.086 61.7035 675.82 62.2689C677.014 63.1881 678.36 63.9345 679.507 64.9004C685.654 70.0757 685.435 75.3523 679.149 80.3773C677.167 81.9616 675.188 81.9624 672.91 81.627C669.466 81.1196 666.01 80.6435 662.541 80.3571C660.198 80.1641 657.823 80.3201 654.951 80.3201C657.458 82.1184 659.729 83.5886 661.812 85.2711C669.509 91.4879 675.022 99.0212 676.63 108.758C678.541 120.326 674.505 130.116 666.408 138.485C657.977 147.199 647.266 152.125 635.359 154.89C634.995 154.975 634.633 155.066 634.249 155.158C634.476 155.533 634.665 155.846 635.037 156.46C624.095 156.073 613.307 157.128 601.517 155.553C620.901 148.921 633.333 137.148 637.14 118.442C640.934 99.7981 634.306 84.3325 619.183 71.5193C624.393 70.9588 628.9 71.6134 633.244 72.7313C636.84 73.657 639.033 72.5592 640.985 69.8304C644.351 65.1232 644.427 60.4151 640.874 55.7199C639.742 54.2232 638.399 52.8721 637.153 51.4542C637.972 51.1711 638.879 50.5084 639.597 50.6612C649.915 52.8576 660.195 55.1916 669.917 59.327C671.129 59.8425 672.497 60.0243 673.793 60.3612H673.796Z" fill="#EBEBEB"/>
<path d="M1187.09 176.689C1169.79 176.651 1152.5 176.611 1135.2 176.573C1133.7 176.57 1132.2 176.573 1130.5 176.573V156.529H1266.75V174.178C1266.63 174.833 1266.51 175.489 1266.31 176.576C1264.91 176.576 1263.41 176.576 1261.91 176.576C1238.5 176.576 1215.09 176.574 1191.69 176.581C1190.16 176.581 1188.62 176.651 1187.1 176.69L1187.09 176.689Z" fill="#EBEBEB"/>
<path d="M553.57 11.0281C553.942 11.793 554.109 12.3238 554.451 12.9631C563.112 29.208 556.662 45.7723 544.12 56.2186C536.841 62.281 528.396 66.2596 519.136 68.624C517.698 68.9908 515.76 68.764 514.433 68.1085C508.958 65.4054 503.425 63.0072 497.201 62.4121C496.747 62.3686 496.344 61.8346 495.631 61.3231C510.083 59.1846 521.55 52.733 529.73 41.5162C539.379 28.2872 541.329 13.8237 536.169 -1.52854C535.79 -2.65689 535.447 -3.7957 535.087 -4.92969C539.219 -4.4206 541.774 -1.40629 544.616 0.935665C547.413 3.23902 549.622 6.19461 552.109 8.84701C552.729 9.50729 552.83 9.68584 553.572 11.0289L553.57 11.0281Z" fill="#EBEBEB"/>
<path d="M603.401 37.7789C604.652 39.5104 605.859 41.2741 607.163 42.9678C612.339 49.6897 611.374 59.0214 606.095 63.6578C599.299 62.9766 592.955 61.6971 586.661 61.8917C580.409 62.0847 574.208 63.7608 568.331 64.7299C570.761 62.3855 573.606 60.046 575.945 57.3091C583.831 48.0772 584.215 37.1821 577.243 27.3446C576.698 26.5757 576.17 25.7948 575.636 25.0195C579.011 26.1012 582.559 26.8444 585.722 28.3394C591.033 30.8503 596.098 33.8397 601.266 36.6272C601.977 37.0108 602.688 37.3944 603.4 37.7781L603.401 37.7789Z" fill="#EBEBEB"/>
<path d="M364.691 121.95C364.738 131.961 364.779 141.972 364.838 151.984C364.848 153.718 364.936 155.451 364.989 157.184C362.428 157.22 359.866 157.201 357.311 157.323C356.451 157.364 355.61 157.762 354.761 157.997C351.309 157.658 347.856 157.321 344.404 156.982C344.391 156.841 344.38 156.698 344.367 156.557C346.268 156.414 348.169 156.273 350.511 156.097V125.238C350.52 124.144 350.528 123.051 350.537 121.957L350.515 121.979C355.241 121.969 359.967 121.96 364.692 121.949L364.691 121.95Z" fill="#EBEBEB"/>
<path d="M440.315 23.9852C441.414 26.9746 442.271 30.0701 443.65 32.9356C451.552 49.3518 464.937 58.7454 484.188 61.5104C481.008 62.2181 477.993 62.3203 475.597 63.5379C470.155 66.3037 465.835 64.2545 461.389 61.5434C452.343 56.0295 445.171 49.0237 441.459 39.158C441.254 38.6112 440.559 36.9206 440.147 36.4445C439.863 32.8005 439.607 30.4368 439.449 26.788C439.41 25.8663 440.009 24.9197 440.315 23.9844V23.9852Z" fill="#EBEBEB"/>
<path d="M441.251 49.4316C445.544 58.4038 452.792 64.6109 461.906 69.331C460.036 70.6878 458.391 71.8813 456.719 73.0949C450.503 69.5458 445.089 65.4908 441.932 59.2032C441.786 58.9121 441.354 58.7528 441.054 58.5325C440.885 57.3808 440.535 56.2219 440.587 55.0798C440.673 53.1915 441.017 51.3136 441.251 49.4316H441.251Z" fill="#EBEBEB"/>
<path d="M441.299 67.7969C444.599 71.1353 447.901 74.4737 451.532 78.1467C450.834 79.0056 449.679 80.4267 448.348 82.0642C446.121 80.6125 444.029 79.2477 441.937 77.8837C440.512 74.5919 440.341 71.227 441.299 67.7969Z" fill="#EBEBEB"/>
<path d="M432.527 194.461C428.8 190.272 423.679 188.251 418.53 186.341C415.707 185.293 412.73 184.636 409.885 183.639C408.391 183.116 407.034 182.236 405.615 181.518C408.581 182.019 411.623 182.275 414.499 183.076C419.798 184.553 425.118 186.004 429.748 189.159C431.798 190.556 432.825 192.101 432.528 194.461H432.527Z" fill="#EBEBEB"/>
<path d="M423.824 199.209C428.138 202.523 430.922 206.935 433.517 211.5C434.146 212.607 435.06 213.565 435.844 214.591C436.156 216.907 436.497 219.222 436.743 221.544C436.769 221.787 436.23 222.085 435.954 222.357C434.713 219.47 433.775 216.415 432.163 213.732C429.373 209.088 426.164 204.675 423.131 200.165C423.363 199.847 423.593 199.527 423.824 199.209Z" fill="#EBEBEB"/>
<path d="M416.821 188.531C422.586 189.558 427.069 192.771 431.383 196.303C431.908 196.733 432.683 196.881 433.342 197.16C433.368 198.374 433.394 199.588 433.42 200.802C429.508 196.16 424.542 192.831 419.044 190.147C418.216 189.743 417.496 189.14 416.725 188.629L416.82 188.531H416.821Z" fill="#EBEBEB"/>
<path d="M435.035 211.337C432.533 205.91 428.828 201.308 424.446 197.17C424.736 196.931 425.026 196.691 425.316 196.451C428.3 199.411 431.284 202.37 434.268 205.331C434.523 207.333 434.779 209.335 435.035 211.338V211.337Z" fill="#EBEBEB"/>
<path d="M489.091 199.1V157.438C490.108 156.834 490.006 157.253 491.123 156.897C493.974 156.638 494.395 156.489 498.198 155.866C500.211 155.686 499.854 155.858 501.688 155.335C522.189 149.48 534.408 136.466 538.324 116.31C538.399 115.923 538.51 115.541 538.718 114.695C540.643 123.053 543.195 130.716 548.584 137.557C535.196 151.346 518.137 156.177 498.895 157.05V195.022C498.89 196.369 498.885 197.717 498.88 199.064L498.903 199.042C495.633 199.061 492.362 199.08 489.091 199.099V199.1Z" fill="#EBEBEB"/>
<path d="M510.872 191.064V157.398C515.638 157.088 520.156 156.796 524.945 156.484V186.694C524.925 188.139 524.905 189.584 524.885 191.029C520.214 191.041 515.543 191.052 510.872 191.064V191.064Z" fill="#EBEBEB"/>
<path d="M386.794 114.022C386.847 127.774 386.903 141.527 386.939 155.279C386.939 155.646 386.728 156.013 386.562 156.555H376.789V152.384C376.789 142.498 376.799 132.613 376.777 122.728C376.774 121.406 376.605 120.086 376.513 118.764C376.516 117.153 376.518 115.543 376.521 113.932L376.501 113.95C379.933 113.974 383.364 113.998 386.794 114.022V114.022Z" fill="#EBEBEB"/>
<path d="M544.788 86.0727C544.596 86.6011 544.418 86.8391 544.251 87.316C542.41 92.5694 540.456 97.7849 538.524 103.035C536.985 92.7238 532.414 83.6833 524.317 75.4824C525.592 75.7993 526.125 75.8121 526.514 76.0462C530.768 78.6085 535.217 78.2771 539.717 76.8657C544.462 75.3778 549.185 73.8272 553.917 72.3016C554.934 71.9735 555.947 71.6333 557.336 71.7129C556.791 72.3145 556.245 72.916 555.699 73.5168C552.872 76.622 550.085 79.7602 547.192 82.8082C546.439 83.602 545.014 85.7252 544.94 85.8684C544.917 85.8949 544.827 86.0164 544.788 86.0735V86.0727Z" fill="#EBEBEB"/>
<path d="M510.835 199H537.046V203.308C536.889 203.396 536.656 203.644 536.423 203.643C523.891 203.622 511.361 203.58 498.83 203.54C498.854 202.039 498.879 200.539 498.903 199.038L498.88 199.06C502.865 199.039 506.851 199.02 510.835 199V199Z" fill="#EBEBEB"/>
<path d="M578.843 156.234H527.47C537.662 154.79 547.514 152.247 556.925 148.156C557.824 147.765 559.324 148.052 560.29 148.514C562.39 149.519 564.325 150.839 566.885 152.362C561.568 153.364 556.757 154.27 551.946 155.176C551.947 155.375 551.948 155.575 551.949 155.773C554.812 155.773 557.682 155.88 560.538 155.745C563.737 155.594 566.925 155.015 570.118 155.008C573.047 155.003 575.978 155.512 578.907 155.793C578.886 155.94 578.865 156.087 578.843 156.233V156.234Z" fill="#EBEBEB"/>
<path d="M364.563 113.985H338.986V109.602C340.15 109.602 341.21 109.596 342.27 109.603C353.674 109.68 365.077 109.759 376.482 109.838C376.488 111.208 376.494 112.578 376.501 113.948L376.52 113.93C372.535 113.948 368.549 113.967 364.563 113.986V113.985Z" fill="#EBEBEB"/>
<path d="M524.867 191.017C528.966 191.001 533.063 190.984 537.162 190.967C537.236 192.143 537.311 193.319 537.41 194.891H524.841C524.849 193.6 524.858 192.309 524.867 191.017V191.017Z" fill="#EBEBEB"/>
<path d="M350.566 118.927C350.55 119.943 350.533 120.96 350.516 121.977L350.538 121.955C346.668 121.969 342.797 121.982 338.927 121.996C338.875 121.091 338.824 119.884 338.767 118.906C342.791 118.669 346.666 118.818 350.566 118.926V118.927Z" fill="#EBEBEB"/>
<path d="M430.299 214.188C433.685 219.278 434.887 225.016 435.396 230.968C433.614 225.444 431.832 219.919 430.05 214.395L430.299 214.188Z" fill="#EBEBEB"/>
<path d="M419.952 193.579C419.549 193.533 419.145 193.486 418.246 193.382C419.41 194.773 420.377 195.926 421.344 197.08C421.067 197.28 420.789 197.481 420.511 197.682C418.547 195.345 416.583 193.009 414.431 190.449C417.136 190.135 418.662 191.89 420.466 193.01C420.298 193.203 420.127 193.393 419.951 193.58L419.952 193.579Z" fill="#EBEBEB"/>
<path d="M424.447 197.17C422.95 195.972 421.452 194.773 419.954 193.574C420.13 193.387 420.302 193.197 420.469 193.004C422.085 194.153 423.702 195.302 425.318 196.451C425.028 196.691 424.738 196.93 424.448 197.17H424.447Z" fill="#EBEBEB"/>
<path d="M430.05 214.401C429.255 212.761 428.459 211.122 427.663 209.482L427.588 209.54C428.492 211.091 429.396 212.642 430.299 214.194L430.05 214.401Z" fill="#EBEBEB"/>
<path d="M416.46 188.815C415.74 188.724 415.285 188.449 414.565 188.358C414.626 188.164 414.686 187.969 414.748 187.775C415.438 188.029 415.929 188.208 416.619 188.461L416.46 188.816V188.815Z" fill="#EBEBEB"/>
<path d="M427.663 209.483C427.39 209.102 427.117 208.722 426.845 208.341C427.029 208.268 427.523 209.067 427.587 209.539L427.663 209.482V209.483Z" fill="#EBEBEB"/>
<path d="M422.372 199.27C422.257 198.902 422.142 198.535 422.027 198.168C422.447 198.346 422.867 198.523 423.287 198.702C422.982 198.892 422.677 199.081 422.372 199.271V199.27Z" fill="#EBEBEB"/>
<path d="M423.289 198.708C423.431 198.911 423.611 199.079 423.825 199.211C423.594 199.53 423.362 199.849 423.132 200.168C422.879 199.87 422.626 199.573 422.373 199.276C422.678 199.086 422.983 198.897 423.289 198.707V198.708Z" fill="#EBEBEB"/>
</svg>
