<svg width="375" height="171" viewBox="0 0 375 171" fill="none" xmlns="http://www.w3.org/2000/svg">
<path d="M142.436 85.9135C146.589 86.7845 150.62 88.0351 154.39 90.0813C157.21 91.6124 159.884 93.3745 162.245 95.6173C162.573 95.9295 162.986 96.1458 163.36 96.4062C163.943 96.7269 164.502 97.119 165.116 97.3526C166.287 97.7978 167.512 98.0905 168.674 98.5576C170.792 99.4099 172.899 100.311 174.433 102.18C174.544 102.582 174.656 102.983 174.768 103.385C174.496 103.261 174.177 103.194 173.961 103.003C172.186 101.427 170.342 99.9939 167.97 99.5358C167.685 99.4228 167.402 99.3102 167.117 99.1972C167.092 99.2837 167.067 99.3705 167.042 99.4569C167.338 99.4978 167.634 99.5387 167.93 99.5796C168.247 99.8074 168.544 100.076 168.884 100.257C171.147 101.453 173.189 102.939 174.799 105.009C174.916 105.682 175.032 106.355 175.148 107.029L171.465 103.068C170.801 102.555 170.135 102.043 169.47 101.53C168.728 101.031 168.1 100.248 166.987 100.388C167.872 101.53 168.68 102.572 169.488 103.614C169.603 103.525 169.717 103.436 169.831 103.346C169.434 102.832 169.036 102.317 168.557 101.697C168.926 101.743 169.093 101.764 169.259 101.784C169.875 102.319 170.491 102.854 171.107 103.388C172.91 105.234 174.434 107.287 175.464 109.707C175.575 110.191 175.686 110.674 175.797 111.157C175.475 110.699 175.098 110.272 174.84 109.779C173.772 107.742 172.627 105.774 170.852 104.296C170.763 104.237 170.69 104.162 170.631 104.071C170.458 103.992 170.285 103.913 170.113 103.833C170.16 103.997 170.207 104.161 170.254 104.325L170.567 104.722C171.815 106.734 173.135 108.703 174.283 110.774C174.946 111.971 175.332 113.333 175.843 114.621C175.967 117.477 176.08 120.333 176.222 123.187C176.276 124.251 176.469 125.311 176.477 126.373C176.558 136.491 173.837 145.638 167.775 153.661C164.529 157.958 160.621 161.413 156.14 164.244C153.14 166.139 149.893 167.422 146.577 168.431C143.719 169.3 140.752 169.857 137.718 169.781C135.255 169.719 132.778 169.909 130.328 169.714C128.534 169.572 126.706 169.183 125.012 168.557C122.171 167.508 119.236 166.678 116.601 165.063C113.588 163.216 110.545 161.431 108.186 158.655C107.827 158.231 107.316 157.947 106.874 157.597C106.541 157.134 106.238 156.645 105.872 156.213C97.1032 145.859 93.6835 133.888 95.835 120.258C98.3977 104.023 110.772 90.3356 126.191 86.6252C127.408 86.3325 128.627 86.0509 129.845 85.7643C126.442 85.633 123.097 85.2706 119.708 85.8496C115.507 86.5671 111.351 87.3886 107.338 88.8602C98.8939 91.9571 91.4391 96.6365 85.8654 104.062C79.3526 112.739 77.3184 122.394 80.7075 132.979C82.6765 139.129 86.3661 144.107 91.0627 148.318C91.9236 149.09 92.7136 149.946 93.5365 150.763C87.466 149.136 81.6407 146.867 76.1854 143.628C75.7555 143.275 75.3515 142.879 74.8913 142.575C70.6372 139.766 66.8114 136.473 63.924 132.124C61.5975 128.62 60.154 124.786 59.9884 120.488C59.7917 115.386 61.4174 110.89 64.2431 106.811C67.1398 102.63 70.8811 99.4013 75.0731 96.7219C83.7112 91.2006 93.2094 88.2374 103.162 86.6733C105.465 86.3113 107.784 86.0616 110.095 85.7603C110.091 85.6412 110.086 85.5221 110.081 85.403C104.581 85.5641 99.0757 85.6075 93.5834 85.9142C86.0045 86.3375 78.5387 87.6666 71.1837 89.5895C63.5403 91.588 56.1443 94.2879 49.3761 98.5852C45.3716 101.128 41.7316 104.118 39.2634 108.364C36.3332 113.406 36.2601 118.556 39.2237 123.577C40.3199 125.433 41.7534 127.125 43.249 128.667C46.6719 132.194 50.8648 134.561 55.1613 136.736C55.6571 136.987 56.1091 137.331 56.5814 137.633C48.4587 136.634 40.5576 134.606 32.7585 132.103C32.2445 131.875 31.7394 131.621 31.2149 131.423C25.6461 129.32 20.2018 126.959 15.4696 123.149C13.5506 121.604 11.849 119.835 10.6514 117.605C8.95155 114.441 8.79733 111.184 10.6049 108.083C11.6295 106.326 12.9468 104.673 14.4086 103.287C17.8826 99.9936 22.0628 97.8369 26.3785 95.9994C38.6948 90.7554 51.6446 88.2887 64.7824 86.6851C67.3938 86.3662 70.0141 86.1237 72.6304 85.846C72.2957 85.6434 71.9624 85.5659 71.6305 85.5713C66.0041 85.6652 60.3707 85.6215 54.7532 85.911C48.6202 86.227 42.4958 86.7798 36.3794 87.3628C26.6576 88.2894 17.0228 89.8549 7.50249 92.1049C0.563923 93.7447 -6.27769 95.744 -12.745 98.907C-15.8739 100.437 -18.8721 102.194 -21.2351 104.9C-24.1825 108.275 -24.2853 111.994 -21.273 115.276C-19.8267 116.852 -18.0917 118.205 -16.3162 119.379C-12.7677 121.726 -8.84529 123.288 -4.85348 124.618C-1.42853 125.759 2.03748 126.765 5.4852 127.832C3.74599 127.669 2.0116 127.96 0.24617 127.52C-1.36297 127.12 -3.09874 127.298 -4.76826 127.116C-6.20041 126.96 -7.61567 126.641 -9.04264 126.423C-10.0925 126.262 -11.1479 126.133 -12.2033 126.014C-14.3013 125.778 -16.4097 125.62 -18.4977 125.313C-20.2928 125.049 -22.0655 124.62 -23.8482 124.265C-23.9044 124.254 -23.9631 124.234 -24.0179 124.24C-25.3335 124.406 -26.5773 124.159 -27.7814 123.594C-28.027 123.478 -28.3462 123.53 -28.6311 123.505C-28.7747 123.419 -28.9092 123.288 -29.0634 123.254C-32.4263 122.514 -35.8095 121.864 -39.152 121.035C-44.786 119.637 -50.3766 118.04 -55.5691 115.304C-57.3928 114.343 -59.1828 113.173 -60.7064 111.769C-63.5489 109.149 -63.5117 106.091 -60.6698 103.475C-59.3122 102.225 -57.7696 101.059 -56.1191 100.312C-52.5575 98.7007 -48.9293 97.1936 -45.2249 95.9865C-37.4438 93.4509 -29.4267 91.9356 -21.3769 90.6725C-15.7645 89.7918 -10.1222 89.1077 -4.48294 88.4247C-0.721603 87.9691 3.05836 87.6828 6.82695 87.29C7.64498 87.2046 8.44508 86.8979 9.26208 86.8487C11.996 86.6844 14.7902 86.8964 17.4503 86.3641C19.2823 85.9974 20.9946 85.799 22.8 86.133C23.0754 86.184 23.3714 86.114 23.6578 86.1C27.2135 85.9293 30.7675 85.6728 34.3245 85.6053C42.4224 85.4525 50.5219 85.3944 58.6204 85.2904C59.053 85.285 59.4847 85.2089 59.8973 85.1677V69.8334H50.0192V57.292H8.89255V35.0879C8.7573 33.2938 8.62171 31.4998 8.47198 29.5134H36.5012C36.5509 30.1638 36.643 30.8139 36.6441 31.4643C36.6548 38.4453 36.6506 45.4263 36.651 52.4074C36.651 53.0445 36.651 53.6816 36.651 54.5089H71.1558V68.3884H79.1698V85.2861H95.0369V66.2729H88.4203V51.1776H59.6572C59.6572 47.469 59.6651 43.9577 59.6554 40.4463C59.6396 34.8396 59.6116 29.2329 59.5885 23.6262V16.9727C59.9284 16.9006 60.1367 16.8177 60.3455 16.8177C66.2587 16.8098 72.1722 16.8091 78.0854 16.8141C78.3697 16.8141 78.654 16.8769 78.9383 16.9103C78.9248 26.8132 78.9107 36.7165 78.9051 46.6195C78.9051 46.7788 79.0114 46.9381 79.1246 47.257H103.005V64.2368C107.138 64.1603 111.062 64.3713 115.007 64.1112V42.9525H94.9372V40.8173C94.9372 30.8533 94.9386 20.8894 94.9334 10.9251C94.9334 10.2718 94.8813 9.61856 94.8534 8.96494V0.527785H135.749V42.6443H155.761V64.2163H176.668V84.8523H192.382C191.784 84.5621 191.509 84.3906 191.211 84.2895C188.498 83.365 186.135 81.8379 183.987 79.901C183.4 79.3719 182.667 78.7803 182.167 78.2168C181.046 76.9529 180.191 75.6019 179.087 73.5209C178.592 72.3378 178.272 71.174 177.959 69.8657C177.776 68.7335 177.64 68.0171 177.497 67.0898C177.081 64.3924 177.337 61.7453 177.914 59.1079C178.262 57.5205 178.633 55.9348 178.88 54.3291C178.949 53.88 178.7 53.306 178.444 52.8906C177.888 51.988 177.892 51.1095 178.304 50.1803C179.164 50.7887 180.025 51.3975 180.941 52.045C181.489 51.3147 181.964 50.6808 182.252 50.2976C180.757 48.6593 179.399 47.1702 178.041 45.681C177.544 44.3157 177.385 42.9417 177.941 41.5487C178.064 41.647 178.242 41.7181 178.302 41.8479C179.6 44.6525 181.828 46.4613 184.386 48.0444C185.074 47.5031 185.751 46.9707 186.52 46.3655C182.77 44.2601 179.788 41.4917 178.021 37.4893C177.884 35.7479 177.705 33.437 177.567 31.6956C177.737 31.9077 178.022 32.6621 178.107 32.906C179.634 37.3067 182.586 40.4316 186.307 42.8911C188.137 44.1001 189.914 45.0141 192.153 43.7808C193.139 43.2377 194.379 43.1921 195.688 42.8764C187.767 41.6431 182.26 37.453 179.009 30.1305C178.441 28.8523 178.089 27.4715 177.637 26.1381C177.389 23.529 177.195 20.9425 177.561 18.3025C178.791 9.42197 186.338 1.84758 194.898 0.653343C203.5 -0.546276 212.175 4.0549 216.111 12.3173C216.263 12.6352 216.456 12.9315 216.63 13.2379C216.778 13.7437 216.919 14.252 217.075 14.755C219.198 21.6029 218.396 28.0541 214.426 33.9553C211.06 38.959 206.342 41.8364 200.396 42.7903C200.689 43.0185 200.855 43.2567 201.042 43.2761C203.602 43.5419 205.879 44.6113 208.132 45.817C208.678 46.1094 209.475 46.2105 210.067 46.047C213.877 44.9923 217.352 43.2176 220.346 40.5134C225.507 35.8538 228.16 28.4652 224.597 21.2191C224.457 20.9339 224.103 20.3452 224.057 20.0098C227.382 21.581 230.818 23.7819 233.313 26.5987C233.534 26.9445 233.75 27.2925 233.975 27.6358C236.843 32.0235 236.685 36.8837 233.441 41.0017C232.479 42.2224 231.308 43.2657 230.308 44.3117C232.726 43.8795 235.277 43.1318 237.849 43.0457C240.439 42.9589 243.05 43.5297 245.846 43.8335C248.018 41.7654 248.415 37.603 246.285 34.6046C245.748 33.8491 245.252 33.0624 244.737 32.2901C246.902 32.9957 249.14 33.5241 251.213 34.4515C253.756 35.589 256.161 37.0602 258.626 38.3872C259.138 39.0196 259.69 39.6223 260.156 40.2899C261.618 42.3846 261.587 44.4843 260.202 46.584C259.399 47.8012 258.496 48.2909 257.017 47.878C255.23 47.3793 253.376 47.0873 251.232 47.3373C257.454 53.0527 260.181 59.9509 258.62 68.2675C257.054 76.6118 251.938 81.863 243.963 84.8211C248.814 85.5239 253.253 85.0529 257.755 85.2254C257.602 84.9517 257.524 84.8122 257.43 84.645C257.588 84.6037 257.737 84.5632 257.887 84.5255C262.786 83.2918 267.193 81.0949 270.662 77.2076C273.994 73.4746 275.654 69.1077 274.868 63.948C274.206 59.6047 271.938 56.2444 268.771 53.4714C267.914 52.7209 266.98 52.0651 265.948 51.263C267.13 51.263 268.107 51.1934 269.071 51.2795C270.498 51.4072 271.921 51.6196 273.338 51.846C274.275 51.9955 275.089 51.9955 275.905 51.2885C278.491 49.0471 278.581 46.6938 276.052 44.3849C275.58 43.9541 275.026 43.6215 274.535 43.2111C274.233 42.9589 273.978 42.6461 273.702 42.3602C276.437 42.852 279.207 43.1932 281.899 43.8708C285.903 44.8789 289.851 46.1248 293.823 47.2695C294.538 47.747 295.277 48.1901 295.963 48.7084C298.349 50.5111 298.373 52.3424 296.023 54.1476C295.341 54.6717 294.578 55.0818 293.891 55.5191C292.493 54.9207 291.16 54.5218 290.098 55.2131C288.253 54.5957 286.635 54.3959 284.653 54.4945C284.939 55.0721 285.033 55.5625 285.32 55.7845C286.029 56.3334 286.857 56.7137 287.581 57.2432C289.398 58.5709 291.126 59.99 292.415 61.9294C295.186 66.0975 295.194 70.6 292.396 74.7506C290.852 77.0408 288.737 78.6641 286.553 80.2013C285.631 80.8503 284.697 81.5756 283.661 81.9362C280.668 82.9787 277.621 83.854 274.198 84.918C275.517 85.0604 276.467 85.2534 277.417 85.2505C281.896 85.2369 286.375 85.1687 290.854 85.1225C291.58 85.1149 292.307 85.1214 293.243 85.1214V100.603H302.491V112.803H343.574C343.574 113.532 343.574 114.112 343.574 114.694C343.574 120.838 343.571 126.981 343.581 133.126C343.582 133.775 343.666 134.424 343.711 135.073V140.301C343.216 140.389 342.897 140.494 342.578 140.495C334.082 140.503 325.585 140.5 317.089 140.497C316.918 140.497 316.748 140.456 316.577 140.434V115.974H282.036V102.353H274.134V85.1903H258.363V104.297H264.915V119.736H293.547V121.827C293.547 129.525 293.545 137.222 293.551 144.919C293.551 145.572 293.609 146.225 293.64 146.878V153.849C293.299 153.938 293.09 154.041 292.881 154.041C286.932 154.05 280.982 154.05 275.033 154.044C274.751 154.044 274.47 153.965 274.188 153.923C274.209 153.746 274.249 153.569 274.249 153.392C274.253 143.723 274.254 134.054 274.247 124.385C274.247 124.054 274.154 123.723 274.083 123.255H250.293V106.451H238.376V127.612H258.369V129.698C258.369 139.666 258.367 149.633 258.373 159.6C258.373 160.254 258.426 160.908 258.455 161.561V170.031H217.606V127.957H197.574V106.356C198.954 106.313 200.333 106.27 201.712 106.228C206.868 106.245 212.023 106.264 217.179 106.274C217.275 106.274 217.371 106.164 217.436 106.124V104.203H206.652C206.615 103.605 206.578 103.007 206.541 102.409C208.499 102.395 210.456 102.38 212.414 102.366C214.107 102.366 215.8 102.366 217.585 102.366C217.544 101.665 217.514 101.141 217.483 100.616V98.7133H212.456V85.238C210.486 85.3765 208.628 85.5074 206.666 85.6455V100.662C206.639 101.259 206.612 101.856 206.585 102.453C204.97 102.444 203.354 102.435 201.738 102.426V85.4884C209.655 85.0992 216.674 82.9442 222.183 76.7933C219.965 73.7419 218.915 70.3238 218.124 66.5958C218.038 66.9736 217.992 67.1432 217.961 67.3162C216.35 76.3068 211.323 82.1119 202.888 84.7232C202.133 84.9567 201.746 84.965 200.345 85.1264C199.759 85.247 199.669 85.3402 199.037 85.4206C198.381 85.4991 198.123 85.3922 197.705 85.6617V104.245C197.674 104.962 197.644 105.68 197.614 106.397C191.295 106.376 184.977 106.355 178.658 106.334C178.041 106.332 177.424 106.334 176.618 106.334C176.618 105.235 176.625 103.356 176.625 103.356L176.67 89.8908C176.67 89.8908 176.558 86.8713 176.558 85.5497H146.643C146.622 84.7766 146.585 84.0036 146.581 83.2301C146.557 78.7646 146.54 74.299 146.521 69.8334C146.524 69.3498 146.527 68.8666 146.531 68.383C148.149 68.3927 149.767 68.4024 151.385 68.4121C151.423 69.0015 151.492 69.5906 151.493 70.18C151.503 74.5896 151.498 78.9988 151.498 83.4084V85.2688H155.519C155.588 85.027 155.674 84.8631 155.674 84.6999C155.659 78.5655 155.637 72.431 155.615 66.2966V64.4312H151.372C146.68 64.396 141.988 64.3609 137.296 64.3264C136.859 64.3232 136.423 64.3261 135.945 64.3261V66.2812H146.468C146.504 66.9969 146.54 67.7122 146.576 68.4279C144.62 68.4473 142.664 68.4666 140.709 68.4864C139.104 68.4379 137.458 68.3163 135.854 68.4774C135.877 68.9136 135.899 69.4521 135.92 69.8557V71.3007H140.687V85.0658C139.723 85.144 138.941 85.2071 138.159 85.2706C138.164 85.3338 138.169 85.3973 138.174 85.4604C139.594 85.6114 141.015 85.7621 142.435 85.9131L142.436 85.9135ZM172.4 108.904C172.375 108.693 172.289 108.659 172.263 108.449C172.188 108.481 172.171 108.337 172.095 108.369C172.208 108.539 172.32 108.709 172.432 108.879C172.759 109.61 173.087 110.341 173.414 111.073C174.147 113.537 174.88 116.001 175.614 118.465C175.404 115.81 174.91 113.251 173.517 110.98C173.145 110.288 172.773 109.596 172.401 108.904L172.4 108.904ZM220.475 53.2411C220.857 52.9555 221.302 52.7284 221.612 52.3744C222.802 51.0151 223.949 49.615 225.112 48.2299C225.337 47.9619 225.561 47.6936 225.786 47.4252C225.214 47.3897 224.797 47.5415 224.379 47.6878C222.432 48.3683 220.488 49.06 218.536 49.7237C216.684 50.3532 214.854 50.501 213.104 49.3581C212.944 49.2537 212.725 49.2476 212.2 49.1066C215.532 52.765 217.412 56.7973 218.045 61.3966C218.841 59.0548 219.645 56.728 220.402 54.3851C220.47 54.1727 220.237 53.8545 220.143 53.5855C220.254 53.4703 220.365 53.3555 220.475 53.2404L220.475 53.2411ZM234.634 85.1279C234.643 85.0626 234.652 84.9969 234.661 84.9316C233.455 84.8057 232.249 84.5786 231.044 84.5815C229.73 84.5844 228.419 84.8423 227.102 84.9101C225.927 84.9704 224.747 84.9227 223.569 84.9227C223.568 84.834 223.568 84.7451 223.567 84.6565C225.547 84.2522 227.526 83.8475 229.714 83.4009C228.661 82.7218 227.864 82.1328 227.001 81.6847C226.603 81.4788 225.986 81.3507 225.616 81.525C221.744 83.3499 217.69 84.4839 213.497 85.1282H234.634V85.1279Z" fill="#EBEBEB"/>
<path d="M493.155 69.1871C493.555 69.0476 493.953 68.7893 494.353 68.7871C499.181 68.7627 504.009 68.7315 508.836 68.7932C513.474 68.8524 518.112 69.0067 522.749 69.1408C526.237 69.2417 529.725 69.3636 533.212 69.5014C535.609 69.5961 538.005 69.7191 540.4 69.8562C544.33 70.0811 548.26 70.3096 552.188 70.5715C555.372 70.7839 558.556 71.0099 561.734 71.2979C565.188 71.6111 568.655 71.8669 572.081 72.3939C576.621 73.0916 581.136 73.973 585.639 74.8975C586.886 75.1537 588.222 75.5379 589 76.9438C588.587 78.1315 587.479 78.4454 586.485 78.7618C584.696 79.3308 582.883 79.8775 581.041 80.1921C577.629 80.7754 574.195 81.2465 570.757 81.6504C567.088 82.0812 563.407 82.4195 559.725 82.7252C556.205 83.0175 552.678 83.2364 549.152 83.4505C544.882 83.7103 540.611 83.9937 536.336 84.1526C531.185 84.3442 526.03 84.398 520.878 84.5576C519.991 84.5852 519.11 84.8435 518.246 85.241H584.453V93.1289H517.67V85.2568H461.61V94.1976C462.31 94.1976 462.927 94.1962 463.544 94.1976C470.662 94.2145 477.78 94.2321 484.898 94.2493V101.692C490.496 101.729 496.036 101.704 501.575 101.709C507.147 101.713 512.718 101.709 518.29 101.709C523.919 101.709 529.547 101.709 535.176 101.709H585.456V117.847H518.517C518.459 113.049 518.401 108.25 518.342 103.325H434.093V95.3431H414.935V85.1868H376.017V96.4261H391.844V105.627H462.357C462.357 106.377 462.357 106.959 462.357 107.542C462.357 111.002 462.345 114.462 462.364 117.922C462.371 119.17 462.451 120.418 462.498 121.665V125.675C458.523 125.783 454.655 125.712 450.789 125.725C446.892 125.737 442.995 125.727 439.097 125.727C435.2 125.727 431.302 125.727 427.405 125.727C423.508 125.728 419.611 125.73 415.713 125.731C415.682 125.079 415.624 124.426 415.623 123.773C415.615 119 415.619 114.227 415.619 109.454C415.619 108.881 415.619 108.309 415.619 107.58H356.65V97.5052H343.121V84.8471H313.754C314.031 84.6039 314.312 84.5802 314.594 84.5569C320.499 84.0679 326.315 83.0477 331.989 81.2651C335.621 80.124 339.167 78.7414 342.156 76.1961C345.816 73.0809 345.836 69.4268 342.225 66.2835C341.873 65.9775 341.525 65.641 341.12 65.4322C338.817 64.2448 336.527 63.0201 334.172 61.9539C332.722 61.2978 331.164 60.9017 329.654 60.3887C333.675 60.3414 337.667 60.4533 341.644 60.779C343.821 60.9573 345.877 60.8371 347.815 59.752C348.609 59.3071 349.652 58.9534 349.647 57.8334C349.641 56.7188 348.629 56.2898 347.8 55.9379C346.32 55.3097 344.788 54.8172 343.277 54.2676C345.031 54.3017 346.784 54.3332 348.538 54.3723C348.823 54.3788 349.106 54.4229 349.39 54.4419C353.022 54.6848 356.668 54.7946 360.283 55.1985C365.685 55.8023 371.074 56.557 376.452 57.3678C378.178 57.6279 379.86 58.2331 381.544 58.7453C382.809 59.1299 382.804 59.1837 383.791 60.553C383.324 61.64 382.27 61.8943 381.346 62.285C380.365 62.7004 379.337 62.9957 378.329 63.3436C374.603 63.1815 370.878 62.9752 367.15 62.8723C364.425 62.7969 361.695 62.8576 358.877 62.8576C360.23 63.1711 361.511 63.447 362.782 63.7662C366.518 64.7043 370.25 65.7016 373.624 67.6761C374.9 68.4227 376.123 69.393 377.114 70.5069C378.381 71.9307 378.296 73.5164 377.132 75.0511C376.677 75.6509 376.131 76.2399 375.507 76.6252C374.035 77.5346 372.546 78.4601 370.966 79.1274C365.46 81.4527 359.658 82.5946 353.805 83.4531C350.426 83.9488 347.028 84.3025 343.638 84.7205C344.53 84.9314 345.435 85.0311 346.342 85.043C356.559 85.1743 366.772 85.3626 376.983 84.6333C384.544 84.093 392.077 83.3698 399.545 82.0224C404.008 81.217 408.453 80.2818 412.639 78.4182C413.991 77.8158 415.314 77.0198 416.457 76.0638C417.935 74.8279 417.924 73.2384 416.484 71.9455C415.545 71.1024 414.46 70.3075 413.306 69.8755C410.405 68.7889 407.445 67.8562 404.474 66.987C402.452 66.3954 400.373 66.0152 398.319 65.5406C398.79 65.4229 399.261 65.2094 399.733 65.2037C402.316 65.1732 404.902 65.1488 407.485 65.2087C410.455 65.2776 413.424 65.4017 416.39 65.5649C420.031 65.7655 423.67 66.0137 427.307 66.2742C430.431 66.4977 433.551 66.7678 436.673 67.0171C436.856 67.1129 437.032 67.2657 437.225 67.2959C442.779 68.1683 448.362 68.8718 453.877 69.9548C456.719 70.513 459.465 71.6689 462.2 72.7074C463.302 73.1257 464.526 73.836 464.495 75.305C464.464 76.7601 463.221 77.4083 462.122 77.8557C459.942 78.7425 457.735 79.6275 455.465 80.1918C446.175 82.502 436.689 83.4 427.192 84.173C423.974 84.4349 420.754 84.6642 417.534 84.9085C425.245 85.2521 432.943 85.331 440.638 85.2299C448.501 85.1266 456.362 84.8274 464.225 84.6606C465.623 84.6308 467.043 84.2258 468.441 84.9088C468.84 85.104 469.448 84.8869 469.95 84.7983C470.784 84.6512 471.602 84.3578 472.439 84.2947C479.481 83.763 486.54 83.4297 493.564 82.7173C499.779 82.087 505.977 81.1844 512.139 80.1254C514.762 79.6745 517.34 78.6897 519.809 77.6254C521.614 76.8476 521.587 75.4658 519.839 74.5431C518.372 73.7686 516.782 73.1795 515.186 72.7494C509.566 71.2348 503.81 70.5313 498.055 69.8486C496.419 69.6546 494.788 69.4092 493.155 69.1875L493.155 69.1871Z" fill="#EBEBEB"/>
<path d="M-167.337 52.282V48.8041C-166.819 48.7621 -166.438 48.7043 -166.056 48.7043C-147.843 48.7 -129.631 48.7004 -111.418 48.7018C-111.189 48.7018 -110.959 48.7205 -110.73 48.7302V65.2357H-40.2002V74.0667H-23.4288V85.3347H9.23163V72.752H-4.54547V62.6388H-63.441C-63.441 61.7498 -63.4386 61.041 -63.4414 60.3321C-63.4628 55.1433 -63.4848 49.9545 -63.5069 44.7658V40.1309H-24.1633C-24.1163 40.782 -24.0301 41.4327 -24.0291 42.0838C-24.0184 47.513 -24.0232 52.9421 -24.0232 58.3712C-24.0232 58.9502 -24.0232 59.5293 -24.0232 60.2557H25.2706V71.3525H36.8945V85.1148C36.4391 85.1403 36.1047 85.1751 35.7708 85.1754C24.9798 85.1952 14.1881 85.0929 3.40918 85.8402C-0.141357 86.0863 -3.7095 86.0497 -7.26418 86.2498C-17.3534 86.8181 -27.4516 87.2823 -37.5236 88.0905C-46.7879 88.8342 -56.0319 89.8917 -65.2689 90.959C-74.1057 91.98 -82.8705 93.5139 -91.5244 95.6581C-96.1528 96.805 -100.766 98.0634 -105.021 100.345C-106.426 101.099 -107.776 102.087 -108.914 103.225C-110.401 104.713 -110.367 106.416 -108.94 107.977C-108.124 108.87 -107.158 109.728 -106.098 110.247C-103.618 111.461 -101.093 112.627 -98.4917 113.516C-92.0534 115.716 -85.4011 117.009 -78.7358 118.219C-77.1874 118.5 -75.6624 118.922 -74.1268 119.28C-75.3374 119.376 -76.5474 119.53 -77.7591 119.546C-78.4222 119.555 -79.0853 119.256 -79.7536 119.225C-82.639 119.095 -85.5298 119.077 -88.4114 118.891C-90.5349 118.755 -92.6464 118.423 -94.7638 118.182C-94.9918 118.156 -95.222 118.152 -95.4517 118.142C-97.7057 118.04 -99.9642 118 -102.212 117.818C-103.937 117.679 -105.648 117.36 -107.365 117.123C-107.535 117.1 -107.708 117.094 -107.881 117.085C-109.964 116.978 -112.051 116.901 -114.131 116.748C-114.905 116.692 -115.661 116.417 -116.434 116.316C-117.513 116.175 -118.6 116.103 -119.683 116.001C-119.89 115.917 -120.09 115.786 -120.304 115.755C-128.033 114.651 -135.778 113.648 -143.49 112.429C-148.875 111.579 -154.222 110.424 -159.363 108.503C-161.287 107.785 -163.199 106.871 -164.895 105.699C-166.964 104.269 -166.907 102.406 -164.819 100.957C-163.358 99.9432 -161.726 99.1253 -160.074 98.4921C-154.021 96.1722 -147.704 94.885 -141.354 93.9093C-133.068 92.6361 -124.755 91.5086 -116.427 90.5924C-107.578 89.6187 -98.7021 88.874 -89.8259 88.1999C-82.0352 87.6084 -74.232 87.1341 -66.4268 86.8195C-53.8538 86.313 -41.2742 85.9797 -28.6971 85.5772C-28.0405 85.556 -27.3829 85.5743 -26.726 85.5743C-26.7271 85.4588 -26.7278 85.3433 -26.7288 85.2282H-62.8683V75.1695H-82.9546V66.9045H-167.337V52.2824V52.282Z" fill="#EBEBEB"/>
<path d="M-74.1262 119.28C-75.6619 118.923 -77.1865 118.5 -78.7353 118.219C-85.4009 117.009 -92.0531 115.716 -98.4911 113.516C-101.092 112.627 -103.617 111.461 -106.097 110.247C-107.157 109.728 -108.123 108.87 -108.94 107.977C-110.367 106.416 -110.4 104.713 -108.913 103.225C-107.776 102.088 -106.426 101.099 -105.02 100.345C-100.765 98.0634 -96.1522 96.805 -91.5239 95.6581C-82.8699 93.5139 -74.1052 91.9799 -65.2683 90.959C-56.0313 89.8917 -46.7877 88.8342 -37.523 88.0905C-27.4511 87.2819 -17.3528 86.818 -7.26361 86.2498C-3.70894 86.0496 -0.140816 86.0862 3.40972 85.8401C14.1886 85.0929 24.9803 85.1951 35.7713 85.1754C36.1053 85.1747 36.4396 85.1402 36.895 85.1148V71.3525H25.2712V60.2557H-24.0227C-24.0227 59.5296 -24.0227 58.9506 -24.0227 58.3712C-24.0227 52.9421 -24.0178 47.5129 -24.0285 42.0838C-24.0299 41.4327 -24.1162 40.7819 -24.1627 40.1308V35.0898H8.89302V57.2939H50.0197V69.8354H59.8978V85.1696C59.4855 85.2109 59.0535 85.287 58.6209 85.2923C50.522 85.3967 42.4228 85.4545 34.325 85.6073C30.7676 85.6744 27.2136 85.9312 23.6582 86.102C23.3719 86.1156 23.0758 86.1859 22.8005 86.135C20.9951 85.801 19.2831 85.9994 17.4507 86.366C14.7907 86.898 11.9964 86.6864 9.26253 86.8507C8.44553 86.8998 7.64545 87.2069 6.82743 87.2919C3.05885 87.6848 -0.72113 87.971 -4.48247 88.4266C-10.1214 89.1097 -15.7641 89.7938 -21.3764 90.6745C-29.4259 91.9376 -37.4434 93.4529 -45.2244 95.9885C-48.9289 97.1956 -52.5567 98.7023 -56.1186 100.314C-57.7691 101.061 -59.3117 102.227 -60.6693 103.477C-63.5109 106.093 -63.5481 109.151 -60.7059 111.771C-59.1827 113.175 -57.3924 114.345 -55.5686 115.306C-50.3762 118.042 -44.7856 119.639 -39.1515 121.037C-35.8093 121.866 -32.4258 122.516 -29.063 123.256C-28.9087 123.29 -28.7745 123.421 -28.6307 123.507C-29.6505 124.311 -30.7943 123.838 -31.8876 123.826C-32.2737 123.822 -32.6549 123.599 -33.0437 123.576C-35.3733 123.437 -37.7104 123.397 -40.0341 123.19C-43.192 122.908 -46.3381 122.49 -49.4923 122.161C-51.0738 121.995 -52.6667 121.94 -54.2462 121.758C-56.831 121.462 -59.4066 121.082 -61.9904 120.777C-64.4117 120.492 -66.8413 120.285 -69.2622 119.995C-70.8886 119.8 -72.5057 119.521 -74.1269 119.279L-74.1262 119.28Z" fill="#EBEBEB"/>
<path d="M343.277 54.263C344.787 54.8122 346.32 55.3051 347.8 55.9332C348.629 56.2852 349.641 56.7139 349.646 57.8288C349.652 58.9488 348.609 59.3029 347.815 59.7473C345.876 60.8325 343.82 60.9527 341.644 60.7744C337.667 60.4487 333.675 60.3368 329.654 60.3841C331.164 60.8971 332.722 61.2931 334.171 61.9493C336.527 63.0154 338.817 64.2402 341.12 65.4276C341.524 65.636 341.873 65.9729 342.224 66.2789C345.836 69.4221 345.816 73.0762 342.156 76.1915C339.166 78.7368 335.621 80.119 331.989 81.2605C326.315 83.0431 320.499 84.0633 314.594 84.5523C314.312 84.5756 314.031 84.5993 313.754 84.8425H343.121V97.5006H356.649V107.576H415.618C415.618 108.304 415.618 108.877 415.618 109.45C415.618 114.223 415.615 118.996 415.623 123.769C415.624 124.422 415.682 125.074 415.713 125.727V130.206H413.69C402 130.206 390.31 130.205 378.621 130.208C377.991 130.208 377.362 130.243 376.733 130.262C376.641 129.627 376.47 128.992 376.468 128.356C376.446 122.926 376.458 117.497 376.451 112.067C376.451 111.44 376.4 110.813 376.364 110.012H327.172V98.7716H316.155V85.1524C312.221 85.1524 308.431 85.1715 304.641 85.1471C300.9 85.123 297.15 85.292 293.022 84.8192C293.525 84.3166 293.868 83.8897 293.926 83.9281C294.995 84.6334 296.04 84.049 297.094 83.9374C297.635 83.88 298.187 83.9274 298.857 83.9274C299.343 82.9028 300.117 82.2162 301.45 82.802C301.631 82.8816 301.907 82.7815 302.124 82.7137C306.085 81.479 309.936 79.9881 313.275 77.3642C314.847 76.1295 316.293 74.725 317.012 72.7756C317.631 71.0985 318.442 69.321 316.818 67.6927C316.758 67.6324 316.701 67.4807 316.732 67.4243C317.323 66.3438 316.439 65.6985 315.94 65.1184C314.327 63.245 312.725 61.2878 310.118 60.8386C309.982 60.8149 309.773 60.6715 309.757 60.5592C309.625 59.6326 308.809 59.596 308.229 59.3233C306.84 58.6701 305.412 58.1054 303.9 57.4622C305.734 57.4622 307.435 57.3912 309.127 57.4787C311.649 57.6093 314.168 57.8324 316.685 58.053C318.399 58.2033 319.647 57.2972 320.778 56.1567C321.365 55.5645 321.61 54.7347 320.988 54.0793C320.401 53.4612 319.644 52.9719 318.887 52.5837C317.473 51.8587 316.004 51.2481 314.558 50.5898C316.493 50.7021 318.432 50.7696 320.362 50.9403C322.059 51.0903 323.742 51.4027 325.438 51.5624C330.92 52.0782 336.373 52.7824 341.745 54.0628C342.244 54.1819 342.766 54.1991 343.277 54.2637L343.277 54.263Z" fill="#EBEBEB"/>
<path d="M314.558 50.5921C316.005 51.2504 317.474 51.861 318.888 52.586C319.645 52.9742 320.402 53.4635 320.988 54.0816C321.611 54.7374 321.365 55.5668 320.778 56.159C319.648 57.2998 318.4 58.2056 316.685 58.0553C314.168 57.8347 311.65 57.6116 309.128 57.481C307.435 57.3935 305.735 57.4645 303.9 57.4645C305.413 58.1077 306.841 58.672 308.23 59.3256C308.81 59.5983 309.626 59.6348 309.757 60.5615C309.773 60.6738 309.982 60.8172 310.119 60.8409C312.725 61.2901 314.328 63.2473 315.94 65.1207C316.44 65.7007 317.323 66.3461 316.732 67.4266C316.701 67.483 316.758 67.6347 316.818 67.695C318.442 69.3229 317.631 71.1008 317.013 72.7779C316.294 74.7273 314.847 76.1318 313.276 77.3665C309.937 79.9907 306.085 81.4813 302.124 82.716C301.907 82.7838 301.632 82.8839 301.451 82.8043C300.118 82.2188 299.344 82.9055 298.857 83.9297C298.188 83.9297 297.636 83.8823 297.094 83.9397C296.04 84.0513 294.996 84.636 293.926 83.9304C293.868 83.892 293.526 84.3185 293.023 84.8215C297.15 85.2947 300.901 85.1253 304.642 85.1494C308.432 85.1738 312.221 85.1547 316.155 85.1547V98.7739H327.173V110.014H376.365C376.4 110.815 376.451 111.442 376.452 112.069C376.459 117.499 376.447 122.928 376.468 128.358C376.471 128.994 376.641 129.629 376.734 130.264C376.576 130.677 376.308 131.083 376.282 131.504C376.217 132.572 376.261 133.646 376.261 135.008C365.36 135.029 354.536 135.05 343.712 135.071C343.667 134.422 343.583 133.773 343.582 133.124C343.571 126.98 343.575 120.836 343.575 114.692C343.575 114.111 343.575 113.53 343.575 112.801H302.492V100.602H293.244V85.1199C292.308 85.1199 291.581 85.1135 290.854 85.121C286.375 85.1669 281.897 85.2355 277.418 85.2491C276.468 85.252 275.517 85.059 274.199 84.9165C277.622 83.8522 280.669 82.9772 283.662 81.9347C284.698 81.5742 285.632 80.8485 286.554 80.1999C288.738 78.6627 290.852 77.0394 292.397 74.7492C295.195 70.5986 295.187 66.0961 292.416 61.9279C291.127 59.9886 289.399 58.5694 287.582 57.2417C286.857 56.7122 286.03 56.3316 285.321 55.7831C285.034 55.561 284.94 55.0706 284.654 54.4931C286.636 54.3944 288.254 54.5939 290.098 55.2116C291.161 54.5203 292.494 54.9192 293.892 55.5176C294.579 55.0803 295.342 54.6699 296.024 54.1462C298.374 52.341 298.349 50.5096 295.964 48.707C295.277 48.1886 294.538 47.7456 293.824 47.2681C294.007 47.1619 294.204 46.9445 294.372 46.9664C297.78 47.4159 301.195 47.8259 304.587 48.3859C307.087 48.7988 309.558 49.4054 312.039 49.9457C312.885 50.1301 313.719 50.3747 314.559 50.5918L314.558 50.5921Z" fill="#EBEBEB"/>
<path d="M-63.5069 44.7656C-63.4848 49.9544 -63.4628 55.1432 -63.4414 60.332C-63.4386 61.0408 -63.441 61.7497 -63.441 62.6387H-4.54547V72.7518H9.23161V85.3346H-23.4288V74.0666H-40.2002V65.2356H-110.73V44.7656H-63.5069Z" fill="#EBEBEB"/>
<path d="M293.642 146.876C293.611 146.223 293.553 145.57 293.552 144.917C293.546 137.219 293.548 129.522 293.548 121.825V119.734H264.917V104.294H258.364V85.1875H274.135V102.35H282.038V115.971H316.579V146.876H293.642V146.876Z" fill="#EBEBEB"/>
<path d="M59.588 23.6234C59.6108 29.2301 59.6391 34.8368 59.6549 40.4435C59.6649 43.9549 59.6567 47.4662 59.6567 51.1748H88.4198V66.2702H95.0364V85.2833H79.1693V68.3856H71.1553V54.5061H36.6505C36.6505 53.6788 36.6505 53.0417 36.6505 52.4046C36.6505 45.4235 36.6543 38.4425 36.6436 31.4615C36.6425 30.8111 36.5504 30.161 36.5007 29.5106V23.623H59.588V23.6234Z" fill="#EBEBEB"/>
<path d="M5.48717 127.831C2.03945 126.765 -1.4269 125.758 -4.85151 124.617C-8.84332 123.288 -12.7658 121.726 -16.3142 119.378C-18.0897 118.204 -19.8248 116.851 -21.2711 115.275C-24.2834 111.993 -24.1806 108.274 -21.2331 104.899C-18.8701 102.193 -15.8719 100.436 -12.743 98.9063C-6.27537 95.7437 0.566238 93.7441 7.50446 92.1043C17.0248 89.8546 26.6593 88.2891 36.3814 87.3621C42.4978 86.7792 48.6222 86.2263 54.7551 85.9103C60.3726 85.6208 66.006 85.6646 71.6325 85.5706C71.9644 85.5652 72.2977 85.6423 72.6324 85.8454C70.0161 86.123 67.3961 86.3659 64.7843 86.6845C51.6462 88.2884 38.6968 90.7547 26.3805 95.9987C22.0644 97.8365 17.8846 99.9933 14.4106 103.286C12.9488 104.672 11.6315 106.326 10.6068 108.083C8.79896 111.183 8.95353 114.44 10.6534 117.605C11.851 119.834 13.5526 121.603 15.4715 123.148C20.2037 126.958 25.6484 129.32 31.2169 131.422C31.7417 131.62 32.2464 131.874 32.7605 132.102C32.0605 132.899 31.1424 132.543 30.3696 132.448C27.2327 132.059 24.0958 131.626 20.9855 131.056C16.6535 130.261 12.344 129.334 8.0275 128.449C7.17463 128.275 6.33349 128.039 5.48717 127.831V127.831Z" fill="#EBEBEB"/>
<path d="M56.5831 137.636C56.1108 137.335 55.6588 136.99 55.163 136.739C50.8666 134.564 46.674 132.198 43.2507 128.67C41.7551 127.129 40.3216 125.437 39.2255 123.58C36.2618 118.56 36.335 113.409 39.2652 108.368C41.7334 104.121 45.3733 101.131 49.3779 98.5884C56.146 94.2911 63.5421 91.5909 71.1855 89.5927C78.5401 87.6699 86.0062 86.3404 93.5851 85.9175C99.0774 85.6107 104.583 85.5673 110.083 85.4062C110.088 85.5254 110.092 85.6445 110.097 85.7636C107.786 86.0649 105.466 86.3146 103.163 86.6765C93.2108 88.2406 83.7126 91.2042 75.0748 96.7251C70.8829 99.4046 67.1412 102.633 64.2448 106.815C61.4192 110.893 59.7935 115.389 59.9901 120.491C60.1557 124.789 61.5993 128.623 63.9257 132.127C66.8131 136.476 70.639 139.769 74.893 142.578C75.3532 142.882 75.7569 143.278 76.1871 143.631C73.8121 143.105 71.3946 142.727 69.0716 142.017C65.5424 140.937 62.0775 139.63 58.5883 138.41C57.9131 138.174 57.2518 137.896 56.5838 137.637L56.5831 137.636Z" fill="#EBEBEB"/>
<path d="M93.5371 150.767C92.7142 149.95 91.9241 149.093 91.0633 148.322C86.3666 144.111 82.6771 139.132 80.7081 132.983C77.319 122.398 79.3532 112.743 85.866 104.066C91.4397 96.6402 98.8944 91.9609 107.338 88.8639C111.352 87.392 115.508 86.5708 119.708 85.8533C123.097 85.2743 126.443 85.637 129.846 85.768C128.628 86.0546 127.409 86.3362 126.192 86.6289C110.772 90.3394 98.3983 104.027 95.8355 120.261C93.684 133.892 97.1038 145.863 105.872 156.217C106.238 156.649 106.542 157.139 106.875 157.601C105.132 156.926 103.309 156.414 101.664 155.541C98.8955 154.071 96.2399 152.371 93.5371 150.767Z" fill="#EBEBEB"/>
<path d="M258.457 161.562C258.428 160.908 258.374 160.254 258.374 159.601C258.369 149.633 258.37 139.666 258.37 129.698V127.612H238.377V106.451H250.294V123.256H274.085C274.155 123.723 274.248 124.054 274.248 124.385C274.256 134.054 274.253 143.723 274.25 153.392C274.25 153.569 274.21 153.746 274.189 153.923V161.562H258.457L258.457 161.562Z" fill="#EBEBEB"/>
<path d="M94.855 8.96699C94.8829 9.62025 94.9347 10.2735 94.935 10.9271C94.9402 20.8911 94.9388 30.855 94.9388 40.8193V42.9545H115.009V64.1132C111.064 64.3733 107.14 64.1624 103.006 64.2388V47.259H79.1262C79.013 46.9401 78.9067 46.7808 78.9067 46.6215C78.9123 36.7186 78.9264 26.8153 78.9399 16.9123V9.03156C84.301 8.87982 89.5794 8.98852 94.8553 8.96699H94.855Z" fill="#EBEBEB"/>
<path d="M398.32 65.5361C400.374 66.0108 402.453 66.391 404.475 66.9826C407.446 67.8518 410.406 68.7845 413.307 69.8711C414.461 70.3031 415.546 71.098 416.485 71.9411C417.926 73.2339 417.937 74.8235 416.459 76.0594C415.315 77.0158 413.992 77.8118 412.64 78.4138C408.454 80.2778 404.009 81.213 399.546 82.018C392.078 83.3654 384.545 84.0886 376.984 84.6289C366.773 85.3582 356.56 85.1699 346.343 85.0386C345.436 85.0271 344.531 84.927 343.639 84.7161C347.029 84.2985 350.427 83.9444 353.806 83.4486C359.659 82.5902 365.461 81.4483 370.967 79.123C372.547 78.4554 374.036 77.5298 375.508 76.6208C376.132 76.2355 376.678 75.6465 377.133 75.0466C378.297 73.512 378.382 71.9263 377.115 70.5025C376.124 69.3886 374.901 68.4182 373.625 67.6717C370.251 65.6972 366.52 64.6999 362.783 63.7618C361.512 63.4426 360.231 63.1667 358.878 62.8531C361.696 62.8531 364.425 62.7925 367.151 62.8679C370.879 62.9708 374.604 63.1771 378.33 63.3392C381.334 63.6147 384.344 63.8379 387.341 64.1798C390.836 64.5783 394.319 65.0816 397.808 65.5351C397.976 65.5569 398.15 65.5365 398.321 65.5358L398.32 65.5361Z" fill="#EBEBEB"/>
<path d="M273.702 42.3563C273.978 42.6419 274.233 42.9551 274.535 43.2073C275.026 43.6173 275.58 43.9502 276.052 44.3811C278.581 46.6895 278.491 49.0432 275.905 51.2846C275.089 51.9913 274.275 51.9917 273.338 51.8421C271.921 51.6157 270.498 51.4033 269.071 51.2756C268.107 51.1895 267.13 51.2591 265.948 51.2591C266.98 52.0613 267.914 52.717 268.771 53.4675C271.938 56.2406 274.206 59.6009 274.868 63.9441C275.654 69.1038 273.994 73.4707 270.662 77.2038C267.193 81.0911 262.786 83.288 257.887 84.5217C257.737 84.5593 257.588 84.5999 257.43 84.6411C257.524 84.8083 257.602 84.9478 257.755 85.2216C253.253 85.049 248.814 85.5197 243.963 84.8173C251.938 81.8588 257.054 76.6075 258.62 68.2637C260.181 59.9474 257.454 53.0489 251.232 47.3335C253.375 47.0834 255.23 47.3754 257.017 47.8741C258.497 48.287 259.399 47.7973 260.202 46.5801C261.587 44.4804 261.618 42.3804 260.156 40.2861C259.691 39.6185 259.138 39.0158 258.626 38.3833C258.962 38.257 259.336 37.9614 259.631 38.0296C263.876 39.0093 268.106 40.0504 272.106 41.895C272.605 42.125 273.168 42.206 273.701 42.3563H273.702Z" fill="#EBEBEB"/>
<path d="M224.236 20.3622C224.389 20.7034 224.458 20.9401 224.598 21.2253C228.162 28.4715 225.508 35.86 220.348 40.5197C217.353 43.2239 213.878 44.9985 210.068 46.0532C209.477 46.2168 208.679 46.1156 208.133 45.8233C205.881 44.6176 203.604 43.5478 201.043 43.2823C200.856 43.263 200.69 43.0248 200.397 42.7966C206.343 41.8427 211.061 38.9649 214.427 33.9616C218.397 28.0607 219.199 21.6092 217.076 14.7612C216.92 14.2579 216.779 13.75 216.631 13.2441C218.331 13.4712 219.382 14.8158 220.552 15.8604C221.702 16.8878 222.612 18.2062 223.635 19.3893C223.89 19.6838 223.932 19.7635 224.237 20.3626L224.236 20.3622Z" fill="#EBEBEB"/>
<path d="M244.739 32.2871C245.254 33.0594 245.75 33.8462 246.287 34.6017C248.416 37.6 248.019 41.7624 245.847 43.8305C243.051 43.5267 240.441 42.9559 237.851 43.0428C235.279 43.1289 232.728 43.8765 230.309 44.3087C231.309 43.263 232.48 42.2195 233.442 40.9987C236.687 36.8807 236.845 32.0209 233.976 27.6328C233.752 27.2899 233.535 26.9415 233.315 26.5957C234.703 27.0782 236.164 27.4097 237.465 28.0766C239.65 29.1966 241.734 30.53 243.86 31.7734C244.153 31.9445 244.446 32.1156 244.738 32.2867L244.739 32.2871Z" fill="#EBEBEB"/>
<path d="M146.522 69.8363C146.542 74.3019 146.558 78.7674 146.583 83.233C146.587 84.0064 146.623 84.7795 146.645 85.5526C145.591 85.5687 144.537 85.5601 143.486 85.6147C143.132 85.633 142.786 85.8105 142.437 85.9153C141.016 85.7643 139.596 85.6136 138.175 85.4626C138.17 85.3994 138.165 85.3359 138.16 85.2728C138.942 85.2093 139.724 85.1462 140.688 85.0679V71.3028C140.692 70.8149 140.695 70.3274 140.699 69.8395L140.69 69.8492C142.634 69.8449 144.578 69.8406 146.523 69.8359L146.522 69.8363Z" fill="#EBEBEB"/>
<path d="M177.637 26.1351C178.089 27.4686 178.442 28.8493 179.01 30.1275C182.261 37.4501 187.768 41.6401 195.689 42.8735C194.38 43.1892 193.14 43.2347 192.154 43.7779C189.915 45.0116 188.138 44.0975 186.308 42.8882C182.586 40.4287 179.635 37.3037 178.108 32.9031C178.023 32.6591 177.738 31.9051 177.568 31.6927C177.451 30.0672 177.346 29.0129 177.281 27.3853C177.265 26.9742 177.511 26.552 177.637 26.1348V26.1351Z" fill="#EBEBEB"/>
<path d="M178.023 37.4883C179.789 41.4904 182.771 44.2591 186.521 46.3645C185.752 46.9697 185.075 47.5021 184.387 48.0434C181.83 46.4603 179.602 44.6516 178.303 41.8469C178.243 41.7171 178.065 41.6461 177.942 41.5478C177.872 41.034 177.728 40.5171 177.75 40.0077C177.785 39.1654 177.926 38.3277 178.023 37.4883H178.023Z" fill="#EBEBEB"/>
<path d="M178.042 45.6777C179.4 47.1669 180.758 48.656 182.252 50.2943C181.965 50.6775 181.49 51.3114 180.942 52.0417C180.026 51.3942 179.165 50.7854 178.304 50.177C177.718 48.7087 177.647 47.2078 178.042 45.6777Z" fill="#EBEBEB"/>
<path d="M174.433 102.184C172.899 100.315 170.792 99.4139 168.674 98.5615C167.512 98.0944 166.287 97.8013 165.117 97.3565C164.502 97.123 163.944 96.7305 163.36 96.4102C164.581 96.634 165.832 96.7481 167.015 97.1054C169.195 97.764 171.385 98.4115 173.289 99.8185C174.133 100.442 174.556 101.131 174.433 102.184H174.433Z" fill="#EBEBEB"/>
<path d="M170.852 104.295C172.627 105.773 173.772 107.741 174.84 109.778C175.098 110.271 175.475 110.698 175.797 111.156C175.926 112.189 176.066 113.222 176.167 114.258C176.178 114.366 175.956 114.499 175.843 114.62C175.332 113.332 174.946 111.97 174.283 110.773C173.135 108.702 171.815 106.733 170.567 104.721C170.662 104.579 170.757 104.437 170.852 104.295Z" fill="#EBEBEB"/>
<path d="M167.97 99.5312C170.342 99.9894 172.187 101.423 173.962 102.998C174.178 103.19 174.497 103.256 174.768 103.38C174.779 103.921 174.79 104.463 174.8 105.005C173.191 102.934 171.147 101.449 168.885 100.252C168.545 100.072 168.248 99.8028 167.931 99.575L167.97 99.5312H167.97Z" fill="#EBEBEB"/>
<path d="M175.465 109.71C174.435 107.289 172.911 105.237 171.108 103.391C171.228 103.284 171.347 103.177 171.466 103.07C172.694 104.39 173.922 105.711 175.149 107.031C175.255 107.924 175.36 108.817 175.465 109.711V109.71Z" fill="#EBEBEB"/>
<path d="M197.706 104.251V85.667C198.124 85.3976 198.083 85.5849 198.542 85.426C199.715 85.3105 199.889 85.2437 201.453 84.9661C202.282 84.8857 202.135 84.9625 202.889 84.7289C211.324 82.1177 216.352 76.3126 217.963 67.3219C217.994 67.149 218.039 66.979 218.125 66.6016C218.917 70.3296 219.967 73.7476 222.184 76.799C216.676 82.9496 209.657 85.1049 201.74 85.4941V102.432C201.738 103.033 201.736 103.634 201.734 104.235L201.743 104.225C200.398 104.234 199.052 104.242 197.706 104.25V104.251Z" fill="#EBEBEB"/>
<path d="M206.668 100.665V85.6478C208.629 85.5096 210.488 85.3791 212.458 85.2402V98.7155C212.45 99.3602 212.442 100.004 212.434 100.649C210.512 100.654 208.59 100.66 206.668 100.665V100.665Z" fill="#EBEBEB"/>
<path d="M155.616 66.3039C155.638 72.4383 155.661 78.5727 155.676 84.7071C155.676 84.8707 155.589 85.0343 155.521 85.2761H151.5V83.4157C151.5 79.006 151.504 74.5968 151.495 70.1872C151.493 69.5978 151.424 69.0087 151.386 68.4193C151.387 67.7008 151.388 66.9822 151.389 66.2637L151.381 66.2719C152.793 66.2827 154.205 66.2934 155.616 66.3039Z" fill="#EBEBEB"/>
<path d="M220.622 53.8363C220.543 54.072 220.47 54.1782 220.401 54.3909C219.644 56.7342 218.839 59.0606 218.044 61.4024C217.411 56.803 215.531 52.7705 212.199 49.1124C212.724 49.2538 212.943 49.2595 213.103 49.3639C214.853 50.5068 216.684 50.359 218.535 49.7294C220.487 49.0658 222.431 48.3741 224.378 47.6936C224.796 47.5472 225.213 47.3955 225.785 47.431C225.56 47.6993 225.336 47.9677 225.111 48.2357C223.948 49.6207 222.801 51.0205 221.611 52.3802C221.301 52.7342 220.715 53.6813 220.684 53.7452C220.675 53.757 220.638 53.8112 220.622 53.8366V53.8363Z" fill="#EBEBEB"/>
<path d="M206.652 104.209H217.437V106.13C217.372 106.17 217.276 106.28 217.18 106.28C212.024 106.271 206.869 106.252 201.713 106.234C201.723 105.565 201.733 104.895 201.743 104.226L201.734 104.236C203.373 104.227 205.013 104.218 206.652 104.209Z" fill="#EBEBEB"/>
<path d="M234.633 85.1264H213.496C217.69 84.4822 221.743 83.3482 225.615 81.5233C225.985 81.3489 226.602 81.477 227 81.6829C227.864 82.131 228.66 82.72 229.713 83.3991C227.526 83.8461 225.546 84.2504 223.567 84.6547C223.567 84.7433 223.567 84.8323 223.568 84.9209C224.746 84.9209 225.927 84.9686 227.102 84.9083C228.418 84.8409 229.73 84.5826 231.043 84.5797C232.249 84.5772 233.454 84.8043 234.66 84.9299C234.651 84.9951 234.642 85.0608 234.633 85.1261V85.1264Z" fill="#EBEBEB"/>
<path d="M146.469 66.2805H135.946V64.3254C136.424 64.3254 136.86 64.3225 137.297 64.3258C141.989 64.3602 146.681 64.3953 151.373 64.4305C151.376 65.0418 151.378 65.6527 151.381 66.264L151.389 66.2558C149.749 66.264 148.109 66.2723 146.469 66.2809V66.2805Z" fill="#EBEBEB"/>
<path d="M212.426 100.642C214.113 100.634 215.799 100.627 217.485 100.619C217.516 101.144 217.546 101.668 217.587 102.369H212.416C212.419 101.794 212.423 101.218 212.426 100.642Z" fill="#EBEBEB"/>
<path d="M140.71 68.4858C140.703 68.9392 140.697 69.3927 140.69 69.8461L140.699 69.8364C139.106 69.8425 137.514 69.8486 135.922 69.8547C135.9 69.4511 135.879 68.9127 135.856 68.4764C137.511 68.3706 139.106 68.437 140.71 68.4854V68.4858Z" fill="#EBEBEB"/>
<path d="M173.516 110.98C174.909 113.251 175.404 115.811 175.613 118.466C174.88 116.001 174.147 113.537 173.414 111.073L173.516 110.98Z" fill="#EBEBEB"/>
<path d="M169.259 101.78C169.093 101.759 168.927 101.738 168.557 101.692C169.036 102.312 169.434 102.827 169.832 103.341C169.717 103.431 169.603 103.52 169.489 103.61C168.681 102.568 167.873 101.526 166.987 100.384C168.1 100.244 168.728 101.027 169.47 101.526C169.401 101.612 169.331 101.697 169.259 101.78L169.259 101.78Z" fill="#EBEBEB"/>
<path d="M171.108 103.39C170.492 102.855 169.875 102.32 169.259 101.786C169.331 101.702 169.402 101.617 169.471 101.531C170.136 102.044 170.801 102.556 171.466 103.069C171.347 103.176 171.228 103.283 171.108 103.39H171.108Z" fill="#EBEBEB"/>
<path d="M173.414 111.071C173.087 110.34 172.759 109.608 172.432 108.877L172.401 108.902C172.773 109.594 173.145 110.286 173.517 110.978L173.414 111.071Z" fill="#EBEBEB"/>
<path d="M167.822 99.6572C167.526 99.6163 167.339 99.4936 167.043 99.4531C167.068 99.3666 167.093 99.2798 167.118 99.1934C167.402 99.3064 167.604 99.3864 167.888 99.4994L167.822 99.6576V99.6572Z" fill="#EBEBEB"/>
<path d="M172.431 108.875C172.319 108.705 172.207 108.535 172.095 108.365C172.17 108.333 172.374 108.689 172.4 108.9L172.431 108.874V108.875Z" fill="#EBEBEB"/>
<path d="M170.254 104.318C170.207 104.154 170.159 103.99 170.112 103.826C170.285 103.905 170.458 103.985 170.631 104.064C170.505 104.149 170.379 104.233 170.254 104.318V104.318Z" fill="#EBEBEB"/>
<path d="M170.632 104.071C170.691 104.161 170.765 104.236 170.853 104.295C170.758 104.437 170.662 104.58 170.568 104.722C170.463 104.589 170.36 104.457 170.255 104.324C170.381 104.239 170.507 104.155 170.632 104.07V104.071Z" fill="#EBEBEB"/>
</svg>
