<svg width="600" height="600" viewBox="0 0 600 600" fill="none" xmlns="http://www.w3.org/2000/svg">
<path d="M300 -1.79003e-06L300 151.175L298.432 151.175C216.238 151.175 149.607 217.806 149.607 299.999L-2.79646e-06 299.999L-1.40188e-06 150.391L149.607 150.391L149.607 -8.92673e-07L300 -1.79003e-06Z" fill="#52D891"/>
<path d="M600 -1.79003e-06L600 151.175L598.432 151.175C516.238 151.175 449.607 217.806 449.607 299.999L300 299.999L300 150.391L449.607 150.391L449.607 -8.92673e-07L600 -1.79003e-06Z" fill="#52D891"/>
<path d="M300 300L300 451.175L298.432 451.175C216.238 451.175 149.607 517.806 149.607 599.999L-2.79646e-06 599.999L-1.40188e-06 450.391L149.607 450.391L149.607 300L300 300Z" fill="#52D891"/>
<path d="M600 300L600 451.175L598.432 451.175C516.238 451.175 449.607 517.806 449.607 599.999L300 599.999L300 450.391L449.607 450.391L449.607 300L600 300Z" fill="#52D891"/>
</svg>
