<svg width="264" height="264" viewBox="0 0 264 264" fill="none" xmlns="http://www.w3.org/2000/svg">
<path d="M131.52 -7.8475e-07L131.52 66.275L130.833 66.275C94.799 66.275 65.5879 95.4861 65.5879 131.52L-1.22597e-06 131.52L-6.14585e-07 65.9316L65.5879 65.9316L65.5879 -3.91348e-07L131.52 -7.8475e-07Z" fill="#52D891"/>
<path d="M263.04 -7.8475e-07L263.04 66.275L262.352 66.275C226.319 66.275 197.107 95.4861 197.107 131.52L131.52 131.52L131.52 65.9316L197.107 65.9316L197.107 -3.91348e-07L263.04 -7.8475e-07Z" fill="#52D891"/>
<path d="M131.52 131.52L131.52 197.795L130.833 197.795C94.799 197.795 65.5879 227.006 65.5879 263.039L-1.22597e-06 263.039L-6.14585e-07 197.451L65.5879 197.451L65.5879 131.52L131.52 131.52Z" fill="#52D891"/>
<path d="M263.04 131.52L263.04 197.795L262.352 197.795C226.319 197.795 197.107 227.006 197.107 263.039L131.52 263.039L131.52 197.451L197.107 197.451L197.107 131.52L263.04 131.52Z" fill="#52D891"/>
</svg>
