<?xml version="1.0" encoding="utf-8"?>
<!-- Generator: Adobe Illustrator 25.3.1, SVG Export Plug-In . SVG Version: 6.00 Build 0)  -->
<svg version="1.1" id="Layer_1" xmlns="http://www.w3.org/2000/svg" xmlns:xlink="http://www.w3.org/1999/xlink" x="0px" y="0px"
	 viewBox="0 0 223.6 189.7" style="enable-background:new 0 0 223.6 189.7;" xml:space="preserve">
<style type="text/css">
	.st0{fill:none;stroke:#000000;}
</style>
<path class="st0" d="M111.5,189.2h59.8v0h0.5h0.5v-1.6v-0.5h0.5h10.4v-3.8v-0.5h0.5h6.8v-3.8v-0.5h0.5h6.8v-5.9v-0.5h0.5h6.8v-10.1
	v-0.5h0.5h6.8v-12.3v-0.5h0.5h6.8v-16.6v-0.5h0.5h3.1V94.6c0,0,0-28.4,0-28.4h-3.1h-0.5v-0.5V40.8h-6.8h-0.5v-0.5V28.1h-6.8h-0.5
	v-0.5V17.5h-6.8h-0.5V17v-5.9h-6.8h-0.5v-0.5V6.9h-6.8h-0.5V6.4V2.6h-10.4h-0.5V2.1V0.5c0,0-60.8,0-60.8,0l-60.2,0v1.6v0.5h-0.5
	H40.4v3.8v0.5h-0.5h-6.8v3.8v0.5h-0.5h-6.8V17v0.5h-0.5h-6.8v10.1v0.5h-0.5h-6.8v12.3v0.5h-0.5H4.1v25v0.5H3.6H0.5
	c0,0,0,28.1,0,28.1v37.2h3.1h0.5v0.5v16.5h6.8h0.5v0.5v12.3h6.8h0.5v0.5v10.2h6.8h0.5v0.5v5.9h6.8h0.5v0.5v3.8h6.8h0.5v0.5v3.8h10.4
	h0.5v0.5v1.6h5.5h0.5v0C57.2,189.2,111.5,189.2,111.5,189.2z"/>
</svg>
