<svg width="24" height="24" viewBox="0 0 24 24" fill="none" xmlns="http://www.w3.org/2000/svg">
<rect x="24" y="8.99609" width="3.01966" height="2.96063" transform="rotate(90 24 8.99609)" fill="#24C5C9"/>
<rect x="21.0391" y="3.01953" width="5.97641" height="3.02362" transform="rotate(90 21.0391 3.01953)" fill="#24C5C9"/>
<rect x="18.0156" width="6.03932" height="5.98425" transform="rotate(90 18.0156 0)" fill="#24C5C9"/>
<rect x="24" y="20.9805" width="3.01966" height="2.96063" transform="rotate(90 24 20.9805)" fill="#24C5C9"/>
<rect x="21.0391" y="15.0039" width="5.97641" height="3.02362" transform="rotate(90 21.0391 15.0039)" fill="#24C5C9"/>
<rect x="18.0156" y="11.9844" width="6.03932" height="5.98425" transform="rotate(90 18.0156 11.9844)" fill="#24C5C9"/>
<rect width="3.01966" height="2.97621" transform="matrix(-6.32955e-08 1 1 3.01867e-08 0 8.99609)" fill="#24C5C9"/>
<rect width="5.97641" height="3.03954" transform="matrix(-4.37687e-08 1 1 4.36541e-08 2.97656 3.01953)" fill="#24C5C9"/>
<rect width="6.03932" height="6.01575" transform="matrix(-3.02263e-08 1 1 6.32126e-08 6.01562 0)" fill="#24C5C9"/>
<rect width="3.01966" height="2.97621" transform="matrix(-6.32955e-08 1 1 3.01867e-08 0 20.9805)" fill="#24C5C9"/>
<rect width="5.97641" height="3.03954" transform="matrix(-4.37687e-08 1 1 4.36541e-08 2.97656 15.0039)" fill="#24C5C9"/>
<rect width="6.03932" height="6.01575" transform="matrix(-4.98105e-08 1 1 4.96879e-08 6.01562 11.9844)" fill="#24C5C9"/>
</svg>
