<svg width="24" height="24" viewBox="0 0 24 24" fill="none" xmlns="http://www.w3.org/2000/svg">
<path d="M12 0V6.04699H11.9373C8.64954 6.04699 5.98429 8.71223 5.98429 12H0V6.01565H5.98429V0H12Z" fill="#C346CE"/>
<path d="M24 0V6.04699H23.9373C20.6495 6.04699 17.9843 8.71223 17.9843 12H12V6.01565H17.9843V0H24Z" fill="#C346CE"/>
<path d="M12 12V18.047H11.9373C8.64954 18.047 5.98429 20.7122 5.98429 24H0V18.0157H5.98429V12H12Z" fill="#C346CE"/>
<path d="M24 12V18.047H23.9373C20.6495 18.047 17.9843 20.7122 17.9843 24H12V18.0157H17.9843V12H24Z" fill="#C346CE"/>
</svg>
