<svg width="24" height="24" viewBox="0 0 24 24" fill="none" xmlns="http://www.w3.org/2000/svg">
<path d="M6.01769 0V3.03238H5.98622C4.33751 3.03238 3.00097 4.36892 3.00097 6.01763H0V3.01667H3.00097V0H6.01769Z" fill="#52D891"/>
<path d="M6.01356 0V3.03238H6.04503C7.69374 3.03238 9.03028 4.36892 9.03028 6.01763H12.0312V3.01667H9.03028V0H6.01356Z" fill="#52D891"/>
<path d="M6.01769 12.0312V8.99887H5.98622C4.33751 8.99887 3.00097 7.66233 3.00097 6.01362H0V9.01458H3.00097V12.0312H6.01769Z" fill="#52D891"/>
<path d="M6.01356 12.0312V8.99887H6.04503C7.69374 8.99887 9.03028 7.66233 9.03028 6.01362H12.0312V9.01458H9.03028V12.0312H6.01356Z" fill="#52D891"/>
<path d="M17.9864 0V3.03238H17.955C16.3063 3.03238 14.9697 4.36892 14.9697 6.01763H11.9688V3.01667H14.9697V0H17.9864Z" fill="#52D891"/>
<path d="M17.9823 0V3.03238H18.0138C19.6625 3.03238 20.999 4.36892 20.999 6.01763H24V3.01667H20.999V0H17.9823Z" fill="#52D891"/>
<path d="M17.9864 12.0312V8.99887H17.955C16.3063 8.99887 14.9697 7.66233 14.9697 6.01362H11.9688V9.01458H14.9697V12.0312H17.9864Z" fill="#52D891"/>
<path d="M17.9823 12.0312V8.99887H18.0138C19.6625 8.99887 20.999 7.66233 20.999 6.01362H24V9.01458H20.999V12.0312H17.9823Z" fill="#52D891"/>
<path d="M6.01769 11.9688V15.0011H5.98622C4.33751 15.0011 3.00097 16.3377 3.00097 17.9864H0V14.9854H3.00097V11.9688H6.01769Z" fill="#52D891"/>
<path d="M6.01356 11.9688V15.0011H6.04503C7.69374 15.0011 9.03028 16.3377 9.03028 17.9864H12.0312V14.9854H9.03028V11.9688H6.01356Z" fill="#52D891"/>
<path d="M6.01769 24V20.9676H5.98622C4.33751 20.9676 3.00097 19.6311 3.00097 17.9824H0V20.9833H3.00097V24H6.01769Z" fill="#52D891"/>
<path d="M6.01356 24V20.9676H6.04503C7.69374 20.9676 9.03028 19.6311 9.03028 17.9824H12.0312V20.9833H9.03028V24H6.01356Z" fill="#52D891"/>
<path d="M17.9864 11.9688V15.0011H17.955C16.3063 15.0011 14.9697 16.3377 14.9697 17.9864H11.9688V14.9854H14.9697V11.9688H17.9864Z" fill="#52D891"/>
<path d="M17.9823 11.9688V15.0011H18.0138C19.6625 15.0011 20.999 16.3377 20.999 17.9864H24V14.9854H20.999V11.9688H17.9823Z" fill="#52D891"/>
<path d="M17.9864 24V20.9676H17.955C16.3063 20.9676 14.9697 19.6311 14.9697 17.9824H11.9688V20.9833H14.9697V24H17.9864Z" fill="#52D891"/>
<path d="M17.9823 24V20.9676H18.0138C19.6625 20.9676 20.999 19.6311 20.999 17.9824H24V20.9833H20.999V24H17.9823Z" fill="#52D891"/>
</svg>
