<svg width="130" height="24" viewBox="0 0 130 24" fill="none" xmlns="http://www.w3.org/2000/svg">
<path d="M17.0771 2.87093H15.0078V0H20.128V19.0289H17.0771V2.87093Z" fill="#2C2222"/>
<path d="M37.3809 16.2685L44.3643 7.81844H37.3809V4.95898H48.1566V7.83502L41.1639 16.2058H48.2073V19.0258H37.3809V16.2687V16.2685Z" fill="#2C2222"/>
<path d="M113.789 16.1795V19.0408H107.535V7.82139H105.09V4.95811H107.535V0H110.609V4.95811H113.734V7.82139H110.609V16.1795H113.789Z" fill="#2C2222"/>
<path d="M29.2929 5.22873C28.9831 5.22873 28.8942 5.23191 28.7459 5.25018L32.8111 0.0175781H29.1019L23.2575 7.72595C22.1905 9.2038 21.6641 10.5302 21.6641 12.3601C21.6641 16.2423 24.7095 19.3384 28.9498 19.3384C33.0491 19.3384 36.208 16.412 36.208 12.3601C36.208 8.30808 33.0511 5.22873 29.2932 5.22873H29.2929ZM28.9328 16.5792C26.5706 16.5792 24.775 14.6382 24.775 12.3025C24.775 9.96673 26.584 8.02742 28.9461 8.02742C31.2808 8.02742 33.1224 9.96694 33.1224 12.3025C33.1224 14.638 31.2675 16.5792 28.9328 16.5792Z" fill="#2C2222"/>
<path d="M11.8934 4.95894V6.0259C10.0845 4.68105 8.45287 4.5625 7.17423 4.5625C3.4206 4.5625 0 7.4891 0 11.987C0 16.4573 3.53512 19.2968 7.14479 19.2968C9.05083 19.2968 10.0699 19.1269 11.8934 17.8744V19.0151H14.9357V4.95894H11.8934ZM7.39532 7.60106C9.81681 7.60106 11.7789 9.54122 11.7789 11.9343C11.7789 14.3274 9.81681 16.2689 7.39532 16.2689C5.01229 16.2689 3.07424 14.3895 3.01429 12.0463C3.013 12.0093 3.013 11.9713 3.013 11.9343C3.013 11.8224 3.01709 11.7104 3.02632 11.6012C3.0317 11.5275 3.03836 11.455 3.0476 11.3826C3.04889 11.3785 3.04889 11.3747 3.04889 11.3707C3.32864 9.24357 5.16807 7.60127 7.3951 7.60127L7.39532 7.60106Z" fill="#2C2222"/>
<path d="M93.2903 24V17.9447C95.0992 19.2896 96.7308 19.4081 98.0095 19.4081C101.763 19.4081 105.184 16.4816 105.184 11.9836C105.184 7.51332 101.649 4.67383 98.0389 4.67383C96.1329 4.67383 95.1138 4.84379 93.2903 6.09623V4.95555H90.248V24H93.2903ZM97.7884 16.3696C95.3669 16.3696 93.4048 14.4294 93.4048 12.0363C93.4048 9.6432 95.3669 7.70177 97.7884 7.70177C100.171 7.70177 102.109 9.58116 102.169 11.9243C102.171 11.9613 102.171 11.9993 102.171 12.0363C102.171 12.1483 102.167 12.2602 102.157 12.3694C102.152 12.4432 102.145 12.5156 102.136 12.5881C102.135 12.5921 102.135 12.5959 102.135 12.6C101.855 14.7271 100.016 16.3694 97.7886 16.3694L97.7884 16.3696Z" fill="#2C2222"/>
<path d="M122.662 4.66471C122.602 4.66067 122.542 4.65812 122.481 4.65812C122.438 4.65685 122.397 4.65685 122.355 4.65557C122.326 4.6543 122.298 4.6543 122.269 4.6543H122.225C120.091 4.66619 118.174 5.52218 116.842 6.96456C116.774 7.03828 116.706 7.11476 116.642 7.19103C116.605 7.23586 116.568 7.28069 116.532 7.32679C115.561 8.53334 114.971 10.0887 114.94 11.8696C114.937 11.9197 114.938 11.9696 114.938 12.021V12.0499C114.952 16.3515 118.193 19.3559 122.203 19.3876C122.225 19.3888 122.248 19.3888 122.269 19.3888C122.322 19.3888 122.377 19.3888 122.43 19.3863C122.447 19.3876 122.463 19.3863 122.481 19.385C126.431 19.2849 129.6 16.3464 129.6 12.0212C129.6 7.83414 126.527 4.85358 122.662 4.66534V4.66471ZM122.333 16.3605C119.95 16.3605 118.012 14.4811 117.952 12.1379C117.951 12.1009 117.951 12.0629 117.951 12.0259C117.951 11.914 117.955 11.802 117.964 11.6928C117.969 11.6191 117.976 11.5466 117.985 11.4742C117.986 11.4701 117.986 11.4663 117.986 11.4623C118.266 9.33515 120.106 7.69286 122.333 7.69286C124.754 7.69286 126.716 9.63301 126.716 12.0261C126.716 14.4192 124.754 16.3607 122.333 16.3607L122.333 16.3605Z" fill="#2C2222"/>
<path d="M49.3848 12.0215C49.3848 7.9034 52.6427 4.6543 56.7223 4.6543C60.6886 4.6543 63.5783 7.28728 64.0315 10.957H60.8919C60.5301 8.93509 58.6889 7.69286 56.7223 7.69286C54.333 7.69286 52.3595 9.67296 52.3595 12.0215C52.3595 14.4035 54.272 16.3607 56.7507 16.3607C58.9321 16.3607 60.4669 15.0749 60.8919 13.03H64.0315C63.5781 16.7278 60.5185 19.3886 56.7223 19.3886C52.586 19.3886 49.3848 16.2234 49.3848 12.0215Z" fill="#2C2222"/>
<path d="M89.302 4.95898L81.307 23.9996H75.7829V21.1421H79.3756L80.5359 18.4332L74.584 4.95898H77.8909L82.0872 14.8236L86.0557 4.95898H89.302Z" fill="#2C2222"/>
<path d="M65.9922 4.95898H73.6905V7.82843H69.0649V19.0247H65.9924V4.95898H65.9922Z" fill="#2C2222"/>
</svg>
