<svg width="95" height="49" viewBox="0 0 95 49" fill="none" xmlns="http://www.w3.org/2000/svg">
<g clip-path="url(#clip0_980_7398)">
<path d="M20.1175 3.42942H17.6797V0.00195312H23.7116V22.7197H20.1175V3.42942Z" fill="#EBEBEB"/>
<path d="M44.0391 19.4238L52.2661 9.33565H44.0391V5.92188H56.7337V9.35543L48.4958 19.3489H56.7934V22.7155H44.0391V19.424V19.4238Z" fill="#EBEBEB"/>
<path d="M34.5089 6.2438C34.1439 6.2438 34.0391 6.2476 33.8644 6.26941L38.6535 0.0224609H34.2838L27.3986 9.22511C26.1416 10.9894 25.5215 12.5729 25.5215 14.7575C25.5215 19.3924 29.1093 23.0887 34.1046 23.0887C38.934 23.0887 42.6554 19.595 42.6554 14.7575C42.6554 9.92008 38.9363 6.2438 34.5091 6.2438H34.5089ZM34.0846 19.7946C31.3018 19.7946 29.1865 17.4774 29.1865 14.6888C29.1865 11.9003 31.3175 9.58502 34.1003 9.58502C36.8508 9.58502 39.0203 11.9005 39.0203 14.6888C39.0203 17.4771 36.8351 19.7946 34.0846 19.7946Z" fill="#EBEBEB"/>
<path d="M14.0114 5.92349V7.19728C11.8803 5.59173 9.95812 5.4502 8.45178 5.4502C4.02972 5.4502 0 8.94412 0 14.314C0 19.6509 4.16464 23.0408 8.4171 23.0408C10.6626 23.0408 11.8631 22.8379 14.0114 21.3427V22.7045H17.5954V5.92349H14.0114ZM8.71225 9.07778C11.5649 9.07778 13.8765 11.394 13.8765 14.2511C13.8765 17.1081 11.5649 19.4259 8.71225 19.4259C5.90486 19.4259 3.62169 17.1822 3.55106 14.3847C3.54955 14.3406 3.54955 14.2952 3.54955 14.2511C3.54955 14.1174 3.55436 13.9837 3.56524 13.8534C3.57157 13.7653 3.57941 13.6789 3.5903 13.5924C3.59182 13.5875 3.59182 13.583 3.59182 13.5782C3.92138 11.0387 6.08837 9.07804 8.71199 9.07804L8.71225 9.07778Z" fill="#EBEBEB"/>
<path d="M75.8735 38.6655V42.0813H68.5053V28.6869H65.625V25.2686H68.5053V19.3496H72.1272V25.2686H75.8086V28.6869H72.1272V38.6655H75.8735Z" fill="#EBEBEB"/>
<path d="M51.7246 48.0022V40.7732C53.8556 42.3787 55.7779 42.5203 57.2842 42.5203C61.7063 42.5203 65.736 39.0264 65.736 33.6565C65.736 28.3196 61.5713 24.9297 57.3189 24.9297C55.0734 24.9297 53.8728 25.1326 51.7246 26.6278V25.266H48.1406V48.002H51.7246V48.0022ZM57.0237 38.8927C54.171 38.8927 51.8595 36.5764 51.8595 33.7194C51.8595 30.8624 54.171 28.5446 57.0237 28.5446C59.8311 28.5446 62.1143 30.7883 62.1849 33.5857C62.1864 33.6299 62.1864 33.6753 62.1864 33.7194C62.1864 33.8531 62.1816 33.9867 62.1707 34.1171C62.1644 34.2051 62.1566 34.2916 62.1457 34.3781C62.1442 34.3829 62.1442 34.3875 62.1442 34.3923C61.8146 36.9318 59.6476 38.8924 57.024 38.8924L57.0237 38.8927Z" fill="#EBEBEB"/>
<path d="M86.3263 24.9187C86.2557 24.9139 86.1851 24.9108 86.113 24.9108C86.0628 24.9093 86.014 24.9093 85.9654 24.9078C85.931 24.9062 85.8978 24.9063 85.8634 24.9063H85.8115C83.2977 24.9205 81.0396 25.9424 79.4705 27.6644C79.3905 27.7524 79.3105 27.8437 79.2351 27.9347C79.1911 27.9883 79.1473 28.0418 79.1047 28.0968C77.9609 29.5372 77.2655 31.3942 77.2296 33.5202C77.2266 33.58 77.2266 33.6397 77.2266 33.701V33.7355C77.2438 38.871 81.0616 42.4578 85.7864 42.4956C85.8115 42.4971 85.8383 42.4971 85.8634 42.4971C85.9262 42.4971 85.9904 42.4971 86.0532 42.494C86.0737 42.4956 86.0925 42.494 86.113 42.4925C90.7671 42.3731 94.5002 38.8649 94.5002 33.7013C94.5002 28.7025 90.88 25.1442 86.3263 24.9194V24.9187ZM85.9388 38.8817C83.1314 38.8817 80.8482 36.638 80.7776 33.8405C80.7761 33.7964 80.7761 33.751 80.7761 33.7069C80.7761 33.5732 80.7809 33.4395 80.7918 33.3092C80.7981 33.2211 80.806 33.1347 80.8169 33.0482C80.8184 33.0433 80.8184 33.0388 80.8184 33.034C81.1479 30.4945 83.3149 28.5338 85.9386 28.5338C88.7913 28.5338 91.1028 30.8501 91.1028 33.7071C91.1028 36.5641 88.7913 38.8819 85.9386 38.8819L85.9388 38.8817Z" fill="#EBEBEB"/>
<path d="M0 33.7015C0 28.7852 3.83811 24.9062 8.64416 24.9062C13.3168 24.9062 16.7211 28.0496 17.2549 32.4308H13.5563C13.13 30.0169 10.961 28.5338 8.64416 28.5338C5.82943 28.5338 3.50449 30.8978 3.50449 33.7015C3.50449 36.5454 5.75754 38.8819 8.67757 38.8819C11.2475 38.8819 13.0556 37.3469 13.5563 34.9056H17.2549C16.7208 39.3202 13.1163 42.4968 8.64416 42.4968C3.77128 42.4968 0 38.7181 0 33.7015H0Z" fill="#EBEBEB"/>
<path d="M47.0264 25.2705L37.6075 48.0019H31.0997V44.5904H35.3321L36.6988 41.3565L29.6875 25.2705H33.5828L38.5266 37.0471L43.2015 25.2705H47.0264Z" fill="#EBEBEB"/>
<path d="M19.5645 25.2705H28.6336V28.6962H23.1844V42.0629H19.5647V25.2705H19.5645Z" fill="#EBEBEB"/>
</g>
<defs>
<clipPath id="clip0_980_7398">
<rect width="94.5" height="48" fill="white" transform="translate(0 0.00195312)"/>
</clipPath>
</defs>
</svg>
